Merriweather-LightNarrow.ufo
<glyph name="one" format="2">
  <advance width="806.0"/>
  <unicode hex="0031"/>
  <outline>
    <contour>
      <point x="366.0" y="102.0" type="line"/>
      <point x="136.0" y="86.0" type="line"/>
      <point x="136.0" y="0.0" type="line"/>
      <point x="744.0" y="0.0" type="line"/>
      <point x="744.0" y="86.0" type="line"/>
      <point x="527.0" y="102.0" type="line"/>
      <point x="527.0" y="1484.0" type="line"/>
      <point x="432.0" y="1504.0" type="line"/>
      <point x="430.0" y="1504.0" type="line"/>
      <point x="342.0" y="1424.0"/>
      <point x="221.0" y="1351.0"/>
      <point x="98.0" y="1321.0" type="curve"/>
      <point x="118.0" y="1227.0" type="line"/>
      <point x="196.0" y="1239.0"/>
      <point x="317.0" y="1271.0"/>
      <point x="366.0" y="1304.0" type="curve"/>
    </contour>
  </outline>
</glyph>
<glyph name="three" format="2">
  <advance width="1018.0"/>
  <unicode hex="0033"/>
  <outline>
    <contour>
      <point x="276.0" y="-26.0" type="curve" smooth="yes"/>
      <point x="657.0" y="-26.0"/>
      <point x="923.0" y="188.0"/>
      <point x="918.0" y="488.0" type="curve" smooth="yes"/>
      <point x="915.0" y="676.0"/>
      <point x="753.0" y="824.0"/>
      <point x="507.0" y="800.0" type="curve"/>
      <point x="671.0" y="864.0"/>
      <point x="854.0" y="988.0"/>
      <point x="854.0" y="1214.0" type="curve" smooth="yes"/>
      <point x="854.0" y="1412.0"/>
      <point x="675.0" y="1502.0"/>
      <point x="482.0" y="1502.0" type="curve" smooth="yes"/>
      <point x="317.0" y="1502.0"/>
      <point x="144.0" y="1402.0"/>
      <point x="90.0" y="1342.0" type="curve"/>
      <point x="133.0" y="1270.0" type="line"/>
      <point x="203.0" y="1332.0"/>
      <point x="331.0" y="1386.0"/>
      <point x="445.0" y="1386.0" type="curve" smooth="yes"/>
      <point x="566.0" y="1386.0"/>
      <point x="682.0" y="1326.0"/>
      <point x="680.0" y="1182.0" type="curve" smooth="yes"/>
      <point x="678.0" y="992.0"/>
      <point x="562.0" y="920.0"/>
      <point x="415.0" y="854.0" type="curve" smooth="yes"/>
      <point x="366.0" y="832.0"/>
      <point x="313.0" y="818.0"/>
      <point x="263.0" y="808.0" type="curve"/>
      <point x="292.0" y="712.0" type="line"/>
      <point x="303.0" y="716.0"/>
      <point x="405.0" y="742.0"/>
      <point x="418.0" y="748.0" type="curve"/>
      <point x="644.0" y="744.0"/>
      <point x="736.0" y="640.0"/>
      <point x="736.0" y="460.0" type="curve" smooth="yes"/>
      <point x="736.0" y="250.0"/>
      <point x="564.0" y="70.0"/>
      <point x="253.0" y="70.0" type="curve" smooth="yes"/>
      <point x="221.0" y="70.0"/>
      <point x="164.0" y="74.0"/>
      <point x="126.0" y="86.0" type="curve"/>
      <point x="126.0" y="-8.0" type="line"/>
      <point x="171.0" y="-20.0"/>
      <point x="231.0" y="-26.0"/>
    </contour>
  </outline>
</glyph>
<glyph name="seven" format="2">
  <advance width="1059"/>
  <unicode hex="0037"/>
  <outline>
    <contour>
      <point x="518" y="-2" type="line"/>
      <point x="1004" y="1442" type="line"/>
      <point x="970" y="1486" type="line"/>
      <point x="118" y="1486" type="line"/>
      <point x="78" y="1120" type="line"/>
      <point x="176" y="1102" type="line"/>
      <point x="246" y="1352" type="line"/>
      <point x="864" y="1358" type="line"/>
      <point x="688" y="894"/>
      <point x="507" y="436"/>
      <point x="327" y="0" type="curve"/>
    </contour>
  </outline>
</glyph>
<glyph name="nine" format="2">
  <advance width="1157.0"/>
  <unicode hex="0039"/>
  <outline>
    <contour>
      <point x="567.0" y="1504.0" type="curve" smooth="yes"/>
      <point x="272.0" y="1504.0"/>
      <point x="90.0" y="1264.0"/>
      <point x="90.0" y="982.0" type="curve" smooth="yes"/>
      <point x="90.0" y="710.0"/>
      <point x="234.0" y="500.0"/>
      <point x="525.0" y="500.0" type="curve" smooth="yes"/>
      <point x="677.0" y="500.0"/>
      <point x="783.0" y="584.0"/>
      <point x="840.0" y="658.0" type="curve"/>
      <point x="768.0" y="364.0"/>
      <point x="614.0" y="106.0"/>
      <point x="270.0" y="-18.0" type="curve"/>
      <point x="308.0" y="-94.0" type="line"/>
      <point x="730.0" y="2.0"/>
      <point x="1042.0" y="422.0"/>
      <point x="1042.0" y="874.0" type="curve" smooth="yes"/>
      <point x="1042.0" y="1226.0"/>
      <point x="875.0" y="1504.0"/>
    </contour>
    <contour>
      <point x="527.0" y="604.0" type="curve" smooth="yes"/>
      <point x="373.0" y="604.0"/>
      <point x="264.0" y="732.0"/>
      <point x="264.0" y="1018.0" type="curve" smooth="yes"/>
      <point x="264.0" y="1208.0"/>
      <point x="358.0" y="1414.0"/>
      <point x="555.0" y="1414.0" type="curve" smooth="yes"/>
      <point x="785.0" y="1414.0"/>
      <point x="865.0" y="1148.0"/>
      <point x="865.0" y="914.0" type="curve" smooth="yes"/>
      <point x="865.0" y="890.0"/>
      <point x="863.0" y="816.0"/>
      <point x="861.0" y="792.0" type="curve"/>
      <point x="829.0" y="718.0"/>
      <point x="723.0" y="604.0"/>
    </contour>
  </outline>
</glyph>
<glyph name="equal" format="2">
  <advance width="1167"/>
  <unicode hex="003D"/>
  <outline>
    <contour>
      <point x="987" y="981" type="line"/>
      <point x="180" y="981" type="line"/>
      <point x="180" y="857" type="line"/>
      <point x="987" y="857" type="line"/>
    </contour>
    <contour>
      <point x="987" y="427" type="line"/>
      <point x="180" y="427" type="line"/>
      <point x="180" y="303" type="line"/>
      <point x="987" y="303" type="line"/>
    </contour>
  </outline>
</glyph>
<glyph name="greater" format="2">
  <advance width="1174.0"/>
  <unicode hex="003E"/>
  <outline>
    <contour>
      <point x="1030.0" y="548.0" type="line"/>
      <point x="1030.0" y="654.0" type="line"/>
      <point x="208.0" y="1150.0" type="line"/>
      <point x="208.0" y="1000.0" type="line"/>
      <point x="888.0" y="601.0" type="line"/>
      <point x="208.0" y="203.0" type="line"/>
      <point x="208.0" y="54.0" type="line"/>
    </contour>
  </outline>
</glyph>
<glyph name="question" format="2">
  <advance width="952.0"/>
  <unicode hex="003F"/>
  <outline>
    <contour>
      <point x="340.0" y="468.0" type="curve"/>
      <point x="462.0" y="468.0" type="line"/>
      <point x="456.0" y="536.0"/>
      <point x="452.0" y="614.0"/>
      <point x="452.0" y="704.0" type="curve" smooth="yes"/>
      <point x="452.0" y="722.0"/>
      <point x="452.0" y="750.0"/>
      <point x="454.0" y="766.0" type="curve"/>
      <point x="526.0" y="914.0"/>
      <point x="872.0" y="1032.0"/>
      <point x="872.0" y="1336.0" type="curve" smooth="yes"/>
      <point x="872.0" y="1574.0"/>
      <point x="742.0" y="1810.0"/>
      <point x="332.0" y="1810.0" type="curve" smooth="yes"/>
      <point x="256.0" y="1810.0"/>
      <point x="150.0" y="1792.0"/>
      <point x="108.0" y="1768.0" type="curve"/>
      <point x="134.0" y="1664.0" type="line"/>
      <point x="176.0" y="1682.0"/>
      <point x="254.0" y="1690.0"/>
      <point x="306.0" y="1690.0" type="curve" smooth="yes"/>
      <point x="604.0" y="1690.0"/>
      <point x="740.0" y="1504.0"/>
      <point x="740.0" y="1316.0" type="curve" smooth="yes"/>
      <point x="740.0" y="1196.0"/>
      <point x="642.0" y="1094.0"/>
      <point x="582.0" y="1048.0" type="curve" smooth="yes"/>
      <point x="456.0" y="952.0"/>
      <point x="284.0" y="912.0"/>
      <point x="284.0" y="748.0" type="curve"/>
      <point x="288.0" y="678.0"/>
      <point x="296.0" y="576.0"/>
    </contour>
    <contour>
      <point x="342.0" y="-22.0" type="curve" smooth="yes"/>
      <point x="412.0" y="-22.0"/>
      <point x="476.0" y="30.0"/>
      <point x="476.0" y="108.0" type="curve" smooth="yes"/>
      <point x="476.0" y="166.0"/>
      <point x="442.0" y="218.0"/>
      <point x="362.0" y="218.0" type="curve" smooth="yes"/>
      <point x="298.0" y="218.0"/>
      <point x="230.0" y="162.0"/>
      <point x="230.0" y="88.0" type="curve" smooth="yes"/>
      <point x="230.0" y="20.0"/>
      <point x="284.0" y="-22.0"/>
    </contour>
  </outline>
</glyph>
<glyph name="A" format="2">
  <advance width="1288.0"/>
  <unicode hex="0041"/>
  <anchor x="636.0" y="0.0" name="bottom"/>
  <anchor x="1097.0" y="20.0" name="ogonek"/>
  <anchor x="654.0" y="1486.0" name="top"/>
  <outline>
    <contour>
      <point x="123.0" y="104.0" type="line"/>
      <point x="-3.0" y="86.0" type="line"/>
      <point x="-3.0" y="0.0" type="line"/>
      <point x="438.0" y="0.0" type="line"/>
      <point x="438.0" y="86.0" type="line"/>
      <point x="264.0" y="106.0" type="line"/>
      <point x="363.0" y="422.0" type="line"/>
      <point x="890.0" y="422.0" type="line"/>
      <point x="984.0" y="104.0" type="line"/>
      <point x="821.0" y="86.0" type="line"/>
      <point x="821.0" y="0.0" type="line"/>
      <point x="1291.0" y="0.0" type="line"/>
      <point x="1291.0" y="86.0" type="line"/>
      <point x="1163.0" y="104.0" type="line"/>
      <point x="745.0" y="1500.0" type="line"/>
      <point x="581.0" y="1500.0" type="line"/>
    </contour>
    <contour>
      <point x="855.0" y="526.0" type="line"/>
      <point x="396.0" y="526.0" type="line"/>
      <point x="587.0" y="1186.0" type="line"/>
      <point x="641.0" y="1362.0" type="line"/>
      <point x="678.0" y="1192.0" type="line"/>
    </contour>
  </outline>
</glyph>
<glyph name="C" format="2">
  <advance width="1166.0"/>
  <unicode hex="0043"/>
  <anchor x="703.0" y="0.0" name="bottom"/>
  <anchor x="773.0" y="1486.0" name="top"/>
  <outline>
    <contour>
      <point x="630.0" y="-22.0" type="curve" smooth="yes"/>
      <point x="865.0" y="-22.0"/>
      <point x="925.0" y="50.0"/>
      <point x="1029.0" y="54.0" type="curve"/>
      <point x="1079.0" y="322.0" type="line"/>
      <point x="981.0" y="336.0" type="line"/>
      <point x="901.0" y="148.0" type="line"/>
      <point x="849.0" y="106.0"/>
      <point x="795.0" y="74.0"/>
      <point x="634.0" y="74.0" type="curve" smooth="yes"/>
      <point x="335.0" y="74.0"/>
      <point x="199.0" y="398.0"/>
      <point x="199.0" y="768.0" type="curve" smooth="yes"/>
      <point x="199.0" y="1178.0"/>
      <point x="427.0" y="1406.0"/>
      <point x="666.0" y="1406.0" type="curve" smooth="yes"/>
      <point x="809.0" y="1406.0"/>
      <point x="863.0" y="1380.0"/>
      <point x="899.0" y="1348.0" type="curve"/>
      <point x="943.0" y="1112.0" type="line"/>
      <point x="1047.0" y="1112.0" type="line"/>
      <point x="1063.0" y="1458.0" type="line"/>
      <point x="966.0" y="1458.0"/>
      <point x="871.0" y="1502.0"/>
      <point x="678.0" y="1502.0" type="curve" smooth="yes"/>
      <point x="309.0" y="1502.0"/>
      <point x="21.0" y="1182.0"/>
      <point x="21.0" y="736.0" type="curve" smooth="yes"/>
      <point x="21.0" y="272.0"/>
      <point x="257.0" y="-22.0"/>
    </contour>
  </outline>
</glyph>
<glyph name="F" format="2">
  <advance width="1046.0"/>
  <unicode hex="0046"/>
  <anchor x="285.0" y="0.0" name="bottom"/>
  <anchor x="528.0" y="1486.0" name="top"/>
  <outline>
    <contour>
      <point x="204.0" y="104.0" type="line"/>
      <point x="58.0" y="86.0" type="line"/>
      <point x="58.0" y="0.0" type="line"/>
      <point x="619.0" y="0.0" type="line"/>
      <point x="619.0" y="86.0" type="line"/>
      <point x="363.0" y="104.0" type="line"/>
      <point x="363.0" y="706.0" type="line"/>
      <point x="659.0" y="698.0" type="line"/>
      <point x="693.0" y="528.0" type="line"/>
      <point x="785.0" y="528.0" type="line"/>
      <point x="785.0" y="970.0" type="line"/>
      <point x="693.0" y="970.0" type="line"/>
      <point x="659.0" y="808.0" type="line"/>
      <point x="363.0" y="802.0" type="line"/>
      <point x="363.0" y="1394.0" type="line"/>
      <point x="822.0" y="1384.0" type="line"/>
      <point x="876.0" y="1158.0" type="line"/>
      <point x="986.0" y="1158.0" type="line"/>
      <point x="966.0" y="1486.0" type="line"/>
      <point x="61.0" y="1486.0" type="line"/>
      <point x="61.0" y="1400.0" type="line"/>
      <point x="204.0" y="1378.0" type="line"/>
    </contour>
  </outline>
</glyph>
<glyph name="G" format="2">
  <advance width="1213.0"/>
  <unicode hex="0047"/>
  <anchor x="727.0" y="0.0" name="bottom"/>
  <anchor x="1009.004" y="349.0" name="rstem"/>
  <anchor x="787.0" y="1486.0" name="top"/>
  <outline>
    <contour>
      <point x="619.0" y="-22.0" type="curve" smooth="yes"/>
      <point x="881.0" y="-22.0"/>
      <point x="984.0" y="76.0"/>
      <point x="1080.0" y="80.0" type="curve"/>
      <point x="1080.0" y="622.0" type="line"/>
      <point x="1192.0" y="642.0" type="line"/>
      <point x="1192.0" y="748.0" type="line"/>
      <point x="673.0" y="748.0" type="line"/>
      <point x="673.0" y="642.0" type="line"/>
      <point x="927.0" y="622.0" type="line"/>
      <point x="927.0" y="166.0" type="line"/>
      <point x="862.0" y="110.0"/>
      <point x="777.0" y="71.0"/>
      <point x="630.0" y="71.0" type="curve" smooth="yes"/>
      <point x="325.0" y="71.0"/>
      <point x="225.0" y="418.0"/>
      <point x="225.0" y="770.0" type="curve" smooth="yes"/>
      <point x="225.0" y="1172.0"/>
      <point x="417.0" y="1406.0"/>
      <point x="677.0" y="1406.0" type="curve" smooth="yes"/>
      <point x="830.0" y="1406.0"/>
      <point x="901.0" y="1362.0"/>
      <point x="928.0" y="1338.0" type="curve"/>
      <point x="968.0" y="1108.0" type="line"/>
      <point x="1070.0" y="1105.0" type="line"/>
      <point x="1085.0" y="1437.0" type="line"/>
      <point x="1023.0" y="1453.0"/>
      <point x="863.0" y="1502.0"/>
      <point x="694.0" y="1502.0" type="curve" smooth="yes"/>
      <point x="315.0" y="1502.0"/>
      <point x="43.0" y="1220.0"/>
      <point x="43.0" y="718.0" type="curve" smooth="yes"/>
      <point x="43.0" y="296.0"/>
      <point x="255.0" y="-22.0"/>
    </contour>
  </outline>
</glyph>
<glyph name="H" format="2">
  <advance width="1350.0"/>
  <unicode hex="0048"/>
  <anchor x="676.0" y="0.0" name="bottom"/>
  <anchor x="1295.0" y="0.0" name="bottomright"/>
  <anchor x="675.0" y="743.0" name="center"/>
  <anchor x="673.0" y="1486.0" name="top"/>
  <anchor x="-11.0" y="1486.0" name="topleft"/>
  <outline>
    <contour>
      <point x="198.0" y="103.0" type="line"/>
      <point x="58.0" y="85.0" type="line"/>
      <point x="58.0" y="0.0" type="line"/>
      <point x="511.0" y="0.0" type="line"/>
      <point x="511.0" y="85.0" type="line"/>
      <point x="359.0" y="103.0" type="line"/>
      <point x="359.0" y="711.0" type="line"/>
      <point x="991.0" y="711.0" type="line"/>
      <point x="991.0" y="103.0" type="line"/>
      <point x="844.0" y="85.0" type="line"/>
      <point x="844.0" y="0.0" type="line"/>
      <point x="1292.0" y="0.0" type="line"/>
      <point x="1292.0" y="85.0" type="line"/>
      <point x="1152.0" y="103.0" type="line"/>
      <point x="1152.0" y="1378.0" type="line"/>
      <point x="1286.0" y="1401.0" type="line"/>
      <point x="1286.0" y="1486.0" type="line"/>
      <point x="846.0" y="1486.0" type="line"/>
      <point x="846.0" y="1401.0" type="line"/>
      <point x="991.0" y="1378.0" type="line"/>
      <point x="991.0" y="815.0" type="line"/>
      <point x="359.0" y="815.0" type="line"/>
      <point x="359.0" y="1378.0" type="line"/>
      <point x="509.0" y="1401.0" type="line"/>
      <point x="509.0" y="1486.0" type="line"/>
      <point x="60.0" y="1486.0" type="line"/>
      <point x="60.0" y="1401.0" type="line"/>
      <point x="198.0" y="1378.0" type="line"/>
    </contour>
  </outline>
</glyph>
<glyph name="I" format="2">
  <advance width="617.0"/>
  <unicode hex="0049"/>
  <anchor x="309.0" y="5.0" name="bottom"/>
  <anchor x="312.0" y="20.0" name="ogonek"/>
  <anchor x="309.0" y="1486.0" name="top"/>
  <anchor x="-1.0" y="1486.0" name="topleft"/>
  <outline>
    <contour>
      <point x="228.0" y="103.0" type="line"/>
      <point x="64.0" y="85.0" type="line"/>
      <point x="64.0" y="0.0" type="line"/>
      <point x="553.0" y="0.0" type="line"/>
      <point x="553.0" y="83.0" type="line"/>
      <point x="389.0" y="103.0" type="line"/>
      <point x="389.0" y="1380.0" type="line"/>
      <point x="553.0" y="1401.0" type="line"/>
      <point x="553.0" y="1486.0" type="line"/>
      <point x="64.0" y="1486.0" type="line"/>
      <point x="64.0" y="1401.0" type="line"/>
      <point x="228.0" y="1380.0" type="line"/>
    </contour>
  </outline>
</glyph>
<glyph name="L" format="2">
  <advance width="1046"/>
  <unicode hex="004C"/>
  <anchor x="544" y="0" name="bottom"/>
  <anchor x="584" y="744" name="center"/>
  <anchor x="314" y="1486" name="top"/>
  <anchor x="840" y="1110" name="topright"/>
  <outline>
    <contour>
      <point x="230" y="104" type="line"/>
      <point x="58" y="86" type="line"/>
      <point x="58" y="0" type="line"/>
      <point x="968" y="0" type="line"/>
      <point x="1032" y="416" type="line"/>
      <point x="936" y="432" type="line"/>
      <point x="834" y="120" type="line"/>
      <point x="394" y="104" type="line"/>
      <point x="394" y="1378" type="line"/>
      <point x="594" y="1400" type="line"/>
      <point x="594" y="1486" type="line"/>
      <point x="62" y="1486" type="line"/>
      <point x="62" y="1400" type="line"/>
      <point x="230" y="1378" type="line"/>
    </contour>
  </outline>
</glyph>
<glyph name="M" format="2">
  <advance width="1780.0"/>
  <unicode hex="004D"/>
  <anchor x="908.0" y="0.0" name="bottom"/>
  <anchor x="1772.0" y="0.0" name="bottomright"/>
  <anchor x="898.0" y="1486.0" name="top"/>
  <outline>
    <contour>
      <point x="183.0" y="104.0" type="line"/>
      <point x="16.0" y="86.0" type="line"/>
      <point x="16.0" y="0.0" type="line"/>
      <point x="506.0" y="0.0" type="line"/>
      <point x="506.0" y="86.0" type="line"/>
      <point x="314.0" y="104.0" type="line"/>
      <point x="413.0" y="1016.0" type="line"/>
      <point x="455.0" y="1416.0" type="line"/>
      <point x="566.0" y="1028.0" type="line"/>
      <point x="829.0" y="72.0" type="line"/>
      <point x="916.0" y="72.0" type="line"/>
      <point x="1227.0" y="1140.0" type="line"/>
      <point x="1300.0" y="1416.0" type="line"/>
      <point x="1340.0" y="1016.0" type="line"/>
      <point x="1418.0" y="104.0" type="line"/>
      <point x="1237.0" y="86.0" type="line"/>
      <point x="1237.0" y="0.0" type="line"/>
      <point x="1764.0" y="0.0" type="line"/>
      <point x="1764.0" y="86.0" type="line"/>
      <point x="1586.0" y="106.0" type="line"/>
      <point x="1445.0" y="1378.0" type="line"/>
      <point x="1666.0" y="1400.0" type="line"/>
      <point x="1666.0" y="1486.0" type="line"/>
      <point x="1202.0" y="1486.0" type="line"/>
      <point x="959.0" y="582.0" type="line"/>
      <point x="897.0" y="318.0" type="line"/>
      <point x="841.0" y="562.0" type="line"/>
      <point x="597.0" y="1486.0" type="line"/>
      <point x="110.0" y="1486.0" type="line"/>
      <point x="110.0" y="1400.0" type="line"/>
      <point x="345.0" y="1378.0" type="line"/>
    </contour>
  </outline>
</glyph>
<glyph name="N" format="2">
  <advance width="1382.0"/>
  <unicode hex="004E"/>
  <anchor x="713.0" y="0.0" name="bottom"/>
  <anchor x="713.0" y="1486.0" name="top"/>
  <outline>
    <contour>
      <point x="234.0" y="105.0" type="line"/>
      <point x="97.0" y="85.0" type="line"/>
      <point x="97.0" y="0.0" type="line"/>
      <point x="501.0" y="0.0" type="line"/>
      <point x="501.0" y="85.0" type="line"/>
      <point x="342.0" y="103.0" type="line"/>
      <point x="342.0" y="1304.0" type="line"/>
      <point x="479.0" y="1038.0" type="line"/>
      <point x="1072.0" y="0.0" type="line"/>
      <point x="1191.0" y="0.0" type="line"/>
      <point x="1191.0" y="1380.0" type="line"/>
      <point x="1330.0" y="1401.0" type="line"/>
      <point x="1330.0" y="1486.0" type="line"/>
      <point x="933.0" y="1486.0" type="line"/>
      <point x="933.0" y="1401.0" type="line"/>
      <point x="1083.0" y="1380.0" type="line"/>
      <point x="1083.0" y="247.0" type="line"/>
      <point x="985.0" y="446.0" type="line"/>
      <point x="397.0" y="1486.0" type="line"/>
      <point x="97.0" y="1486.0" type="line"/>
      <point x="97.0" y="1401.0" type="line"/>
      <point x="142.0" y="1395.0"/>
      <point x="189.0" y="1387.0"/>
      <point x="234.0" y="1380.0" type="curve"/>
    </contour>
  </outline>
</glyph>
<glyph name="O" format="2">
  <advance width="1202.0"/>
  <unicode hex="004F"/>
  <anchor x="601.0" y="-21.0" name="bottom"/>
  <anchor x="604.0" y="741.0" name="center"/>
  <anchor x="671.0" y="20.0" name="ogonek"/>
  <anchor x="725.772" y="0.0" name="qq"/>
  <anchor x="602.0" y="1486.0" name="top"/>
  <anchor x="15.0" y="1486.0" name="topleft"/>
  <anchor x="909.0" y="1486.0" name="topright"/>
  <outline>
    <contour>
      <point x="589.0" y="-22.0" type="curve" smooth="yes"/>
      <point x="913.0" y="-15.0"/>
      <point x="1160.0" y="287.0"/>
      <point x="1160.0" y="756.0" type="curve" smooth="yes"/>
      <point x="1160.0" y="1206.0"/>
      <point x="971.0" y="1502.0"/>
      <point x="617.0" y="1502.0" type="curve" smooth="yes"/>
      <point x="293.0" y="1502.0"/>
      <point x="42.0" y="1204.0"/>
      <point x="42.0" y="732.0" type="curve" smooth="yes"/>
      <point x="42.0" y="284.0"/>
      <point x="231.0" y="-29.0"/>
    </contour>
    <contour>
      <point x="602.0" y="1409.0" type="curve" smooth="yes"/>
      <point x="844.0" y="1409.0"/>
      <point x="979.0" y="1138.0"/>
      <point x="979.0" y="756.0" type="curve" smooth="yes"/>
      <point x="979.0" y="302.0"/>
      <point x="826.0" y="71.0"/>
      <point x="598.0" y="71.0" type="curve" smooth="yes"/>
      <point x="356.0" y="71.0"/>
      <point x="223.0" y="351.0"/>
      <point x="223.0" y="732.0" type="curve" smooth="yes"/>
      <point x="223.0" y="1186.0"/>
      <point x="374.0" y="1409.0"/>
    </contour>
  </outline>
</glyph>
<glyph name="S" format="2">
  <advance width="1066.0"/>
  <unicode hex="0053"/>
  <anchor x="531.0" y="0.0" name="bottom"/>
  <anchor x="580.0" y="1486.0" name="top"/>
  <outline>
    <contour>
      <point x="529.0" y="-14.0" type="curve" smooth="yes"/>
      <point x="868.0" y="-14.0"/>
      <point x="1020.0" y="197.0"/>
      <point x="1020.0" y="401.0" type="curve" smooth="yes"/>
      <point x="1020.0" y="639.0"/>
      <point x="791.0" y="727.0"/>
      <point x="611.0" y="819.0" type="curve" smooth="yes"/>
      <point x="441.0" y="906.0"/>
      <point x="262.0" y="983.0"/>
      <point x="262.0" y="1153.0" type="curve" smooth="yes"/>
      <point x="262.0" y="1313.0"/>
      <point x="378.0" y="1401.0"/>
      <point x="569.0" y="1401.0" type="curve" smooth="yes"/>
      <point x="674.0" y="1401.0"/>
      <point x="774.0" y="1368.0"/>
      <point x="800.0" y="1344.0" type="curve"/>
      <point x="833.0" y="1098.0" type="line"/>
      <point x="926.0" y="1098.0" type="line"/>
      <point x="937.0" y="1423.0" type="line"/>
      <point x="883.0" y="1433.0"/>
      <point x="742.0" y="1494.0"/>
      <point x="578.0" y="1494.0" type="curve" smooth="yes"/>
      <point x="284.0" y="1494.0"/>
      <point x="123.0" y="1344.0"/>
      <point x="123.0" y="1122.0" type="curve" smooth="yes"/>
      <point x="123.0" y="867.0"/>
      <point x="380.0" y="771.0"/>
      <point x="532.0" y="699.0" type="curve" smooth="yes"/>
      <point x="694.0" y="622.0"/>
      <point x="873.0" y="535.0"/>
      <point x="873.0" y="361.0" type="curve" smooth="yes"/>
      <point x="873.0" y="193.0"/>
      <point x="748.0" y="83.0"/>
      <point x="538.0" y="83.0" type="curve" smooth="yes"/>
      <point x="411.0" y="83.0"/>
      <point x="282.0" y="126.0"/>
      <point x="240.0" y="170.0" type="curve"/>
      <point x="212.0" y="429.0" type="line"/>
      <point x="116.0" y="429.0" type="line"/>
      <point x="101.0" y="77.0" type="line"/>
      <point x="158.0" y="71.0"/>
      <point x="320.0" y="-14.0"/>
    </contour>
  </outline>
</glyph>
<glyph name="T" format="2">
  <advance width="1195.0"/>
  <unicode hex="0054"/>
  <anchor x="614.0" y="0.0" name="bottom"/>
  <anchor x="963.0" y="0.0" name="bottomright"/>
  <anchor x="599.0" y="684.0" name="center"/>
  <anchor x="599.0" y="1486.0" name="top"/>
  <outline>
    <contour>
      <point x="516.0" y="104.0" type="line"/>
      <point x="240.0" y="86.0" type="line"/>
      <point x="240.0" y="0.0" type="line"/>
      <point x="961.0" y="0.0" type="line"/>
      <point x="961.0" y="86.0" type="line"/>
      <point x="679.0" y="104.0" type="line"/>
      <point x="679.0" y="1396.0" type="line"/>
      <point x="991.0" y="1384.0" type="line"/>
      <point x="1055.0" y="978.0" type="line"/>
      <point x="1165.0" y="978.0" type="line"/>
      <point x="1131.0" y="1486.0" type="line"/>
      <point x="64.0" y="1486.0" type="line"/>
      <point x="30.0" y="978.0" type="line"/>
      <point x="140.0" y="978.0" type="line"/>
      <point x="204.0" y="1384.0" type="line"/>
      <point x="516.0" y="1396.0" type="line"/>
    </contour>
  </outline>
</glyph>
<glyph name="U" format="2">
  <advance width="1297.0"/>
  <unicode hex="0055"/>
  <anchor x="684.0" y="0.0" name="bottom"/>
  <anchor x="748.0" y="20.0" name="ogonek"/>
  <anchor x="659.0" y="1486.0" name="top"/>
  <anchor x="1153.0" y="1486.0" name="topright"/>
  <outline>
    <contour>
      <point x="668.0" y="-16.0" type="curve" smooth="yes"/>
      <point x="941.0" y="-16.0"/>
      <point x="1136.0" y="166.0"/>
      <point x="1136.0" y="590.0" type="curve" smooth="yes"/>
      <point x="1136.0" y="1378.0" type="line"/>
      <point x="1272.0" y="1400.0" type="line"/>
      <point x="1272.0" y="1486.0" type="line"/>
      <point x="874.0" y="1486.0" type="line"/>
      <point x="874.0" y="1400.0" type="line"/>
      <point x="1023.0" y="1376.0" type="line"/>
      <point x="1023.0" y="582.0" type="line" smooth="yes"/>
      <point x="1023.0" y="252.0"/>
      <point x="905.0" y="82.0"/>
      <point x="676.0" y="82.0" type="curve" smooth="yes"/>
      <point x="466.0" y="82.0"/>
      <point x="342.0" y="194.0"/>
      <point x="342.0" y="598.0" type="curve" smooth="yes"/>
      <point x="342.0" y="1378.0" type="line"/>
      <point x="493.0" y="1400.0" type="line"/>
      <point x="493.0" y="1486.0" type="line"/>
      <point x="44.0" y="1486.0" type="line"/>
      <point x="44.0" y="1400.0" type="line"/>
      <point x="181.0" y="1378.0" type="line"/>
      <point x="181.0" y="616.0" type="line" smooth="yes"/>
      <point x="181.0" y="184.0"/>
      <point x="323.0" y="-16.0"/>
    </contour>
  </outline>
</glyph>
<glyph name="W" format="2">
  <advance width="1824.0"/>
  <unicode hex="0057"/>
  <anchor x="910.0" y="0.0" name="bottom"/>
  <anchor x="912.0" y="1486.0" name="top"/>
  <outline>
    <contour>
      <point x="-40.0" y="1400.0" type="line"/>
      <point x="90.0" y="1376.0" type="line"/>
      <point x="473.0" y="-10.0" type="line"/>
      <point x="618.0" y="-10.0" type="line"/>
      <point x="914.0" y="1036.0" type="line"/>
      <point x="1208.0" y="-10.0" type="line"/>
      <point x="1358.0" y="-10.0" type="line"/>
      <point x="1739.0" y="1378.0" type="line"/>
      <point x="1864.0" y="1400.0" type="line"/>
      <point x="1864.0" y="1486.0" type="line"/>
      <point x="1423.0" y="1486.0" type="line"/>
      <point x="1423.0" y="1400.0" type="line"/>
      <point x="1618.0" y="1378.0" type="line"/>
      <point x="1371.0" y="428.0" type="line"/>
      <point x="1310.0" y="88.0" type="line"/>
      <point x="1237.0" y="428.0" type="line"/>
      <point x="975.0" y="1378.0" type="line"/>
      <point x="1159.0" y="1400.0" type="line"/>
      <point x="1159.0" y="1486.0" type="line"/>
      <point x="675.0" y="1486.0" type="line"/>
      <point x="675.0" y="1400.0" type="line"/>
      <point x="813.0" y="1378.0" type="line"/>
      <point x="863.0" y="1210.0" type="line"/>
      <point x="640.0" y="428.0" type="line"/>
      <point x="568.0" y="112.0" type="line"/>
      <point x="506.0" y="428.0" type="line"/>
      <point x="246.0" y="1378.0" type="line"/>
      <point x="429.0" y="1400.0" type="line"/>
      <point x="429.0" y="1486.0" type="line"/>
      <point x="-40.0" y="1486.0" type="line"/>
    </contour>
  </outline>
</glyph>
<glyph name="X" format="2">
  <advance width="1254"/>
  <unicode hex="0058"/>
  <anchor x="1240" y="0" name="bottomright"/>
  <outline>
    <contour>
      <point x="148" y="104" type="line"/>
      <point x="14" y="86" type="line"/>
      <point x="14" y="0" type="line"/>
      <point x="470" y="0" type="line"/>
      <point x="470" y="86" type="line"/>
      <point x="284" y="104" type="line"/>
      <point x="598" y="688" type="line"/>
      <point x="928" y="104" type="line"/>
      <point x="752" y="86" type="line"/>
      <point x="752" y="0" type="line"/>
      <point x="1240" y="0" type="line"/>
      <point x="1240" y="86" type="line"/>
      <point x="1110" y="104" type="line"/>
      <point x="711" y="772" type="line"/>
      <point x="1094" y="1378" type="line"/>
      <point x="1212" y="1400" type="line"/>
      <point x="1212" y="1486" type="line"/>
      <point x="804" y="1486" type="line"/>
      <point x="804" y="1400" type="line"/>
      <point x="964" y="1378" type="line"/>
      <point x="662" y="838" type="line"/>
      <point x="356" y="1378" type="line"/>
      <point x="540" y="1400" type="line"/>
      <point x="540" y="1486" type="line"/>
      <point x="50" y="1486" type="line"/>
      <point x="50" y="1400" type="line"/>
      <point x="174" y="1378" type="line"/>
      <point x="546" y="752" type="line"/>
    </contour>
  </outline>
</glyph>
<glyph name="Y" format="2">
  <advance width="1181"/>
  <unicode hex="0059"/>
  <anchor x="588" y="0" name="bottom"/>
  <anchor x="592.345" y="547" name="center"/>
  <anchor x="598" y="1486" name="top"/>
  <anchor x="-12" y="1486" name="topleft"/>
  <outline>
    <contour>
      <point x="510" y="104" type="line"/>
      <point x="284" y="86" type="line"/>
      <point x="284" y="0" type="line"/>
      <point x="895" y="0" type="line"/>
      <point x="895" y="86" type="line"/>
      <point x="671" y="106" type="line"/>
      <point x="671" y="574" type="line"/>
      <point x="1059" y="1378" type="line"/>
      <point x="1176" y="1400" type="line"/>
      <point x="1176" y="1486" type="line"/>
      <point x="757" y="1486" type="line"/>
      <point x="757" y="1400" type="line"/>
      <point x="925" y="1378" type="line"/>
      <point x="679" y="812" type="line"/>
      <point x="608" y="652" type="line"/>
      <point x="536" y="812" type="line"/>
      <point x="295" y="1378" type="line"/>
      <point x="463" y="1400" type="line"/>
      <point x="463" y="1486" type="line"/>
      <point x="5" y="1486" type="line"/>
      <point x="5" y="1400" type="line"/>
      <point x="109" y="1378" type="line"/>
      <point x="510" y="572" type="line"/>
    </contour>
  </outline>
</glyph>
<glyph name="Z" format="2">
  <advance width="1188.0"/>
  <unicode hex="005A"/>
  <anchor x="594.0" y="0.0" name="bottom"/>
  <anchor x="600.0" y="1486.0" name="top"/>
  <outline>
    <contour>
      <point x="797.0" y="1250.0" type="line"/>
      <point x="64.0" y="78.0" type="line"/>
      <point x="108.0" y="0.0" type="line"/>
      <point x="1058.0" y="0.0" type="line"/>
      <point x="1102.0" y="422.0" type="line"/>
      <point x="1014.0" y="444.0" type="line"/>
      <point x="923.0" y="128.0" type="line"/>
      <point x="239.0" y="94.0" type="line"/>
      <point x="358.0" y="254.0" type="line"/>
      <point x="1082.0" y="1418.0" type="line"/>
      <point x="1041.0" y="1492.0" type="line"/>
      <point x="181.0" y="1492.0" type="line"/>
      <point x="143.0" y="1130.0" type="line"/>
      <point x="227.0" y="1120.0" type="line"/>
      <point x="316.0" y="1380.0" type="line"/>
      <point x="901.0" y="1400.0" type="line"/>
    </contour>
  </outline>
</glyph>
<glyph name="backslash" format="2">
  <advance width="862"/>
  <unicode hex="005C"/>
  <outline>
    <contour>
      <point x="780" y="-354" type="line"/>
      <point x="220" y="1562" type="line"/>
      <point x="70" y="1562" type="line"/>
      <point x="630" y="-354" type="line"/>
    </contour>
  </outline>
</glyph>
<glyph name="bracketright" format="2">
  <advance width="852.0"/>
  <unicode hex="005D"/>
  <outline>
    <contour>
      <point x="654.0" y="1422.0" type="line"/>
      <point x="654.0" y="1580.0"/>
      <point x="614.0" y="1608.0"/>
      <point x="490.0" y="1608.0" type="curve" smooth="yes"/>
      <point x="378.0" y="1608.0"/>
      <point x="302.0" y="1590.0"/>
      <point x="224.0" y="1574.0" type="curve"/>
      <point x="224.0" y="1500.0" type="line"/>
      <point x="510.0" y="1500.0" type="line"/>
      <point x="510.0" y="-164.0" type="line"/>
      <point x="224.0" y="-164.0" type="line"/>
      <point x="224.0" y="-238.0" type="line"/>
      <point x="308.0" y="-258.0"/>
      <point x="384.0" y="-274.0"/>
      <point x="490.0" y="-274.0" type="curve" smooth="yes"/>
      <point x="614.0" y="-274.0"/>
      <point x="654.0" y="-246.0"/>
      <point x="654.0" y="-88.0" type="curve" smooth="yes"/>
    </contour>
  </outline>
</glyph>
<glyph name="asciicircum" format="2">
  <advance width="1161.0"/>
  <unicode hex="005E"/>
  <outline>
    <contour>
      <point x="654.0" y="1496.0" type="line"/>
      <point x="504.0" y="1496.0" type="line"/>
      <point x="154.0" y="266.0" type="line"/>
      <point x="281.0" y="266.0" type="line"/>
      <point x="579.0" y="1284.0" type="line"/>
      <point x="877.0" y="266.0" type="line"/>
      <point x="1006.0" y="266.0" type="line"/>
    </contour>
  </outline>
</glyph>
<glyph name="a" format="2">
  <advance width="915.0"/>
  <unicode hex="0061"/>
  <anchor x="434.0" y="5.0" name="bottom"/>
  <anchor x="718.0" y="20.0" name="ogonek"/>
  <anchor x="423.0" y="1110.0" name="top"/>
  <outline>
    <contour>
      <point x="39.0" y="291.0" type="curve" smooth="yes"/>
      <point x="39.0" y="74.0"/>
      <point x="173.0" y="-22.0"/>
      <point x="327.0" y="-22.0" type="curve" smooth="yes"/>
      <point x="471.0" y="-22.0"/>
      <point x="582.0" y="97.0"/>
      <point x="625.0" y="140.0" type="curve"/>
      <point x="625.0" y="68.0" type="line" smooth="yes"/>
      <point x="625.0" y="-2.0"/>
      <point x="665.0" y="-18.0"/>
      <point x="702.0" y="-18.0" type="curve" smooth="yes"/>
      <point x="755.0" y="-18.0"/>
      <point x="832.0" y="0.0"/>
      <point x="870.0" y="12.0" type="curve"/>
      <point x="870.0" y="85.0" type="line"/>
      <point x="766.0" y="85.0" type="line"/>
      <point x="766.0" y="747.0" type="line" smooth="yes"/>
      <point x="766.0" y="986.0"/>
      <point x="714.0" y="1132.0"/>
      <point x="450.0" y="1132.0" type="curve" smooth="yes"/>
      <point x="280.0" y="1132.0"/>
      <point x="110.0" y="1020.0"/>
      <point x="77.0" y="986.0" type="curve"/>
      <point x="118.0" y="900.0" type="line"/>
      <point x="173.0" y="936.0"/>
      <point x="278.0" y="1006.0"/>
      <point x="411.0" y="1006.0" type="curve" smooth="yes"/>
      <point x="583.0" y="1006.0"/>
      <point x="613.0" y="910.0"/>
      <point x="613.0" y="730.0" type="curve" smooth="yes"/>
      <point x="613.0" y="665.0" type="line"/>
      <point x="320.0" y="659.0"/>
      <point x="39.0" y="570.0"/>
    </contour>
    <contour>
      <point x="388.0" y="94.0" type="curve" smooth="yes"/>
      <point x="287.0" y="94.0"/>
      <point x="209.0" y="150.0"/>
      <point x="209.0" y="311.0" type="curve" smooth="yes"/>
      <point x="209.0" y="462.0"/>
      <point x="335.0" y="570.0"/>
      <point x="613.0" y="573.0" type="curve"/>
      <point x="613.0" y="218.0" type="line"/>
      <point x="548.0" y="155.0"/>
      <point x="454.0" y="94.0"/>
    </contour>
  </outline>
</glyph>
<glyph name="b" format="2">
  <advance width="1008"/>
  <unicode hex="0062"/>
  <anchor x="447" y="0" name="bottom"/>
  <anchor x="612" y="1110" name="top"/>
  <outline>
    <contour>
      <point x="-25" y="1531" type="line"/>
      <point x="120" y="1514" type="line"/>
      <point x="120" y="54" type="line"/>
      <point x="142" y="31"/>
      <point x="298" y="-22"/>
      <point x="447" y="-22" type="curve" smooth="yes"/>
      <point x="756" y="-22"/>
      <point x="940" y="253"/>
      <point x="941" y="621" type="curve" smooth="yes"/>
      <point x="942" y="966"/>
      <point x="767" y="1140"/>
      <point x="566" y="1140" type="curve" smooth="yes"/>
      <point x="382" y="1140"/>
      <point x="309" y="1046"/>
      <point x="276" y="997" type="curve"/>
      <point x="276" y="1610" type="line"/>
      <point x="240" y="1638" type="line"/>
      <point x="237" y="1638" type="line"/>
      <point x="-25" y="1604" type="line"/>
    </contour>
    <contour>
      <point x="526" y="1018" type="curve" smooth="yes"/>
      <point x="652" y="1018"/>
      <point x="769" y="897"/>
      <point x="771" y="598" type="curve" smooth="yes"/>
      <point x="773" y="232"/>
      <point x="638" y="80"/>
      <point x="460" y="78" type="curve" smooth="yes"/>
      <point x="379" y="77"/>
      <point x="294" y="105"/>
      <point x="276" y="141" type="curve"/>
      <point x="276" y="876" type="line"/>
      <point x="313" y="944"/>
      <point x="389" y="1018"/>
    </contour>
  </outline>
</glyph>
<glyph name="c" format="2">
  <advance width="859.0"/>
  <unicode hex="0063"/>
  <anchor x="441.0" y="0.0" name="bottom"/>
  <anchor x="488.0" y="1110.0" name="top"/>
  <outline>
    <contour>
      <point x="54.0" y="542.0" type="curve" smooth="yes"/>
      <point x="56.0" y="226.0"/>
      <point x="200.0" y="-22.0"/>
      <point x="483.0" y="-22.0" type="curve" smooth="yes"/>
      <point x="604.0" y="-22.0"/>
      <point x="735.0" y="42.0"/>
      <point x="799.0" y="120.0" type="curve"/>
      <point x="769.0" y="184.0" type="line"/>
      <point x="717.0" y="142.0"/>
      <point x="624.0" y="92.0"/>
      <point x="518.0" y="92.0" type="curve" smooth="yes"/>
      <point x="330.0" y="92.0"/>
      <point x="218.0" y="287.0"/>
      <point x="220.0" y="604.0" type="curve" smooth="yes"/>
      <point x="221.0" y="870.0"/>
      <point x="329.0" y="1047.0"/>
      <point x="500.0" y="1047.0" type="curve" smooth="yes"/>
      <point x="563.0" y="1047.0"/>
      <point x="631.0" y="1035.0"/>
      <point x="640.0" y="987.0" type="curve" smooth="yes"/>
      <point x="677.0" y="796.0" type="line"/>
      <point x="774.0" y="796.0" type="line"/>
      <point x="781.0" y="1080.0" type="line"/>
      <point x="735.0" y="1102.0"/>
      <point x="642.0" y="1140.0"/>
      <point x="534.0" y="1140.0" type="curve" smooth="yes"/>
      <point x="212.0" y="1140.0"/>
      <point x="52.0" y="853.0"/>
    </contour>
  </outline>
</glyph>
<glyph name="f" format="2">
  <advance width="693.0"/>
  <unicode hex="0066"/>
  <anchor x="477.0" y="1483.0" name="top"/>
  <outline>
    <contour>
      <point x="227.0" y="101.0" type="line"/>
      <point x="78.0" y="85.0" type="line"/>
      <point x="78.0" y="0.0" type="line"/>
      <point x="577.0" y="0.0" type="line"/>
      <point x="577.0" y="85.0" type="line"/>
      <point x="383.0" y="99.0" type="line"/>
      <point x="383.0" y="991.0" type="line"/>
      <point x="628.0" y="991.0" type="line"/>
      <point x="628.0" y="1110.0" type="line"/>
      <point x="383.0" y="1110.0" type="line"/>
      <point x="383.0" y="1261.0" type="line" smooth="yes"/>
      <point x="383.0" y="1425.0"/>
      <point x="421.0" y="1510.0"/>
      <point x="551.0" y="1510.0" type="curve" smooth="yes"/>
      <point x="629.0" y="1510.0"/>
      <point x="687.0" y="1488.0"/>
      <point x="705.0" y="1474.0" type="curve"/>
      <point x="705.0" y="1635.0" type="line"/>
      <point x="686.0" y="1643.0"/>
      <point x="662.0" y="1651.0"/>
      <point x="607.0" y="1651.0" type="curve" smooth="yes"/>
      <point x="414.0" y="1651.0"/>
      <point x="227.0" y="1455.0"/>
      <point x="227.0" y="1210.0" type="curve" smooth="yes"/>
      <point x="227.0" y="1108.0" type="line"/>
      <point x="58.0" y="1070.0" type="line"/>
      <point x="58.0" y="991.0" type="line"/>
      <point x="227.0" y="991.0" type="line"/>
    </contour>
  </outline>
</glyph>
<glyph name="g" format="2">
  <advance width="1070"/>
  <unicode hex="0067"/>
  <anchor x="530" y="0" name="bottom"/>
  <anchor x="548" y="1110" name="top"/>
  <outline>
    <contour>
      <point x="507" y="-540" type="curve"/>
      <point x="794" y="-540"/>
      <point x="1032" y="-352"/>
      <point x="1032" y="-134" type="curve" smooth="yes"/>
      <point x="1032" y="32"/>
      <point x="928" y="140"/>
      <point x="713" y="140" type="curve" smooth="yes"/>
      <point x="487" y="140" type="line" smooth="yes"/>
      <point x="339" y="140"/>
      <point x="292" y="172"/>
      <point x="292" y="276" type="curve" smooth="yes"/>
      <point x="292" y="326"/>
      <point x="322" y="378"/>
      <point x="366" y="416" type="curve"/>
      <point x="408" y="404"/>
      <point x="448" y="398"/>
      <point x="498" y="398" type="curve" smooth="yes"/>
      <point x="721" y="398"/>
      <point x="917" y="556"/>
      <point x="917" y="798" type="curve" smooth="yes"/>
      <point x="917" y="876"/>
      <point x="887" y="942"/>
      <point x="854" y="992" type="curve"/>
      <point x="1043" y="992" type="line"/>
      <point x="1043" y="1140" type="line"/>
      <point x="987" y="1140" type="line" smooth="yes"/>
      <point x="904" y="1140"/>
      <point x="819" y="1084"/>
      <point x="793" y="1058" type="curve"/>
      <point x="723" y="1114"/>
      <point x="631" y="1140"/>
      <point x="518" y="1140" type="curve" smooth="yes"/>
      <point x="316" y="1140"/>
      <point x="110" y="1002"/>
      <point x="110" y="758" type="curve" smooth="yes"/>
      <point x="110" y="610"/>
      <point x="186" y="502"/>
      <point x="298" y="444" type="curve"/>
      <point x="221" y="400"/>
      <point x="148" y="308"/>
      <point x="148" y="206" type="curve" smooth="yes"/>
      <point x="148" y="126"/>
      <point x="189" y="72"/>
      <point x="244" y="40" type="curve"/>
      <point x="163" y="-8"/>
      <point x="60" y="-104"/>
      <point x="60" y="-234" type="curve" smooth="yes"/>
      <point x="60" y="-410"/>
      <point x="187" y="-540"/>
    </contour>
    <contour>
      <point x="517" y="-438" type="curve"/>
      <point x="290" y="-438"/>
      <point x="231" y="-352"/>
      <point x="231" y="-208" type="curve" smooth="yes"/>
      <point x="231" y="-114"/>
      <point x="263" y="-40"/>
      <point x="312" y="12" type="curve"/>
      <point x="351" y="2"/>
      <point x="397" y="0"/>
      <point x="447" y="0" type="curve" smooth="yes"/>
      <point x="660" y="0" type="line" smooth="yes"/>
      <point x="836" y="0"/>
      <point x="874" y="-68"/>
      <point x="874" y="-180" type="curve" smooth="yes"/>
      <point x="874" y="-342"/>
      <point x="697" y="-438"/>
    </contour>
    <contour>
      <point x="516" y="496" type="curve" smooth="yes"/>
      <point x="348" y="496"/>
      <point x="276" y="622"/>
      <point x="276" y="780" type="curve" smooth="yes"/>
      <point x="276" y="972"/>
      <point x="383" y="1042"/>
      <point x="507" y="1042" type="curve" smooth="yes"/>
      <point x="651" y="1042"/>
      <point x="751" y="962"/>
      <point x="751" y="776" type="curve" smooth="yes"/>
      <point x="751" y="594"/>
      <point x="666" y="496"/>
    </contour>
  </outline>
</glyph>
<glyph name="h" format="2">
  <advance width="1120.0"/>
  <unicode hex="0068"/>
  <anchor x="586.0" y="0.0" name="bottom"/>
  <anchor x="561.0" y="576.0" name="center"/>
  <anchor x="224.0" y="1602.0" name="top"/>
  <outline>
    <contour>
      <point x="184.0" y="99.0" type="line"/>
      <point x="71.0" y="85.0" type="line"/>
      <point x="71.0" y="0.0" type="line"/>
      <point x="463.0" y="0.0" type="line"/>
      <point x="463.0" y="85.0" type="line"/>
      <point x="341.0" y="101.0" type="line"/>
      <point x="341.0" y="879.0" type="line"/>
      <point x="406.0" y="942.0"/>
      <point x="519.0" y="1014.0"/>
      <point x="614.0" y="1014.0" type="curve" smooth="yes"/>
      <point x="794.0" y="1014.0"/>
      <point x="801.0" y="857.0"/>
      <point x="801.0" y="667.0" type="curve" smooth="yes"/>
      <point x="801.0" y="99.0" type="line"/>
      <point x="690.0" y="85.0" type="line"/>
      <point x="690.0" y="0.0" type="line"/>
      <point x="1084.0" y="0.0" type="line"/>
      <point x="1084.0" y="85.0" type="line"/>
      <point x="959.0" y="99.0" type="line"/>
      <point x="959.0" y="665.0" type="line" smooth="yes"/>
      <point x="959.0" y="930.0"/>
      <point x="932.0" y="1136.0"/>
      <point x="674.0" y="1136.0" type="curve" smooth="yes"/>
      <point x="552.0" y="1136.0"/>
      <point x="397.0" y="1039.0"/>
      <point x="335.0" y="972.0" type="curve"/>
      <point x="339.0" y="1135.0" type="line"/>
      <point x="339.0" y="1612.0" type="line"/>
      <point x="304.0" y="1638.0" type="line"/>
      <point x="301.0" y="1638.0" type="line"/>
      <point x="35.0" y="1604.0" type="line"/>
      <point x="35.0" y="1532.0" type="line"/>
      <point x="184.0" y="1514.0" type="line"/>
    </contour>
  </outline>
</glyph>
<glyph name="i" format="2">
  <advance width="513.0"/>
  <unicode hex="0069"/>
  <anchor x="312.0" y="0.0" name="bottom"/>
  <anchor x="322.0" y="20.0" name="ogonek"/>
  <anchor x="256.0" y="1422.0" name="top"/>
  <outline>
    <contour>
      <point x="184.0" y="101.0" type="line"/>
      <point x="71.0" y="85.0" type="line"/>
      <point x="71.0" y="0.0" type="line"/>
      <point x="463.0" y="0.0" type="line"/>
      <point x="463.0" y="85.0" type="line"/>
      <point x="341.0" y="101.0" type="line"/>
      <point x="341.0" y="1102.0" type="line"/>
      <point x="304.0" y="1134.0" type="line"/>
      <point x="301.0" y="1134.0" type="line"/>
      <point x="55.0" y="1102.0" type="line"/>
      <point x="55.0" y="1014.0" type="line"/>
      <point x="184.0" y="980.0" type="line"/>
    </contour>
    <contour>
      <point x="248.0" y="1320.0" type="curve" smooth="yes"/>
      <point x="250.0" y="1320.0" type="line" smooth="yes"/>
      <point x="335.0" y="1320.0"/>
      <point x="375.0" y="1386.0"/>
      <point x="375.0" y="1451.0" type="curve" smooth="yes"/>
      <point x="375.0" y="1516.0"/>
      <point x="337.0" y="1566.0"/>
      <point x="264.0" y="1566.0" type="curve"/>
      <point x="262.0" y="1566.0" type="line" smooth="yes"/>
      <point x="177.0" y="1566.0"/>
      <point x="137.0" y="1500.0"/>
      <point x="137.0" y="1435.0" type="curve" smooth="yes"/>
      <point x="137.0" y="1370.0"/>
      <point x="175.0" y="1320.0"/>
    </contour>
  </outline>
</glyph>
<glyph name="l" format="2">
  <advance width="532.0"/>
  <unicode hex="006C"/>
  <anchor x="256.0" y="0.0" name="bottom"/>
  <anchor x="246.0" y="1634.0" name="top"/>
  <anchor x="481.0" y="1110.0" name="topright"/>
  <outline>
    <contour>
      <point x="181.0" y="101.0" type="line"/>
      <point x="35.0" y="85.0" type="line"/>
      <point x="35.0" y="0.0" type="line"/>
      <point x="493.0" y="0.0" type="line"/>
      <point x="493.0" y="85.0" type="line"/>
      <point x="338.0" y="99.0" type="line"/>
      <point x="338.0" y="1612.0" type="line"/>
      <point x="303.0" y="1638.0" type="line"/>
      <point x="301.0" y="1638.0" type="line"/>
      <point x="38.0" y="1604.0" type="line"/>
      <point x="38.0" y="1532.0" type="line"/>
      <point x="181.0" y="1514.0" type="line"/>
    </contour>
  </outline>
</glyph>
<glyph name="p" format="2">
  <advance width="1066.0"/>
  <unicode hex="0070"/>
  <guideline x="746.0" y="-376.0" angle="0.0"/>
  <guideline x="755.0" y="-484.0" angle="0.0"/>
  <guideline x="746.0" y="-396.0" angle="0.0"/>
  <anchor x="590.0" y="1110.0" name="top"/>
  <outline>
    <contour>
      <point x="999.0" y="620.0" type="curve" smooth="yes"/>
      <point x="999.0" y="968.0"/>
      <point x="824.0" y="1140.0"/>
      <point x="623.0" y="1140.0" type="curve" smooth="yes"/>
      <point x="439.0" y="1140.0"/>
      <point x="367.0" y="1046.0"/>
      <point x="318.0" y="980.0" type="curve"/>
      <point x="318.0" y="1102.0" type="line"/>
      <point x="282.0" y="1134.0" type="line"/>
      <point x="278.0" y="1134.0" type="line"/>
      <point x="22.0" y="1102.0" type="line"/>
      <point x="22.0" y="1012.0" type="line"/>
      <point x="178.0" y="978.0" type="line"/>
      <point x="178.0" y="-376.0" type="line"/>
      <point x="24.0" y="-396.0" type="line"/>
      <point x="24.0" y="-484.0" type="line"/>
      <point x="560.0" y="-484.0" type="line"/>
      <point x="560.0" y="-396.0" type="line"/>
      <point x="334.0" y="-376.0" type="line"/>
      <point x="334.0" y="-160.0" type="line"/>
      <point x="327.0" y="10.0" type="line"/>
      <point x="371.0" y="-10.0"/>
      <point x="438.0" y="-22.0"/>
      <point x="510.0" y="-22.0" type="curve" smooth="yes"/>
      <point x="811.0" y="-22.0"/>
      <point x="999.0" y="256.0"/>
    </contour>
    <contour>
      <point x="584.0" y="1018.0" type="curve" smooth="yes"/>
      <point x="708.0" y="1018.0"/>
      <point x="829.0" y="896.0"/>
      <point x="829.0" y="598.0" type="curve" smooth="yes"/>
      <point x="829.0" y="234.0"/>
      <point x="695.0" y="78.0"/>
      <point x="518.0" y="78.0" type="curve" smooth="yes"/>
      <point x="437.0" y="78.0"/>
      <point x="351.0" y="108.0"/>
      <point x="334.0" y="140.0" type="curve"/>
      <point x="334.0" y="878.0" type="line"/>
      <point x="371.0" y="940.0"/>
      <point x="446.0" y="1018.0"/>
    </contour>
  </outline>
</glyph>
<glyph name="q" format="2">
  <advance width="1073.0"/>
  <unicode hex="0071"/>
  <outline>
    <contour>
      <point x="511.0" y="-484.0" type="line"/>
      <point x="1037.0" y="-484.0" type="line"/>
      <point x="1037.0" y="-402.0" type="line"/>
      <point x="897.0" y="-382.0" type="line"/>
      <point x="897.0" y="1102.0" type="line"/>
      <point x="863.0" y="1134.0" type="line"/>
      <point x="854.0" y="1134.0" type="line"/>
      <point x="773.0" y="1106.0" type="line"/>
      <point x="692.0" y="1132.0"/>
      <point x="630.0" y="1140.0"/>
      <point x="563.0" y="1140.0" type="curve" smooth="yes"/>
      <point x="252.0" y="1140.0"/>
      <point x="67.0" y="874.0"/>
      <point x="67.0" y="529.0" type="curve" smooth="yes"/>
      <point x="67.0" y="147.0"/>
      <point x="171.0" y="-22.0"/>
      <point x="395.0" y="-22.0" type="curve" smooth="yes"/>
      <point x="553.0" y="-22.0"/>
      <point x="669.0" y="56.0"/>
      <point x="741.0" y="126.0" type="curve"/>
      <point x="735.0" y="-46.0" type="line"/>
      <point x="735.0" y="-382.0" type="line"/>
      <point x="511.0" y="-402.0" type="line"/>
    </contour>
    <contour>
      <point x="461.0" y="94.0" type="curve" smooth="yes"/>
      <point x="279.0" y="94.0"/>
      <point x="238.0" y="233.0"/>
      <point x="238.0" y="551.0" type="curve" smooth="yes"/>
      <point x="238.0" y="895.0"/>
      <point x="371.0" y="1040.0"/>
      <point x="551.0" y="1040.0" type="curve" smooth="yes"/>
      <point x="630.0" y="1040.0"/>
      <point x="712.0" y="1008.0"/>
      <point x="733.0" y="982.0" type="curve"/>
      <point x="733.0" y="214.0" type="line"/>
      <point x="689.0" y="168.0"/>
      <point x="591.0" y="94.0"/>
    </contour>
  </outline>
</glyph>
<glyph name="r" format="2">
  <advance width="838.0"/>
  <unicode hex="0072"/>
  <anchor x="286.0" y="0.0" name="bottom"/>
  <anchor x="444.0" y="1110.0" name="top"/>
  <outline>
    <contour>
      <point x="32.0" y="0.0" type="line"/>
      <point x="620.0" y="0.0" type="line"/>
      <point x="620.0" y="82.0" type="line"/>
      <point x="354.0" y="98.0" type="line"/>
      <point x="354.0" y="830.0" type="line"/>
      <point x="416.0" y="876.0"/>
      <point x="524.0" y="956.0"/>
      <point x="696.0" y="956.0" type="curve" smooth="yes"/>
      <point x="740.0" y="956.0"/>
      <point x="780.0" y="944.0"/>
      <point x="788.0" y="938.0" type="curve"/>
      <point x="788.0" y="1106.0" type="line"/>
      <point x="774.0" y="1110.0"/>
      <point x="756.0" y="1114.0"/>
      <point x="728.0" y="1114.0" type="curve" smooth="yes"/>
      <point x="508.0" y="1114.0"/>
      <point x="358.0" y="918.0"/>
      <point x="334.0" y="892.0" type="curve"/>
      <point x="330.0" y="892.0" type="line"/>
      <point x="334.0" y="1070.0" type="line"/>
      <point x="334.0" y="1102.0" type="line"/>
      <point x="296.0" y="1134.0" type="line"/>
      <point x="292.0" y="1134.0" type="line"/>
      <point x="38.0" y="1102.0" type="line"/>
      <point x="38.0" y="1012.0" type="line"/>
      <point x="192.0" y="978.0" type="line"/>
      <point x="192.0" y="96.0" type="line"/>
      <point x="32.0" y="84.0" type="line"/>
    </contour>
  </outline>
</glyph>
<glyph name="t" format="2">
  <advance width="634.0"/>
  <unicode hex="0074"/>
  <anchor x="354.0" y="0.0" name="bottom"/>
  <anchor x="239.0" y="576.0" name="center"/>
  <anchor x="259.0" y="1360.0" name="top"/>
  <anchor x="506.0" y="1110.0" name="topright"/>
  <outline>
    <contour>
      <point x="338.0" y="-18.0" type="curve" smooth="yes"/>
      <point x="438.0" y="-18.0"/>
      <point x="581.0" y="40.0"/>
      <point x="632.0" y="84.0" type="curve"/>
      <point x="608.0" y="158.0" type="line"/>
      <point x="571.0" y="136.0"/>
      <point x="479.0" y="106.0"/>
      <point x="411.0" y="106.0" type="curve" smooth="yes"/>
      <point x="307.0" y="106.0"/>
      <point x="307.0" y="150.0"/>
      <point x="307.0" y="344.0" type="curve" smooth="yes"/>
      <point x="307.0" y="991.0" type="line"/>
      <point x="581.0" y="991.0" type="line"/>
      <point x="581.0" y="1110.0" type="line"/>
      <point x="307.0" y="1110.0" type="line"/>
      <point x="306.0" y="1394.0" type="line"/>
      <point x="216.0" y="1394.0" type="line"/>
      <point x="208.0" y="1358.0"/>
      <point x="179.0" y="1212.0"/>
      <point x="163.0" y="1163.0" type="curve" smooth="yes"/>
      <point x="152.0" y="1131.0"/>
      <point x="141.0" y="1114.0"/>
      <point x="124.0" y="1102.0" type="curve" smooth="yes"/>
      <point x="108.0" y="1092.0"/>
      <point x="57.0" y="1079.0"/>
      <point x="22.0" y="1070.0" type="curve"/>
      <point x="22.0" y="991.0" type="line"/>
      <point x="150.0" y="991.0" type="line"/>
      <point x="150.0" y="205.0" type="line" smooth="yes"/>
      <point x="150.0" y="46.0"/>
      <point x="205.0" y="-18.0"/>
    </contour>
  </outline>
</glyph>
<glyph name="u" format="2">
  <advance width="1042.0"/>
  <unicode hex="0075"/>
  <anchor x="518.0" y="0.0" name="bottom"/>
  <anchor x="930.0" y="20.0" name="ogonek"/>
  <anchor x="490.0" y="1110.0" name="top"/>
  <anchor x="765.0" y="1110.0" name="topright"/>
  <outline>
    <contour>
      <point x="845.0" y="-18.0" type="curve" smooth="yes"/>
      <point x="896.0" y="-18.0"/>
      <point x="952.0" y="0.0"/>
      <point x="990.0" y="12.0" type="curve"/>
      <point x="992.0" y="88.0" type="line"/>
      <point x="884.0" y="88.0" type="line"/>
      <point x="884.0" y="1110.0" type="line"/>
      <point x="843.0" y="1134.0" type="line"/>
      <point x="841.0" y="1134.0" type="line"/>
      <point x="604.0" y="1108.0" type="line"/>
      <point x="604.0" y="1034.0" type="line"/>
      <point x="734.0" y="1000.0" type="line"/>
      <point x="734.0" y="237.0" type="line"/>
      <point x="690.0" y="183.0"/>
      <point x="613.0" y="96.0"/>
      <point x="472.0" y="96.0" type="curve" smooth="yes"/>
      <point x="321.0" y="96.0"/>
      <point x="288.0" y="191.0"/>
      <point x="288.0" y="410.0" type="curve" smooth="yes"/>
      <point x="288.0" y="1110.0" type="line"/>
      <point x="256.0" y="1134.0" type="line"/>
      <point x="255.0" y="1134.0" type="line"/>
      <point x="35.0" y="1108.0" type="line"/>
      <point x="35.0" y="1034.0" type="line"/>
      <point x="138.0" y="1000.0" type="line"/>
      <point x="138.0" y="386.0" type="line" smooth="yes"/>
      <point x="138.0" y="103.0"/>
      <point x="233.0" y="-22.0"/>
      <point x="433.0" y="-22.0" type="curve" smooth="yes"/>
      <point x="579.0" y="-22.0"/>
      <point x="687.0" y="69.0"/>
      <point x="747.0" y="141.0" type="curve"/>
      <point x="747.0" y="66.0" type="line" smooth="yes"/>
      <point x="747.0" y="-2.0"/>
      <point x="783.0" y="-18.0"/>
    </contour>
  </outline>
</glyph>
<glyph name="v" format="2">
  <advance width="966.0"/>
  <unicode hex="0076"/>
  <outline>
    <contour>
      <point x="-2.0" y="1029.0" type="line"/>
      <point x="77.0" y="1003.0" type="line"/>
      <point x="414.0" y="-16.0" type="line"/>
      <point x="543.0" y="-16.0" type="line"/>
      <point x="889.0" y="1003.0" type="line"/>
      <point x="977.0" y="1029.0" type="line"/>
      <point x="977.0" y="1110.0" type="line"/>
      <point x="640.0" y="1110.0" type="line"/>
      <point x="640.0" y="1029.0" type="line"/>
      <point x="758.0" y="1003.0" type="line"/>
      <point x="569.0" y="397.0" type="line"/>
      <point x="501.0" y="121.0" type="line"/>
      <point x="422.0" y="407.0" type="line"/>
      <point x="253.0" y="1003.0" type="line"/>
      <point x="377.0" y="1029.0" type="line"/>
      <point x="377.0" y="1110.0" type="line"/>
      <point x="-2.0" y="1110.0" type="line"/>
    </contour>
  </outline>
</glyph>
<glyph name="w" format="2">
  <advance width="1472.0"/>
  <unicode hex="0077"/>
  <anchor x="736.0" y="0.0" name="bottom"/>
  <anchor x="756.0" y="1110.0" name="top"/>
  <outline>
    <contour>
      <point x="-36.0" y="1028.0" type="line"/>
      <point x="64.0" y="1004.0" type="line"/>
      <point x="326.0" y="-16.0" type="line"/>
      <point x="503.0" y="-16.0" type="line"/>
      <point x="682.0" y="728.0" type="line"/>
      <point x="741.0" y="975.0" type="line"/>
      <point x="785.0" y="728.0" type="line"/>
      <point x="958.0" y="-16.0" type="line"/>
      <point x="1135.0" y="-16.0" type="line"/>
      <point x="1405.0" y="1002.0" type="line"/>
      <point x="1510.0" y="1028.0" type="line"/>
      <point x="1510.0" y="1112.0" type="line"/>
      <point x="1156.0" y="1112.0" type="line"/>
      <point x="1156.0" y="1028.0" type="line"/>
      <point x="1290.0" y="1002.0" type="line"/>
      <point x="1132.0" y="382.0" type="line"/>
      <point x="1064.0" y="106.0" type="line"/>
      <point x="1008.0" y="384.0" type="line"/>
      <point x="854.0" y="1112.0" type="line"/>
      <point x="668.0" y="1112.0" type="line"/>
      <point x="485.0" y="384.0" type="line"/>
      <point x="427.0" y="108.0" type="line"/>
      <point x="368.0" y="382.0" type="line"/>
      <point x="225.0" y="1004.0" type="line"/>
      <point x="365.0" y="1028.0" type="line"/>
      <point x="365.0" y="1112.0" type="line"/>
      <point x="-36.0" y="1112.0" type="line"/>
    </contour>
  </outline>
</glyph>
<glyph name="asciitilde" format="2">
  <advance width="1298.0"/>
  <unicode hex="007E"/>
  <outline>
    <contour>
      <point x="180.0" y="576.0" type="curve"/>
      <point x="248.0" y="500.0" type="line"/>
      <point x="290.0" y="556.0"/>
      <point x="360.0" y="618.0"/>
      <point x="458.0" y="618.0" type="curve" smooth="yes"/>
      <point x="590.0" y="618.0"/>
      <point x="648.0" y="454.0"/>
      <point x="820.0" y="454.0" type="curve" smooth="yes"/>
      <point x="956.0" y="454.0"/>
      <point x="1068.0" y="540.0"/>
      <point x="1118.0" y="626.0" type="curve"/>
      <point x="1050.0" y="700.0" type="line"/>
      <point x="1008.0" y="644.0"/>
      <point x="938.0" y="584.0"/>
      <point x="842.0" y="584.0" type="curve" smooth="yes"/>
      <point x="714.0" y="584.0"/>
      <point x="652.0" y="748.0"/>
      <point x="480.0" y="748.0" type="curve" smooth="yes"/>
      <point x="340.0" y="748.0"/>
      <point x="228.0" y="658.0"/>
    </contour>
  </outline>
</glyph>
<glyph name="yen" format="2">
  <advance width="1304.0"/>
  <unicode hex="00A5"/>
  <outline>
    <contour>
      <point x="535.0" y="828.0" type="line"/>
      <point x="204.0" y="828.0" type="line"/>
      <point x="204.0" y="736.0" type="line"/>
      <point x="592.0" y="736.0" type="line"/>
      <point x="592.0" y="454.0" type="line"/>
      <point x="204.0" y="454.0" type="line"/>
      <point x="204.0" y="362.0" type="line"/>
      <point x="592.0" y="362.0" type="line"/>
      <point x="592.0" y="98.0" type="line"/>
      <point x="395.0" y="76.0" type="line"/>
      <point x="395.0" y="0.0" type="line"/>
      <point x="932.0" y="0.0" type="line"/>
      <point x="932.0" y="76.0" type="line"/>
      <point x="732.0" y="98.0" type="line"/>
      <point x="732.0" y="362.0" type="line"/>
      <point x="1120.0" y="362.0" type="line"/>
      <point x="1120.0" y="454.0" type="line"/>
      <point x="732.0" y="454.0" type="line"/>
      <point x="732.0" y="736.0" type="line"/>
      <point x="1120.0" y="736.0" type="line"/>
      <point x="1120.0" y="828.0" type="line"/>
      <point x="779.0" y="828.0" type="line"/>
      <point x="1097.0" y="1390.0" type="line"/>
      <point x="1213.0" y="1412.0" type="line"/>
      <point x="1213.0" y="1486.0" type="line"/>
      <point x="830.0" y="1486.0" type="line"/>
      <point x="830.0" y="1412.0" type="line"/>
      <point x="956.0" y="1390.0" type="line"/>
      <point x="748.0" y="962.0" type="line"/>
      <point x="686.0" y="830.0" type="line"/>
      <point x="631.0" y="958.0" type="line"/>
      <point x="397.0" y="1392.0" type="line"/>
      <point x="524.0" y="1412.0" type="line"/>
      <point x="524.0" y="1486.0" type="line"/>
      <point x="91.0" y="1486.0" type="line"/>
      <point x="91.0" y="1412.0" type="line"/>
      <point x="200.0" y="1388.0" type="line"/>
    </contour>
  </outline>
</glyph>
<glyph name="ordfeminine" format="2">
  <advance width="822.0"/>
  <unicode hex="00AA"/>
  <outline>
    <contour>
      <point x="39.0" y="936.0" type="curve" smooth="yes"/>
      <point x="39.0" y="759.0"/>
      <point x="170.0" y="682.0"/>
      <point x="303.0" y="682.0" type="curve" smooth="yes"/>
      <point x="427.0" y="682.0"/>
      <point x="520.0" y="777.0"/>
      <point x="557.0" y="813.0" type="curve"/>
      <point x="557.0" y="753.0" type="line" smooth="yes"/>
      <point x="557.0" y="690.0"/>
      <point x="599.0" y="685.0"/>
      <point x="642.0" y="685.0" type="curve" smooth="yes"/>
      <point x="684.0" y="685.0"/>
      <point x="744.0" y="699.0"/>
      <point x="777.0" y="709.0" type="curve"/>
      <point x="777.0" y="769.0" type="line"/>
      <point x="685.0" y="769.0" type="line"/>
      <point x="685.0" y="1304.0" type="line" smooth="yes"/>
      <point x="685.0" y="1531.0"/>
      <point x="599.0" y="1616.0"/>
      <point x="403.0" y="1616.0" type="curve" smooth="yes"/>
      <point x="261.0" y="1616.0"/>
      <point x="105.0" y="1526.0"/>
      <point x="79.0" y="1498.0" type="curve"/>
      <point x="111.0" y="1427.0" type="line"/>
      <point x="158.0" y="1456.0"/>
      <point x="258.0" y="1513.0"/>
      <point x="373.0" y="1513.0" type="curve" smooth="yes"/>
      <point x="513.0" y="1513.0"/>
      <point x="547.0" y="1451.0"/>
      <point x="547.0" y="1291.0" type="curve" smooth="yes"/>
      <point x="547.0" y="1239.0" type="line"/>
      <point x="302.0" y="1234.0"/>
      <point x="39.0" y="1163.0"/>
    </contour>
    <contour>
      <point x="346.0" y="777.0" type="curve" smooth="yes"/>
      <point x="256.0" y="777.0"/>
      <point x="189.0" y="823.0"/>
      <point x="189.0" y="952.0" type="curve" smooth="yes"/>
      <point x="189.0" y="1075.0"/>
      <point x="301.0" y="1161.0"/>
      <point x="547.0" y="1163.0" type="curve"/>
      <point x="547.0" y="876.0" type="line"/>
      <point x="488.0" y="826.0"/>
      <point x="406.0" y="777.0"/>
    </contour>
  </outline>
</glyph>
<glyph name="registered" format="2">
  <advance width="2020"/>
  <unicode hex="00AE"/>
  <outline>
    <contour>
      <point x="160" y="980" type="curve" smooth="yes"/>
      <point x="160" y="504"/>
      <point x="534" y="120"/>
      <point x="1010" y="120" type="curve" smooth="yes"/>
      <point x="1484" y="120"/>
      <point x="1860" y="504"/>
      <point x="1860" y="980" type="curve" smooth="yes"/>
      <point x="1860" y="1454"/>
      <point x="1484" y="1836"/>
      <point x="1010" y="1836" type="curve" smooth="yes"/>
      <point x="534" y="1836"/>
      <point x="160" y="1454"/>
    </contour>
    <contour>
      <point x="268" y="980" type="curve" smooth="yes"/>
      <point x="268" y="1394"/>
      <point x="590" y="1742"/>
      <point x="1010" y="1742" type="curve" smooth="yes"/>
      <point x="1428" y="1742"/>
      <point x="1750" y="1394"/>
      <point x="1750" y="980" type="curve" smooth="yes"/>
      <point x="1750" y="564"/>
      <point x="1428" y="216"/>
      <point x="1010" y="216" type="curve" smooth="yes"/>
      <point x="590" y="216"/>
      <point x="268" y="564"/>
    </contour>
    <contour>
      <point x="720" y="602" type="line"/>
      <point x="626" y="580" type="line"/>
      <point x="626" y="506" type="line"/>
      <point x="960" y="506" type="line"/>
      <point x="960" y="580" type="line"/>
      <point x="852" y="598" type="line"/>
      <point x="852" y="896" type="line"/>
      <point x="1026" y="894" type="line"/>
      <point x="1222" y="816"/>
      <point x="1134" y="506"/>
      <point x="1326" y="506" type="curve" smooth="yes"/>
      <point x="1456" y="506" type="line"/>
      <point x="1456" y="592" type="line"/>
      <point x="1278" y="606"/>
      <point x="1342" y="832"/>
      <point x="1162" y="920" type="curve"/>
      <point x="1292" y="950"/>
      <point x="1382" y="1054"/>
      <point x="1382" y="1210" type="curve" smooth="yes"/>
      <point x="1382" y="1360"/>
      <point x="1258" y="1452"/>
      <point x="1026" y="1452" type="curve"/>
      <point x="924" y="1450"/>
      <point x="878" y="1446"/>
      <point x="774" y="1446" type="curve" smooth="yes"/>
      <point x="626" y="1446" type="line"/>
      <point x="626" y="1364" type="line"/>
      <point x="720" y="1344" type="line"/>
    </contour>
    <contour>
      <point x="852" y="1000" type="curve"/>
      <point x="852" y="1350" type="line"/>
      <point x="912" y="1360"/>
      <point x="956" y="1360"/>
      <point x="1000" y="1360" type="curve" smooth="yes"/>
      <point x="1148" y="1360"/>
      <point x="1228" y="1314"/>
      <point x="1228" y="1184" type="curve" smooth="yes"/>
      <point x="1228" y="1078"/>
      <point x="1140" y="994"/>
      <point x="1032" y="994" type="curve" smooth="yes"/>
      <point x="988" y="994"/>
      <point x="884" y="994"/>
    </contour>
  </outline>
</glyph>
<glyph name="plusminus" format="2">
  <advance width="1164.0"/>
  <unicode hex="00B1"/>
  <outline>
    <contour>
      <point x="370.0" y="702.0" type="line"/>
      <point x="180.0" y="702.0" type="line"/>
      <point x="180.0" y="572.0" type="line"/>
      <point x="370.0" y="572.0" type="line"/>
      <point x="523.0" y="578.0" type="line"/>
      <point x="517.0" y="406.0" type="line"/>
      <point x="517.0" y="182.0" type="line"/>
      <point x="647.0" y="182.0" type="line"/>
      <point x="647.0" y="406.0" type="line"/>
      <point x="639.0" y="578.0" type="line"/>
      <point x="771.0" y="572.0" type="line"/>
      <point x="984.0" y="572.0" type="line"/>
      <point x="984.0" y="702.0" type="line"/>
      <point x="771.0" y="702.0" type="line"/>
      <point x="639.0" y="692.0" type="line"/>
      <point x="647.0" y="868.0" type="line"/>
      <point x="647.0" y="1090.0" type="line"/>
      <point x="517.0" y="1090.0" type="line"/>
      <point x="517.0" y="868.0" type="line"/>
      <point x="523.0" y="692.0" type="line"/>
    </contour>
    <contour>
      <point x="970.0" y="122.0" type="line"/>
      <point x="192.0" y="122.0" type="line"/>
      <point x="192.0" y="0.0" type="line"/>
      <point x="970.0" y="0.0" type="line"/>
    </contour>
  </outline>
</glyph>
<glyph name="micro" format="2">
  <advance width="1046.0"/>
  <unicode hex="00B5"/>
  <outline>
    <contour>
      <point x="138.0" y="-364.0" type="line"/>
      <point x="277.0" y="-364.0" type="line"/>
      <point x="277.0" y="128.0" type="line"/>
      <point x="328.0" y="20.0"/>
      <point x="411.0" y="-20.0"/>
      <point x="503.0" y="-20.0" type="curve" smooth="yes"/>
      <point x="620.0" y="-20.0"/>
      <point x="702.0" y="57.0"/>
      <point x="748.0" y="154.0" type="curve"/>
      <point x="748.0" y="48.0" type="line" smooth="yes"/>
      <point x="748.0" y="-4.0"/>
      <point x="773.0" y="-26.0"/>
      <point x="825.0" y="-26.0" type="curve" smooth="yes"/>
      <point x="882.0" y="-26.0"/>
      <point x="960.0" y="-10.0"/>
      <point x="996.0" y="8.0" type="curve"/>
      <point x="996.0" y="86.0" type="line"/>
      <point x="884.0" y="86.0" type="line"/>
      <point x="884.0" y="1110.0" type="line"/>
      <point x="845.0" y="1133.0" type="line"/>
      <point x="835.0" y="1133.0" type="line"/>
      <point x="604.0" y="1108.0" type="line"/>
      <point x="604.0" y="1034.0" type="line"/>
      <point x="735.0" y="1000.0" type="line"/>
      <point x="735.0" y="258.0" type="line"/>
      <point x="709.0" y="206.0"/>
      <point x="650.0" y="102.0"/>
      <point x="510.0" y="102.0" type="curve" smooth="yes"/>
      <point x="337.0" y="102.0"/>
      <point x="288.0" y="250.0"/>
      <point x="288.0" y="318.0" type="curve" smooth="yes"/>
      <point x="288.0" y="1110.0" type="line"/>
      <point x="257.0" y="1133.0" type="line"/>
      <point x="241.0" y="1133.0" type="line"/>
      <point x="35.0" y="1109.0" type="line"/>
      <point x="35.0" y="1035.0" type="line"/>
      <point x="138.0" y="1002.0" type="line"/>
    </contour>
  </outline>
</glyph>
<glyph name="paragraph" format="2">
  <advance width="1251.0"/>
  <unicode hex="00B6"/>
  <outline>
    <contour>
      <point x="449.0" y="102.0" type="line"/>
      <point x="280.0" y="84.0" type="line"/>
      <point x="280.0" y="0.0" type="line"/>
      <point x="597.0" y="0.0" type="line"/>
      <point x="597.0" y="1550.0" type="line"/>
      <point x="606.0" y="1550.0"/>
      <point x="622.0" y="1552.0"/>
      <point x="637.0" y="1552.0" type="curve" smooth="yes"/>
      <point x="718.0" y="1552.0"/>
      <point x="803.0" y="1542.0"/>
      <point x="847.0" y="1538.0" type="curve"/>
      <point x="847.0" y="0.0" type="line"/>
      <point x="1122.0" y="0.0" type="line"/>
      <point x="1122.0" y="84.0" type="line"/>
      <point x="995.0" y="102.0" type="line"/>
      <point x="995.0" y="1544.0" type="line"/>
      <point x="1143.0" y="1564.0" type="line"/>
      <point x="1143.0" y="1652.0" type="line"/>
      <point x="972.0" y="1652.0" type="line" smooth="yes"/>
      <point x="787.0" y="1652.0"/>
      <point x="723.0" y="1670.0"/>
      <point x="543.0" y="1670.0" type="curve" smooth="yes"/>
      <point x="232.0" y="1670.0"/>
      <point x="70.0" y="1488.0"/>
      <point x="70.0" y="1242.0" type="curve" smooth="yes"/>
      <point x="70.0" y="962.0"/>
      <point x="193.0" y="802.0"/>
      <point x="449.0" y="802.0" type="curve"/>
    </contour>
  </outline>
</glyph>
<glyph name="ordmasculine" format="2">
  <advance width="840.0"/>
  <unicode hex="00BA"/>
  <outline>
    <contour>
      <point x="421.0" y="683.0" type="curve" smooth="yes"/>
      <point x="583.0" y="683.0"/>
      <point x="784.0" y="825.0"/>
      <point x="786.0" y="1151.0" type="curve" smooth="yes"/>
      <point x="790.0" y="1445.0"/>
      <point x="655.0" y="1615.0"/>
      <point x="430.0" y="1615.0" type="curve" smooth="yes"/>
      <point x="269.0" y="1615.0"/>
      <point x="57.0" y="1471.0"/>
      <point x="54.0" y="1161.0" type="curve" smooth="yes"/>
      <point x="50.0" y="843.0"/>
      <point x="216.0" y="683.0"/>
    </contour>
    <contour>
      <point x="417.0" y="767.0" type="curve" smooth="yes"/>
      <point x="301.0" y="767.0"/>
      <point x="200.0" y="921.0"/>
      <point x="200.0" y="1169.0" type="curve" smooth="yes"/>
      <point x="200.0" y="1435.0"/>
      <point x="297.0" y="1529.0"/>
      <point x="423.0" y="1529.0" type="curve" smooth="yes"/>
      <point x="557.0" y="1529.0"/>
      <point x="644.0" y="1379.0"/>
      <point x="644.0" y="1141.0" type="curve" smooth="yes"/>
      <point x="644.0" y="853.0"/>
      <point x="550.0" y="767.0"/>
    </contour>
  </outline>
</glyph>
<glyph name="guillemetright" format="2">
  <advance width="1358.0"/>
  <unicode hex="00BB"/>
  <outline>
    <contour>
      <point x="796.0" y="1094.0" type="line"/>
      <point x="706.0" y="1028.0" type="line"/>
      <point x="1036.0" y="600.0" type="line"/>
      <point x="706.0" y="186.0" type="line"/>
      <point x="796.0" y="114.0" type="line"/>
      <point x="1226.0" y="532.0" type="line"/>
      <point x="1226.0" y="664.0" type="line"/>
    </contour>
    <contour>
      <point x="242.0" y="1094.0" type="line"/>
      <point x="152.0" y="1028.0" type="line"/>
      <point x="512.0" y="600.0" type="line"/>
      <point x="152.0" y="186.0" type="line"/>
      <point x="242.0" y="114.0" type="line"/>
      <point x="702.0" y="532.0" type="line"/>
      <point x="702.0" y="664.0" type="line"/>
    </contour>
  </outline>
</glyph>
<glyph name="AE" format="2">
  <advance width="1817.0"/>
  <unicode hex="00C6"/>
  <anchor x="1032.0" y="0.0" name="bottom"/>
  <anchor x="1032.0" y="1486.0" name="top"/>
  <outline>
    <contour>
      <point x="922.0" y="104.0" type="line"/>
      <point x="776.0" y="84.0" type="line"/>
      <point x="776.0" y="0.0" type="line"/>
      <point x="1718.0" y="0.0" type="line"/>
      <point x="1770.0" y="337.0" type="line"/>
      <point x="1679.0" y="366.0" type="line"/>
      <point x="1591.0" y="118.0" type="line"/>
      <point x="1082.0" y="101.0" type="line"/>
      <point x="1082.0" y="718.0" type="line"/>
      <point x="1448.0" y="714.0" type="line"/>
      <point x="1472.0" y="542.0" type="line"/>
      <point x="1574.0" y="542.0" type="line"/>
      <point x="1574.0" y="984.0" type="line"/>
      <point x="1472.0" y="984.0" type="line"/>
      <point x="1448.0" y="818.0" type="line"/>
      <point x="1082.0" y="812.0" type="line"/>
      <point x="1082.0" y="1396.0" type="line"/>
      <point x="1527.0" y="1385.0" type="line"/>
      <point x="1576.0" y="1194.0" type="line"/>
      <point x="1665.0" y="1194.0" type="line"/>
      <point x="1641.0" y="1486.0" type="line"/>
      <point x="390.0" y="1486.0" type="line"/>
      <point x="390.0" y="1404.0" type="line"/>
      <point x="654.0" y="1382.0" type="line"/>
      <point x="114.0" y="104.0" type="line"/>
      <point x="-30.0" y="84.0" type="line"/>
      <point x="-30.0" y="0.0" type="line"/>
      <point x="428.0" y="0.0" type="line"/>
      <point x="428.0" y="84.0" type="line"/>
      <point x="270.0" y="104.0" type="line"/>
      <point x="410.0" y="440.0" type="line"/>
      <point x="922.0" y="440.0" type="line"/>
    </contour>
    <contour>
      <point x="922.0" y="544.0" type="line"/>
      <point x="454.0" y="544.0" type="line"/>
      <point x="676.0" y="1134.0" type="line"/>
      <point x="776.0" y="1390.0" type="line"/>
      <point x="922.0" y="1390.0" type="line"/>
    </contour>
  </outline>
</glyph>
<glyph name="Thorn" format="2">
  <advance width="1138.0"/>
  <unicode hex="00DE"/>
  <outline>
    <contour>
      <point x="270.0" y="104.0" type="line"/>
      <point x="100.0" y="84.0" type="line"/>
      <point x="100.0" y="0.0" type="line"/>
      <point x="650.0" y="0.0" type="line"/>
      <point x="650.0" y="84.0" type="line"/>
      <point x="432.0" y="104.0" type="line"/>
      <point x="432.0" y="350.0" type="line"/>
      <point x="476.0" y="344.0"/>
      <point x="540.0" y="342.0"/>
      <point x="624.0" y="342.0" type="curve" smooth="yes"/>
      <point x="906.0" y="342.0"/>
      <point x="1098.0" y="480.0"/>
      <point x="1098.0" y="780.0" type="curve" smooth="yes"/>
      <point x="1098.0" y="1042.0"/>
      <point x="916.0" y="1172.0"/>
      <point x="680.0" y="1172.0" type="curve" smooth="yes"/>
      <point x="590.0" y="1172.0"/>
      <point x="512.0" y="1160.0"/>
      <point x="432.0" y="1152.0" type="curve"/>
      <point x="432.0" y="1380.0" type="line"/>
      <point x="612.0" y="1402.0" type="line"/>
      <point x="612.0" y="1488.0" type="line"/>
      <point x="104.0" y="1488.0" type="line"/>
      <point x="104.0" y="1402.0" type="line"/>
      <point x="270.0" y="1380.0" type="line"/>
    </contour>
    <contour>
      <point x="648.0" y="432.0" type="curve" smooth="yes"/>
      <point x="574.0" y="432.0"/>
      <point x="498.0" y="430.0"/>
      <point x="432.0" y="440.0" type="curve"/>
      <point x="432.0" y="1056.0" type="line"/>
      <point x="472.0" y="1064.0"/>
      <point x="546.0" y="1073.0"/>
      <point x="636.0" y="1076.0" type="curve" smooth="yes"/>
      <point x="820.0" y="1082.0"/>
      <point x="916.0" y="968.0"/>
      <point x="916.0" y="770.0" type="curve" smooth="yes"/>
      <point x="916.0" y="518.0"/>
      <point x="776.0" y="432.0"/>
    </contour>
  </outline>
</glyph>
<glyph name="germandbls" format="2">
  <advance width="1134"/>
  <unicode hex="00DF"/>
  <outline>
    <contour>
      <point x="143" y="102" type="line"/>
      <point x="10" y="86" type="line"/>
      <point x="10" y="0" type="line"/>
      <point x="299" y="0" type="line"/>
      <point x="299" y="958" type="line" smooth="yes"/>
      <point x="299" y="1294"/>
      <point x="424" y="1462"/>
      <point x="613" y="1462" type="curve" smooth="yes"/>
      <point x="745" y="1462"/>
      <point x="809" y="1390"/>
      <point x="809" y="1252" type="curve" smooth="yes"/>
      <point x="809" y="1064"/>
      <point x="608" y="972"/>
      <point x="608" y="830" type="curve" smooth="yes"/>
      <point x="608" y="580"/>
      <point x="926" y="524"/>
      <point x="926" y="284" type="curve" smooth="yes"/>
      <point x="926" y="178"/>
      <point x="862" y="96"/>
      <point x="702" y="96" type="curve" smooth="yes"/>
      <point x="630" y="96"/>
      <point x="565" y="112"/>
      <point x="518" y="132" type="curve"/>
      <point x="518" y="0" type="line"/>
      <point x="553" y="-10"/>
      <point x="625" y="-22"/>
      <point x="676" y="-22" type="curve" smooth="yes"/>
      <point x="905" y="-22"/>
      <point x="1089" y="88"/>
      <point x="1089" y="322" type="curve" smooth="yes"/>
      <point x="1089" y="616"/>
      <point x="751" y="685"/>
      <point x="751" y="865" type="curve" smooth="yes"/>
      <point x="751" y="1011"/>
      <point x="967" y="1070"/>
      <point x="967" y="1300" type="curve" smooth="yes"/>
      <point x="967" y="1488"/>
      <point x="820" y="1566"/>
      <point x="657" y="1566" type="curve" smooth="yes"/>
      <point x="390" y="1566"/>
      <point x="143" y="1346"/>
      <point x="143" y="926" type="curve" smooth="yes"/>
    </contour>
  </outline>
</glyph>
<glyph name="divide" format="2">
  <advance width="1172.0"/>
  <unicode hex="00F7"/>
  <outline>
    <contour>
      <point x="596.0" y="922.0" type="curve" smooth="yes"/>
      <point x="664.0" y="922.0"/>
      <point x="728.0" y="974.0"/>
      <point x="728.0" y="1052.0" type="curve" smooth="yes"/>
      <point x="728.0" y="1112.0"/>
      <point x="696.0" y="1164.0"/>
      <point x="616.0" y="1164.0" type="curve" smooth="yes"/>
      <point x="552.0" y="1164.0"/>
      <point x="484.0" y="1106.0"/>
      <point x="484.0" y="1034.0" type="curve" smooth="yes"/>
      <point x="484.0" y="966.0"/>
      <point x="538.0" y="922.0"/>
    </contour>
    <contour>
      <point x="992.0" y="702.0" type="line"/>
      <point x="180.0" y="702.0" type="line"/>
      <point x="180.0" y="580.0" type="line"/>
      <point x="992.0" y="580.0" type="line"/>
    </contour>
    <contour>
      <point x="464.0" y="228.0" type="curve" smooth="yes"/>
      <point x="464.0" y="160.0"/>
      <point x="518.0" y="118.0"/>
      <point x="576.0" y="118.0" type="curve" smooth="yes"/>
      <point x="644.0" y="118.0"/>
      <point x="710.0" y="170.0"/>
      <point x="710.0" y="248.0" type="curve" smooth="yes"/>
      <point x="710.0" y="306.0"/>
      <point x="676.0" y="358.0"/>
      <point x="598.0" y="358.0" type="curve" smooth="yes"/>
      <point x="532.0" y="358.0"/>
      <point x="464.0" y="302.0"/>
    </contour>
  </outline>
</glyph>
<glyph name="oslash" format="2">
  <advance width="992.0"/>
  <unicode hex="00F8"/>
  <anchor x="496.0" y="0.0" name="bottom"/>
  <anchor x="496.0" y="557.0" name="center"/>
  <anchor x="893.0" y="10.0" name="ogonek"/>
  <anchor x="496.0" y="1110.0" name="top"/>
  <anchor x="732.0" y="1110.0" name="topright"/>
  <outline>
    <contour>
      <point x="54.0" y="562.0" type="curve" smooth="yes"/>
      <point x="54.0" y="242.0"/>
      <point x="173.0" y="-22.0"/>
      <point x="487.0" y="-22.0" type="curve" smooth="yes"/>
      <point x="712.0" y="-22.0"/>
      <point x="938.0" y="185.0"/>
      <point x="938.0" y="556.0" type="curve" smooth="yes"/>
      <point x="938.0" y="876.0"/>
      <point x="819.0" y="1140.0"/>
      <point x="505.0" y="1140.0" type="curve" smooth="yes"/>
      <point x="280.0" y="1140.0"/>
      <point x="54.0" y="933.0"/>
    </contour>
    <contour>
      <point x="496.0" y="82.0" type="curve" smooth="yes"/>
      <point x="304.0" y="82.0"/>
      <point x="229.0" y="296.0"/>
      <point x="229.0" y="574.0" type="curve" smooth="yes"/>
      <point x="229.0" y="893.0"/>
      <point x="329.0" y="1036.0"/>
      <point x="498.0" y="1036.0" type="curve" smooth="yes"/>
      <point x="691.0" y="1036.0"/>
      <point x="763.0" y="818.0"/>
      <point x="763.0" y="544.0" type="curve" smooth="yes"/>
      <point x="763.0" y="227.0"/>
      <point x="663.0" y="82.0"/>
    </contour>
    <contour>
      <point x="151.0" y="-141.0" type="line"/>
      <point x="252.0" y="30.0" type="line"/>
      <point x="299.0" y="123.0" type="line"/>
      <point x="741.0" y="960.0" type="line"/>
      <point x="807.0" y="1063.0" type="line"/>
      <point x="909.0" y="1236.0" type="line"/>
      <point x="838.0" y="1278.0" type="line"/>
      <point x="735.0" y="1103.0" type="line"/>
      <point x="690.0" y="1014.0" type="line"/>
      <point x="251.0" y="183.0" type="line"/>
      <point x="184.0" y="77.0" type="line"/>
      <point x="78.0" y="-102.0" type="line"/>
    </contour>
  </outline>
</glyph>
<glyph name="Hbar" format="2">
  <advance width="1370.0"/>
  <unicode hex="0126"/>
  <anchor x="686.0" y="0.0" name="bottom"/>
  <anchor x="1316.0" y="0.0" name="bottomright"/>
  <anchor x="685.0" y="743.0" name="center"/>
  <anchor x="699.0" y="1486.0" name="top"/>
  <anchor x="-1.0" y="1486.0" name="topleft"/>
  <outline>
    <contour>
      <point x="208.0" y="103.0" type="line"/>
      <point x="68.0" y="85.0" type="line"/>
      <point x="68.0" y="0.0" type="line"/>
      <point x="521.0" y="0.0" type="line"/>
      <point x="521.0" y="85.0" type="line"/>
      <point x="369.0" y="103.0" type="line"/>
      <point x="369.0" y="612.0" type="line"/>
      <point x="1001.0" y="612.0" type="line"/>
      <point x="1001.0" y="103.0" type="line"/>
      <point x="854.0" y="85.0" type="line"/>
      <point x="854.0" y="0.0" type="line"/>
      <point x="1302.0" y="0.0" type="line"/>
      <point x="1302.0" y="85.0" type="line"/>
      <point x="1162.0" y="103.0" type="line"/>
      <point x="1162.0" y="1380.0" type="line"/>
      <point x="1296.0" y="1401.0" type="line"/>
      <point x="1296.0" y="1486.0" type="line"/>
      <point x="856.0" y="1486.0" type="line"/>
      <point x="856.0" y="1401.0" type="line"/>
      <point x="1001.0" y="1380.0" type="line"/>
      <point x="1001.0" y="716.0" type="line"/>
      <point x="369.0" y="716.0" type="line"/>
      <point x="369.0" y="1380.0" type="line"/>
      <point x="519.0" y="1401.0" type="line"/>
      <point x="519.0" y="1486.0" type="line"/>
      <point x="70.0" y="1486.0" type="line"/>
      <point x="70.0" y="1401.0" type="line"/>
      <point x="208.0" y="1380.0" type="line"/>
    </contour>
    <contour>
      <point x="1288.0" y="1110.0" type="line"/>
      <point x="76.0" y="1110.0" type="line"/>
      <point x="76.0" y="1004.0" type="line"/>
      <point x="1288.0" y="1004.0" type="line"/>
    </contour>
  </outline>
</glyph>
<glyph name="idotless" format="2">
  <advance width="513.0"/>
  <unicode hex="0131"/>
  <anchor x="312.0" y="0.0" name="bottom"/>
  <anchor x="322.0" y="20.0" name="ogonek"/>
  <anchor x="256.0" y="1110.0" name="top"/>
  <outline>
    <contour>
      <point x="184.0" y="101.0" type="line"/>
      <point x="71.0" y="85.0" type="line"/>
      <point x="71.0" y="0.0" type="line"/>
      <point x="463.0" y="0.0" type="line"/>
      <point x="463.0" y="85.0" type="line"/>
      <point x="341.0" y="101.0" type="line"/>
      <point x="341.0" y="1102.0" type="line"/>
      <point x="304.0" y="1134.0" type="line"/>
      <point x="301.0" y="1134.0" type="line"/>
      <point x="55.0" y="1102.0" type="line"/>
      <point x="55.0" y="1014.0" type="line"/>
      <point x="184.0" y="980.0" type="line"/>
    </contour>
  </outline>
</glyph>
<glyph name="kgreenlandic" format="2">
  <advance width="1175.0"/>
  <unicode hex="0138"/>
  <outline>
    <contour>
      <point x="184.0" y="98.0" type="line"/>
      <point x="32.0" y="84.0" type="line"/>
      <point x="32.0" y="0.0" type="line"/>
      <point x="484.0" y="0.0" type="line"/>
      <point x="484.0" y="82.0" type="line"/>
      <point x="332.0" y="98.0" type="line"/>
      <point x="332.0" y="250.0" type="line"/>
      <point x="328.0" y="350.0" type="line"/>
      <point x="536.0" y="564.0" type="line"/>
      <point x="830.0" y="98.0" type="line"/>
      <point x="725.0" y="82.0" type="line"/>
      <point x="725.0" y="0.0" type="line"/>
      <point x="1130.0" y="0.0" type="line"/>
      <point x="1130.0" y="84.0" type="line"/>
      <point x="1005.0" y="98.0" type="line"/>
      <point x="633.0" y="658.0" type="line"/>
      <point x="952.0" y="1008.0" type="line"/>
      <point x="1079.0" y="1026.0" type="line"/>
      <point x="1079.0" y="1108.0" type="line"/>
      <point x="644.0" y="1108.0" type="line"/>
      <point x="644.0" y="1026.0" type="line"/>
      <point x="795.0" y="1000.0" type="line"/>
      <point x="328.0" y="476.0" type="line"/>
      <point x="332.0" y="678.0" type="line"/>
      <point x="332.0" y="1102.0" type="line"/>
      <point x="297.0" y="1134.0" type="line"/>
      <point x="293.0" y="1134.0" type="line"/>
      <point x="39.0" y="1102.0" type="line"/>
      <point x="39.0" y="1012.0" type="line"/>
      <point x="184.0" y="978.0" type="line"/>
    </contour>
  </outline>
</glyph>
<glyph name="Lslash" format="2">
  <advance width="1064.0"/>
  <unicode hex="0141"/>
  <anchor x="562.0" y="0.0" name="bottom"/>
  <anchor x="602.0" y="744.0" name="center"/>
  <anchor x="332.0" y="1486.0" name="top"/>
  <anchor x="858.0" y="1110.0" name="topright"/>
  <outline>
    <contour>
      <point x="362.0" y="884.0" type="line"/>
      <point x="68.0" y="756.0" type="line"/>
      <point x="68.0" y="631.0" type="line"/>
      <point x="362.0" y="757.0" type="line"/>
      <point x="394.0" y="769.0" type="line"/>
      <point x="878.0" y="981.0" type="line"/>
      <point x="878.0" y="1112.0" type="line"/>
      <point x="396.0" y="898.0" type="line"/>
    </contour>
    <component base="L" xOffset="18.0"/>
  </outline>
</glyph>
<glyph name="lslash" format="2">
  <advance width="643.0"/>
  <unicode hex="0142"/>
  <anchor x="312.0" y="0.0" name="bottom"/>
  <anchor x="302.0" y="1634.0" name="top"/>
  <anchor x="537.0" y="1110.0" name="topright"/>
  <outline>
    <contour>
      <point x="258.0" y="935.0" type="line"/>
      <point x="40.0" y="824.0" type="line"/>
      <point x="40.0" y="707.0" type="line"/>
      <point x="258.0" y="816.0" type="line"/>
      <point x="379.0" y="882.0" type="line"/>
      <point x="599.0" y="998.0" type="line"/>
      <point x="599.0" y="1116.0" type="line"/>
      <point x="379.0" y="998.0" type="line"/>
    </contour>
    <contour>
      <point x="237.0" y="101.0" type="line"/>
      <point x="91.0" y="85.0" type="line"/>
      <point x="91.0" y="0.0" type="line"/>
      <point x="549.0" y="0.0" type="line"/>
      <point x="549.0" y="85.0" type="line"/>
      <point x="394.0" y="99.0" type="line"/>
      <point x="394.0" y="1612.0" type="line"/>
      <point x="359.0" y="1638.0" type="line"/>
      <point x="357.0" y="1638.0" type="line"/>
      <point x="94.0" y="1604.0" type="line"/>
      <point x="94.0" y="1532.0" type="line"/>
      <point x="237.0" y="1514.0" type="line"/>
    </contour>
  </outline>
</glyph>
<glyph name="Eng" format="2">
  <advance width="1382.0"/>
  <unicode hex="014A"/>
  <outline>
    <contour>
      <point x="235.0" y="104.0" type="line"/>
      <point x="97.0" y="86.0" type="line"/>
      <point x="97.0" y="0.0" type="line"/>
      <point x="501.0" y="0.0" type="line"/>
      <point x="501.0" y="86.0" type="line"/>
      <point x="342.0" y="104.0" type="line"/>
      <point x="343.0" y="1300.0" type="line"/>
      <point x="479.0" y="1037.0" type="line"/>
      <point x="1024.0" y="84.0" type="line"/>
      <point x="1010.0" y="-78.0"/>
      <point x="862.0" y="-242.0"/>
      <point x="749.0" y="-270.0" type="curve"/>
      <point x="788.0" y="-340.0" type="line"/>
      <point x="1024.0" y="-282.0"/>
      <point x="1190.0" y="-61.0"/>
      <point x="1190.0" y="270.0" type="curve" smooth="yes"/>
      <point x="1191.0" y="1380.0" type="line"/>
      <point x="1330.0" y="1401.0" type="line"/>
      <point x="1330.0" y="1486.0" type="line"/>
      <point x="933.0" y="1486.0" type="line"/>
      <point x="933.0" y="1401.0" type="line"/>
      <point x="1083.0" y="1380.0" type="line"/>
      <point x="1083.0" y="247.0" type="line"/>
      <point x="982.0" y="455.0" type="line"/>
      <point x="396.0" y="1486.0" type="line"/>
      <point x="97.0" y="1486.0" type="line"/>
      <point x="97.0" y="1402.0" type="line"/>
      <point x="144.0" y="1394.0"/>
      <point x="188.0" y="1386.0"/>
      <point x="235.0" y="1378.0" type="curve"/>
    </contour>
  </outline>
</glyph>
<glyph name="OE" format="2">
  <advance width="1813.0"/>
  <unicode hex="0152"/>
  <outline>
    <contour>
      <point x="916.0" y="64.0" type="curve"/>
      <point x="916.0" y="0.0" type="line"/>
      <point x="1712.0" y="0.0" type="line"/>
      <point x="1766.0" y="337.0" type="line"/>
      <point x="1677.0" y="366.0" type="line"/>
      <point x="1583.0" y="118.0" type="line"/>
      <point x="1076.0" y="101.0" type="line"/>
      <point x="1076.0" y="720.0" type="line"/>
      <point x="1378.0" y="714.0" type="line"/>
      <point x="1403.0" y="542.0" type="line"/>
      <point x="1492.0" y="542.0" type="line"/>
      <point x="1492.0" y="984.0" type="line"/>
      <point x="1403.0" y="984.0" type="line"/>
      <point x="1378.0" y="820.0" type="line"/>
      <point x="1076.0" y="814.0" type="line"/>
      <point x="1076.0" y="1393.0" type="line"/>
      <point x="1522.0" y="1384.0" type="line"/>
      <point x="1573.0" y="1192.0" type="line"/>
      <point x="1661.0" y="1192.0" type="line"/>
      <point x="1635.0" y="1486.0" type="line"/>
      <point x="916.0" y="1486.0" type="line"/>
      <point x="916.0" y="1456.0" type="line"/>
      <point x="843.0" y="1494.0"/>
      <point x="764.0" y="1512.0"/>
      <point x="670.0" y="1510.0" type="curve" smooth="yes"/>
      <point x="322.0" y="1503.0"/>
      <point x="42.0" y="1206.0"/>
      <point x="42.0" y="734.0" type="curve" smooth="yes"/>
      <point x="42.0" y="286.0"/>
      <point x="262.0" y="-16.0"/>
      <point x="642.0" y="-16.0" type="curve" smooth="yes"/>
      <point x="743.0" y="-16.0"/>
      <point x="831.0" y="14.0"/>
    </contour>
    <contour>
      <point x="653.0" y="78.0" type="curve" smooth="yes"/>
      <point x="369.0" y="78.0"/>
      <point x="221.0" y="374.0"/>
      <point x="221.0" y="734.0" type="curve" smooth="yes"/>
      <point x="221.0" y="1174.0"/>
      <point x="388.0" y="1418.0"/>
      <point x="657.0" y="1418.0" type="curve" smooth="yes"/>
      <point x="781.0" y="1418.0"/>
      <point x="858.0" y="1378.0"/>
      <point x="916.0" y="1318.0" type="curve"/>
      <point x="916.0" y="192.0" type="line"/>
      <point x="850.0" y="118.0"/>
      <point x="766.0" y="78.0"/>
    </contour>
  </outline>
</glyph>
<glyph name="oe" format="2">
  <advance width="1641.0"/>
  <unicode hex="0153"/>
  <outline>
    <contour>
      <point x="487.0" y="-22.0" type="curve" smooth="yes"/>
      <point x="623.0" y="-22.0"/>
      <point x="759.0" y="54.0"/>
      <point x="846.0" y="195.0" type="curve"/>
      <point x="916.0" y="60.0"/>
      <point x="1034.0" y="-22.0"/>
      <point x="1196.0" y="-22.0" type="curve" smooth="yes"/>
      <point x="1351.0" y="-22.0"/>
      <point x="1478.0" y="41.0"/>
      <point x="1541.0" y="119.0" type="curve"/>
      <point x="1511.0" y="192.0" type="line"/>
      <point x="1459.0" y="138.0"/>
      <point x="1352.0" y="90.0"/>
      <point x="1235.0" y="90.0" type="curve" smooth="yes"/>
      <point x="1036.0" y="90.0"/>
      <point x="943.0" y="278.0"/>
      <point x="941.0" y="569.0" type="curve"/>
      <point x="1563.0" y="569.0" type="line"/>
      <point x="1571.0" y="613.0"/>
      <point x="1574.0" y="661.0"/>
      <point x="1574.0" y="744.0" type="curve" smooth="yes"/>
      <point x="1565.0" y="1005.0"/>
      <point x="1430.0" y="1140.0"/>
      <point x="1224.0" y="1140.0" type="curve" smooth="yes"/>
      <point x="1075.0" y="1140.0"/>
      <point x="946.0" y="1060.0"/>
      <point x="864.0" y="925.0" type="curve"/>
      <point x="797.0" y="1056.0"/>
      <point x="682.0" y="1140.0"/>
      <point x="505.0" y="1140.0" type="curve" smooth="yes"/>
      <point x="280.0" y="1140.0"/>
      <point x="54.0" y="933.0"/>
      <point x="54.0" y="562.0" type="curve" smooth="yes"/>
      <point x="54.0" y="242.0"/>
      <point x="173.0" y="-22.0"/>
    </contour>
    <contour>
      <point x="230.0" y="574.0" type="curve" smooth="yes"/>
      <point x="230.0" y="893.0"/>
      <point x="329.0" y="1036.0"/>
      <point x="498.0" y="1036.0" type="curve" smooth="yes"/>
      <point x="691.0" y="1036.0"/>
      <point x="762.0" y="818.0"/>
      <point x="762.0" y="544.0" type="curve" smooth="yes"/>
      <point x="762.0" y="227.0"/>
      <point x="663.0" y="82.0"/>
      <point x="496.0" y="82.0" type="curve" smooth="yes"/>
      <point x="304.0" y="82.0"/>
      <point x="230.0" y="296.0"/>
    </contour>
    <contour>
      <point x="942.0" y="662.0" type="line"/>
      <point x="957.0" y="940.0"/>
      <point x="1059.0" y="1039.0"/>
      <point x="1211.0" y="1039.0" type="curve" smooth="yes"/>
      <point x="1338.0" y="1039.0"/>
      <point x="1409.0" y="914.0"/>
      <point x="1409.0" y="750.0" type="curve" smooth="yes"/>
      <point x="1409.0" y="722.0"/>
      <point x="1408.0" y="697.0"/>
      <point x="1405.0" y="662.0" type="curve"/>
    </contour>
  </outline>
</glyph>
<glyph name="tbar" format="2">
  <advance width="634.0"/>
  <unicode hex="0167"/>
  <anchor x="354.0" y="0.0" name="bottom"/>
  <anchor x="239.0" y="576.0" name="center"/>
  <anchor x="259.0" y="1360.0" name="top"/>
  <anchor x="506.0" y="1110.0" name="topright"/>
  <outline>
    <contour>
      <point x="580.0" y="631.0" type="line"/>
      <point x="24.0" y="631.0" type="line"/>
      <point x="24.0" y="521.0" type="line"/>
      <point x="580.0" y="521.0" type="line"/>
    </contour>
    <component base="t"/>
  </outline>
</glyph>
<glyph name="Schwa" format="2">
  <advance width="1187.0"/>
  <unicode hex="018F"/>
  <anchor x="574.0" y="0.0" name="bottom"/>
  <anchor x="584.0" y="1486.0" name="top"/>
  <outline>
    <contour>
      <point x="542.0" y="-22.0" type="curve" smooth="yes"/>
      <point x="894.0" y="-22.0"/>
      <point x="1145.0" y="292.0"/>
      <point x="1145.0" y="752.0" type="curve" smooth="yes"/>
      <point x="1145.0" y="1198.0"/>
      <point x="918.0" y="1502.0"/>
      <point x="570.0" y="1502.0" type="curve" smooth="yes"/>
      <point x="317.0" y="1502.0"/>
      <point x="183.0" y="1430.0"/>
      <point x="81.0" y="1424.0" type="curve"/>
      <point x="80.0" y="1138.0" type="line"/>
      <point x="176.0" y="1138.0" type="line"/>
      <point x="209.0" y="1308.0" type="line"/>
      <point x="262.0" y="1346.0"/>
      <point x="368.0" y="1408.0"/>
      <point x="541.0" y="1408.0" type="curve" smooth="yes"/>
      <point x="794.0" y="1408.0"/>
      <point x="949.0" y="1164.0"/>
      <point x="964.0" y="762.0" type="curve"/>
      <point x="49.0" y="762.0" type="line"/>
      <point x="40.0" y="716.0"/>
      <point x="40.0" y="650.0"/>
      <point x="40.0" y="568.0" type="curve"/>
      <point x="47.0" y="192.0"/>
      <point x="287.0" y="-22.0"/>
    </contour>
    <contour>
      <point x="563.0" y="72.0" type="curve" smooth="yes"/>
      <point x="326.0" y="72.0"/>
      <point x="214.0" y="334.0"/>
      <point x="214.0" y="554.0" type="curve" smooth="yes"/>
      <point x="214.0" y="592.0"/>
      <point x="216.0" y="628.0"/>
      <point x="221.0" y="664.0" type="curve"/>
      <point x="964.0" y="664.0" type="line"/>
      <point x="955.0" y="252.0"/>
      <point x="796.0" y="72.0"/>
    </contour>
  </outline>
</glyph>
<glyph name="Uhorn" format="2">
  <advance width="1297.0"/>
  <unicode hex="01AF"/>
  <anchor x="774.0" y="0.0" name="bottom"/>
  <anchor x="1340.0" y="20.0" name="ogonek"/>
  <anchor x="659.0" y="1486.0" name="top"/>
  <anchor x="1153.0" y="1486.0" name="topright"/>
  <outline>
    <contour>
      <point x="1154.0" y="1486.0" type="curve"/>
      <point x="1155.0" y="1376.0" type="line"/>
      <point x="1345.0" y="1376.0"/>
      <point x="1437.0" y="1450.0"/>
      <point x="1437.0" y="1687.0" type="curve" smooth="yes"/>
      <point x="1437.0" y="1701.0"/>
      <point x="1435.0" y="1717.0"/>
      <point x="1432.0" y="1730.0" type="curve"/>
      <point x="1288.0" y="1730.0" type="line"/>
      <point x="1292.0" y="1718.0"/>
      <point x="1295.0" y="1703.0"/>
      <point x="1295.0" y="1678.0" type="curve" smooth="yes"/>
      <point x="1295.0" y="1613.0"/>
      <point x="1275.0" y="1486.0"/>
    </contour>
    <component base="U"/>
  </outline>
</glyph>
<glyph name="uhorn" format="2">
  <advance width="1042.0"/>
  <unicode hex="01B0"/>
  <anchor x="610.0" y="0.0" name="bottom"/>
  <anchor x="930.0" y="20.0" name="ogonek"/>
  <anchor x="490.0" y="1110.0" name="top"/>
  <anchor x="998.0" y="1110.0" name="topright"/>
  <outline>
    <contour>
      <point x="886.0" y="1402.0" type="line"/>
      <point x="888.0" y="1390.0"/>
      <point x="891.0" y="1368.0"/>
      <point x="891.0" y="1332.0" type="curve" smooth="yes"/>
      <point x="891.0" y="1217.0"/>
      <point x="862.0" y="1138.0"/>
      <point x="797.0" y="1127.0" type="curve"/>
      <point x="755.0" y="1066.0" type="line"/>
      <point x="888.0" y="1066.0" type="line"/>
      <point x="949.0" y="1080.0"/>
      <point x="1046.0" y="1169.0"/>
      <point x="1046.0" y="1318.0" type="curve" smooth="yes"/>
      <point x="1046.0" y="1362.0"/>
      <point x="1044.0" y="1388.0"/>
      <point x="1042.0" y="1402.0" type="curve"/>
    </contour>
    <component base="u"/>
  </outline>
</glyph>
<glyph name="gravecomb" format="2">
  <unicode hex="0300"/>
  <anchor x="303.0" y="1110.0" name="_top"/>
  <anchor x="303.0" y="1756.0" name="top"/>
  <outline>
    <contour>
      <point x="340.0" y="1298.0" type="curve"/>
      <point x="342.0" y="1298.0" type="line"/>
      <point x="406.0" y="1352.0" type="line"/>
      <point x="154.0" y="1738.0" type="line"/>
      <point x="10.0" y="1638.0" type="line"/>
      <point x="55.0" y="1553.0"/>
      <point x="244.0" y="1352.0"/>
    </contour>
  </outline>
</glyph>
<glyph name="tildecomb" format="2">
  <unicode hex="0303"/>
  <anchor x="338.0" y="1110.0" name="_top"/>
  <anchor x="338.0" y="1470.0" name="top"/>
  <outline>
    <contour>
      <point x="10.0" y="1386.0" type="curve"/>
      <point x="98.0" y="1344.0" type="line"/>
      <point x="113.0" y="1413.0"/>
      <point x="145.0" y="1458.0"/>
      <point x="195.0" y="1458.0" type="curve" smooth="yes"/>
      <point x="292.0" y="1458.0"/>
      <point x="324.0" y="1320.0"/>
      <point x="473.0" y="1320.0" type="curve" smooth="yes"/>
      <point x="576.0" y="1320.0"/>
      <point x="647.0" y="1397.0"/>
      <point x="666.0" y="1522.0" type="curve"/>
      <point x="578.0" y="1564.0" type="line"/>
      <point x="563.0" y="1495.0"/>
      <point x="531.0" y="1450.0"/>
      <point x="481.0" y="1450.0" type="curve" smooth="yes"/>
      <point x="384.0" y="1450.0"/>
      <point x="352.0" y="1588.0"/>
      <point x="203.0" y="1588.0" type="curve" smooth="yes"/>
      <point x="100.0" y="1588.0"/>
      <point x="29.0" y="1511.0"/>
    </contour>
  </outline>
</glyph>
<glyph name="brevecomb" format="2">
  <unicode hex="0306"/>
  <anchor x="297" y="1110" name="_top"/>
  <anchor x="297" y="1756" name="top"/>
  <outline>
    <contour>
      <point x="297" y="1320" type="curve" smooth="yes"/>
      <point x="477" y="1320"/>
      <point x="584" y="1458"/>
      <point x="584" y="1630" type="curve" smooth="yes"/>
      <point x="584" y="1644"/>
      <point x="583" y="1660"/>
      <point x="580" y="1676" type="curve"/>
      <point x="490" y="1676" type="line"/>
      <point x="490" y="1668"/>
      <point x="489" y="1656"/>
      <point x="488" y="1642" type="curve" smooth="yes"/>
      <point x="481" y="1560"/>
      <point x="441" y="1458"/>
      <point x="297" y="1458" type="curve" smooth="yes"/>
      <point x="153" y="1458"/>
      <point x="113" y="1560"/>
      <point x="106" y="1642" type="curve" smooth="yes"/>
      <point x="105" y="1656"/>
      <point x="104" y="1668"/>
      <point x="104" y="1676" type="curve"/>
      <point x="14" y="1676" type="line"/>
      <point x="11" y="1660"/>
      <point x="10" y="1644"/>
      <point x="10" y="1630" type="curve" smooth="yes"/>
      <point x="10" y="1458"/>
      <point x="117" y="1320"/>
    </contour>
  </outline>
</glyph>
<glyph name="hungarumlautcomb" format="2">
  <unicode hex="030B"/>
  <anchor x="242.0" y="1110.0" name="_top"/>
  <anchor x="242.0" y="1606.0" name="top"/>
  <outline>
    <contour>
      <point x="76.0" y="1298.0" type="line"/>
      <point x="156.0" y="1368.0"/>
      <point x="324.0" y="1552.0"/>
      <point x="375.0" y="1655.0" type="curve"/>
      <point x="253.0" y="1738.0" type="line"/>
      <point x="10.0" y="1352.0" type="line"/>
      <point x="74.0" y="1298.0" type="line"/>
    </contour>
    <contour>
      <point x="452.0" y="1298.0" type="line"/>
      <point x="533.0" y="1368.0"/>
      <point x="701.0" y="1552.0"/>
      <point x="751.0" y="1655.0" type="curve"/>
      <point x="629.0" y="1738.0" type="line"/>
      <point x="386.0" y="1352.0" type="line"/>
      <point x="450.0" y="1298.0" type="line"/>
    </contour>
  </outline>
</glyph>
<glyph name="horncomb" format="2">
  <unicode hex="031B"/>
  <anchor x="82.0" y="1110.0" name="_topright"/>
  <outline>
    <contour>
      <point x="142.0" y="1035.0" type="line"/>
      <point x="290.0" y="1066.0"/>
      <point x="400.0" y="1148.0"/>
      <point x="400.0" y="1320.0" type="curve" smooth="yes"/>
      <point x="400.0" y="1334.0"/>
      <point x="398.0" y="1350.0"/>
      <point x="396.0" y="1366.0" type="curve"/>
      <point x="256.0" y="1366.0" type="line"/>
      <point x="258.0" y="1358.0"/>
      <point x="260.0" y="1344.0"/>
      <point x="260.0" y="1330.0" type="curve" smooth="yes"/>
      <point x="260.0" y="1266.0"/>
      <point x="255.0" y="1141.0"/>
      <point x="70.0" y="1110.0" type="curve"/>
    </contour>
  </outline>
</glyph>
<glyph name="macronbelowcomb" format="2">
  <unicode hex="0331"/>
  <anchor x="246" y="0" name="_bottom"/>
  <anchor x="246" y="-346" name="bottom"/>
  <outline>
    <contour>
      <point x="482" y="-196" type="line"/>
      <point x="10" y="-196" type="line"/>
      <point x="10" y="-318" type="line"/>
      <point x="482" y="-318" type="line"/>
    </contour>
  </outline>
</glyph>
<glyph name="slashshortcomb" format="2">
  <unicode hex="0337"/>
  <anchor x="357.0" y="556.0" name="_center"/>
  <outline>
    <contour>
      <point x="592.0" y="1112.0" type="line"/>
      <point x="10.0" y="-202.0" type="line"/>
      <point x="126.0" y="-202.0" type="line"/>
      <point x="704.0" y="1112.0" type="line"/>
    </contour>
  </outline>
</glyph>
<glyph name="Delta" format="2">
  <advance width="1338.0"/>
  <unicode hex="0394"/>
  <outline>
    <contour>
      <point x="106.0" y="0.0" type="line"/>
      <point x="1234.0" y="0.0" type="line"/>
      <point x="1268.0" y="40.0" type="line"/>
      <point x="692.0" y="1500.0" type="line"/>
      <point x="628.0" y="1500.0" type="line"/>
      <point x="70.0" y="40.0" type="line"/>
    </contour>
    <contour>
      <point x="630.0" y="1186.0" type="line"/>
      <point x="650.0" y="1264.0" type="line"/>
      <point x="672.0" y="1192.0" type="line"/>
      <point x="1098.0" y="18.0" type="line"/>
      <point x="1145.0" y="86.0" type="line"/>
      <point x="161.0" y="86.0" type="line"/>
      <point x="208.0" y="18.0" type="line"/>
    </contour>
  </outline>
</glyph>
<glyph name="Lje-cy" format="2">
  <advance width="1706"/>
  <unicode hex="0409"/>
  <outline>
    <contour>
      <point x="117" y="-10" type="curve" smooth="yes"/>
      <point x="211" y="-10"/>
      <point x="280" y="34"/>
      <point x="337" y="133" type="curve" smooth="yes"/>
      <point x="450" y="329"/>
      <point x="527" y="750"/>
      <point x="527" y="1184" type="curve" smooth="yes"/>
      <point x="527" y="1380" type="line"/>
      <point x="823" y="1380" type="line"/>
      <point x="823" y="106" type="line"/>
      <point x="641" y="86" type="line"/>
      <point x="641" y="0" type="line"/>
      <point x="907" y="0" type="line" smooth="yes"/>
      <point x="983" y="0"/>
      <point x="1135" y="-8"/>
      <point x="1194" y="-8" type="curve" smooth="yes"/>
      <point x="1473" y="-8"/>
      <point x="1681" y="191"/>
      <point x="1681" y="507" type="curve" smooth="yes"/>
      <point x="1681" y="790"/>
      <point x="1515" y="924"/>
      <point x="1211" y="924" type="curve" smooth="yes"/>
      <point x="1134" y="924"/>
      <point x="1062" y="915"/>
      <point x="980" y="904" type="curve"/>
      <point x="980" y="1378" type="line"/>
      <point x="1142" y="1400" type="line"/>
      <point x="1142" y="1486" type="line"/>
      <point x="267" y="1486" type="line"/>
      <point x="267" y="1400" type="line"/>
      <point x="418" y="1378" type="line"/>
      <point x="419" y="1195" type="line" smooth="yes"/>
      <point x="422" y="728"/>
      <point x="353" y="392"/>
      <point x="243" y="229" type="curve" smooth="yes"/>
      <point x="207" y="175"/>
      <point x="174" y="152"/>
      <point x="126" y="152" type="curve" smooth="yes"/>
      <point x="61" y="152"/>
      <point x="35" y="156"/>
      <point x="17" y="160" type="curve"/>
      <point x="24" y="0" type="line"/>
      <point x="42" y="-4"/>
      <point x="70" y="-10"/>
    </contour>
    <contour>
      <point x="1149" y="87" type="curve" smooth="yes"/>
      <point x="1075" y="87"/>
      <point x="1010" y="92"/>
      <point x="980" y="99" type="curve"/>
      <point x="980" y="801" type="line"/>
      <point x="1044" y="811"/>
      <point x="1101" y="820"/>
      <point x="1174" y="820" type="curve" smooth="yes"/>
      <point x="1392" y="820"/>
      <point x="1514" y="735"/>
      <point x="1514" y="474" type="curve" smooth="yes"/>
      <point x="1514" y="216"/>
      <point x="1382" y="87"/>
    </contour>
  </outline>
</glyph>
<glyph name="Nje-cy" format="2">
  <advance width="1878.0"/>
  <unicode hex="040A"/>
  <outline>
    <contour>
      <point x="1366.0" y="-8.0" type="curve" smooth="yes"/>
      <point x="1645.0" y="-8.0"/>
      <point x="1853.0" y="191.0"/>
      <point x="1853.0" y="507.0" type="curve" smooth="yes"/>
      <point x="1853.0" y="790.0"/>
      <point x="1687.0" y="924.0"/>
      <point x="1383.0" y="924.0" type="curve" smooth="yes"/>
      <point x="1306.0" y="924.0"/>
      <point x="1234.0" y="915.0"/>
      <point x="1152.0" y="904.0" type="curve"/>
      <point x="1152.0" y="1380.0" type="line"/>
      <point x="1286.0" y="1401.0" type="line"/>
      <point x="1286.0" y="1486.0" type="line"/>
      <point x="847.0" y="1486.0" type="line"/>
      <point x="847.0" y="1401.0" type="line"/>
      <point x="992.0" y="1380.0" type="line"/>
      <point x="992.0" y="815.0" type="line"/>
      <point x="359.0" y="815.0" type="line"/>
      <point x="359.0" y="1380.0" type="line"/>
      <point x="509.0" y="1401.0" type="line"/>
      <point x="509.0" y="1486.0" type="line"/>
      <point x="60.0" y="1486.0" type="line"/>
      <point x="60.0" y="1401.0" type="line"/>
      <point x="198.0" y="1380.0" type="line"/>
      <point x="198.0" y="103.0" type="line"/>
      <point x="58.0" y="85.0" type="line"/>
      <point x="58.0" y="0.0" type="line"/>
      <point x="511.0" y="0.0" type="line"/>
      <point x="511.0" y="85.0" type="line"/>
      <point x="359.0" y="103.0" type="line"/>
      <point x="359.0" y="711.0" type="line"/>
      <point x="992.0" y="711.0" type="line"/>
      <point x="992.0" y="103.0" type="line"/>
      <point x="845.0" y="85.0" type="line"/>
      <point x="845.0" y="0.0" type="line"/>
      <point x="1079.0" y="0.0" type="line" smooth="yes"/>
      <point x="1155.0" y="0.0"/>
      <point x="1307.0" y="-8.0"/>
    </contour>
    <contour>
      <point x="1321.0" y="87.0" type="curve" smooth="yes"/>
      <point x="1247.0" y="87.0"/>
      <point x="1182.0" y="92.0"/>
      <point x="1152.0" y="99.0" type="curve"/>
      <point x="1152.0" y="801.0" type="line"/>
      <point x="1216.0" y="811.0"/>
      <point x="1273.0" y="820.0"/>
      <point x="1346.0" y="820.0" type="curve" smooth="yes"/>
      <point x="1564.0" y="820.0"/>
      <point x="1686.0" y="735.0"/>
      <point x="1686.0" y="474.0" type="curve" smooth="yes"/>
      <point x="1686.0" y="216.0"/>
      <point x="1554.0" y="87.0"/>
    </contour>
  </outline>
</glyph>
<glyph name="Tshe-cy" format="2">
  <advance width="1427.0"/>
  <unicode hex="040B"/>
  <outline>
    <contour>
      <point x="238.0" y="0.0" type="line"/>
      <point x="821.0" y="0.0" type="line"/>
      <point x="821.0" y="86.0" type="line"/>
      <point x="642.0" y="104.0" type="line"/>
      <point x="642.0" y="662.0" type="line"/>
      <point x="688.0" y="700.0"/>
      <point x="771.0" y="736.0"/>
      <point x="900.0" y="736.0" type="curve" smooth="yes"/>
      <point x="1055.0" y="736.0"/>
      <point x="1099.0" y="612.0"/>
      <point x="1099.0" y="350.0" type="curve" smooth="yes"/>
      <point x="1099.0" y="104.0" type="line"/>
      <point x="970.0" y="86.0" type="line"/>
      <point x="970.0" y="0.0" type="line"/>
      <point x="1391.0" y="0.0" type="line"/>
      <point x="1391.0" y="86.0" type="line"/>
      <point x="1257.0" y="104.0" type="line"/>
      <point x="1257.0" y="410.0" type="line" smooth="yes"/>
      <point x="1257.0" y="738.0"/>
      <point x="1163.0" y="852.0"/>
      <point x="926.0" y="852.0" type="curve" smooth="yes"/>
      <point x="843.0" y="852.0"/>
      <point x="707.0" y="810.0"/>
      <point x="642.0" y="758.0" type="curve"/>
      <point x="642.0" y="1394.0" type="line"/>
      <point x="974.0" y="1380.0" type="line"/>
      <point x="1002.0" y="1018.0" type="line"/>
      <point x="1112.0" y="1018.0" type="line"/>
      <point x="1124.0" y="1486.0" type="line"/>
      <point x="44.0" y="1486.0" type="line"/>
      <point x="30.0" y="1018.0" type="line"/>
      <point x="140.0" y="1018.0" type="line"/>
      <point x="186.0" y="1380.0" type="line"/>
      <point x="478.0" y="1394.0" type="line"/>
      <point x="478.0" y="106.0" type="line"/>
      <point x="238.0" y="86.0" type="line"/>
    </contour>
  </outline>
</glyph>
<glyph name="Be-cy" format="2">
  <advance width="1156.0"/>
  <unicode hex="0411"/>
  <outline>
    <contour>
      <point x="616.0" y="-14.0" type="curve" smooth="yes"/>
      <point x="912.0" y="-14.0"/>
      <point x="1122.0" y="180.0"/>
      <point x="1122.0" y="491.0" type="curve" smooth="yes"/>
      <point x="1122.0" y="788.0"/>
      <point x="950.0" y="905.0"/>
      <point x="645.0" y="905.0" type="curve" smooth="yes"/>
      <point x="558.0" y="905.0"/>
      <point x="453.0" y="890.0"/>
      <point x="411.0" y="880.0" type="curve"/>
      <point x="411.0" y="1396.0" type="line"/>
      <point x="847.0" y="1384.0" type="line"/>
      <point x="912.0" y="1124.0" type="line"/>
      <point x="1024.0" y="1124.0" type="line"/>
      <point x="1003.0" y="1486.0" type="line"/>
      <point x="60.0" y="1486.0" type="line"/>
      <point x="60.0" y="1400.0" type="line"/>
      <point x="253.0" y="1378.0" type="line"/>
      <point x="253.0" y="104.0" type="line"/>
      <point x="58.0" y="86.0" type="line"/>
      <point x="58.0" y="0.0" type="line"/>
      <point x="337.0" y="0.0" type="line" smooth="yes"/>
      <point x="413.0" y="0.0"/>
      <point x="573.0" y="-14.0"/>
    </contour>
    <contour>
      <point x="602.0" y="84.0" type="curve" smooth="yes"/>
      <point x="500.0" y="84.0"/>
      <point x="463.0" y="92.0"/>
      <point x="411.0" y="100.0" type="curve"/>
      <point x="411.0" y="780.0" type="line"/>
      <point x="445.0" y="788.0"/>
      <point x="530.0" y="795.0"/>
      <point x="602.0" y="795.0" type="curve" smooth="yes"/>
      <point x="812.0" y="795.0"/>
      <point x="953.0" y="734.0"/>
      <point x="953.0" y="480.0" type="curve" smooth="yes"/>
      <point x="953.0" y="233.0"/>
      <point x="844.0" y="84.0"/>
    </contour>
  </outline>
</glyph>
<glyph name="Ge-cy" format="2">
  <advance width="1036.0"/>
  <unicode hex="0413"/>
  <anchor x="668.0" y="0.0" name="bottomright"/>
  <anchor x="490.0" y="744.0" name="center"/>
  <anchor x="632.0" y="1486.0" name="top"/>
  <outline>
    <contour>
      <point x="58.0" y="0.0" type="line"/>
      <point x="644.0" y="0.0" type="line"/>
      <point x="644.0" y="84.0" type="line"/>
      <point x="418.0" y="104.0" type="line"/>
      <point x="418.0" y="1396.0" type="line"/>
      <point x="848.0" y="1384.0" type="line"/>
      <point x="900.0" y="984.0" type="line"/>
      <point x="1006.0" y="984.0" type="line"/>
      <point x="998.0" y="1486.0" type="line"/>
      <point x="66.0" y="1486.0" type="line"/>
      <point x="66.0" y="1402.0" type="line"/>
      <point x="254.0" y="1376.0" type="line"/>
      <point x="254.0" y="104.0" type="line"/>
      <point x="58.0" y="84.0" type="line"/>
    </contour>
  </outline>
</glyph>
<glyph name="Zhe-cy" format="2">
  <advance width="1759"/>
  <unicode hex="0416"/>
  <anchor x="1757" y="-4" name="bottomright"/>
  <anchor x="881" y="1516" name="top"/>
  <outline>
    <contour>
      <point x="40" y="0" type="line"/>
      <point x="218" y="0" type="line" smooth="yes"/>
      <point x="349" y="0"/>
      <point x="527" y="704"/>
      <point x="710" y="704" type="curve" smooth="yes"/>
      <point x="800" y="704" type="line"/>
      <point x="800" y="107" type="line"/>
      <point x="660" y="89" type="line"/>
      <point x="660" y="0" type="line"/>
      <point x="1114" y="0" type="line"/>
      <point x="1114" y="85" type="line"/>
      <point x="959" y="107" type="line"/>
      <point x="959" y="704" type="line"/>
      <point x="1049" y="704" type="line" smooth="yes"/>
      <point x="1232" y="704"/>
      <point x="1410" y="0"/>
      <point x="1541" y="0" type="curve" smooth="yes"/>
      <point x="1719" y="0" type="line"/>
      <point x="1719" y="87" type="line"/>
      <point x="1667" y="105" type="line" smooth="yes"/>
      <point x="1601" y="128"/>
      <point x="1507" y="369"/>
      <point x="1379" y="568" type="curve" smooth="yes"/>
      <point x="1297" y="695"/>
      <point x="1218" y="779"/>
      <point x="1167" y="794" type="curve"/>
      <point x="1158" y="724" type="line"/>
      <point x="1589" y="1377" type="line"/>
      <point x="1705" y="1399" type="line"/>
      <point x="1705" y="1486" type="line"/>
      <point x="1296" y="1486" type="line"/>
      <point x="1296" y="1399" type="line"/>
      <point x="1451" y="1377" type="line"/>
      <point x="1089" y="793" type="line"/>
      <point x="959" y="793" type="line"/>
      <point x="959" y="1377" type="line"/>
      <point x="1110" y="1399" type="line"/>
      <point x="1110" y="1486" type="line"/>
      <point x="660" y="1486" type="line"/>
      <point x="660" y="1399" type="line"/>
      <point x="800" y="1377" type="line"/>
      <point x="800" y="793" type="line"/>
      <point x="670" y="793" type="line"/>
      <point x="308" y="1377" type="line"/>
      <point x="463" y="1399" type="line"/>
      <point x="463" y="1486" type="line"/>
      <point x="54" y="1486" type="line"/>
      <point x="54" y="1399" type="line"/>
      <point x="170" y="1377" type="line"/>
      <point x="601" y="724" type="line"/>
      <point x="592" y="794" type="line"/>
      <point x="541" y="779"/>
      <point x="462" y="695"/>
      <point x="380" y="568" type="curve" smooth="yes"/>
      <point x="252" y="369"/>
      <point x="158" y="128"/>
      <point x="92" y="105" type="curve" smooth="yes"/>
      <point x="40" y="87" type="line"/>
    </contour>
  </outline>
</glyph>
<glyph name="Ze-cy" format="2">
  <advance width="988.0"/>
  <unicode hex="0417"/>
  <anchor x="484.0" y="0.0" name="bottom"/>
  <anchor x="475.0" y="1486.0" name="top"/>
  <outline>
    <contour>
      <point x="433.0" y="-22.0" type="curve" smooth="yes"/>
      <point x="738.0" y="-22.0"/>
      <point x="954.0" y="147.0"/>
      <point x="954.0" y="412.0" type="curve" smooth="yes"/>
      <point x="954.0" y="616.0"/>
      <point x="800.0" y="777.0"/>
      <point x="537.0" y="784.0" type="curve"/>
      <point x="681.0" y="810.0"/>
      <point x="874.0" y="931.0"/>
      <point x="874.0" y="1152.0" type="curve" smooth="yes"/>
      <point x="874.0" y="1378.0"/>
      <point x="711.0" y="1502.0"/>
      <point x="467.0" y="1502.0" type="curve" smooth="yes"/>
      <point x="278.0" y="1502.0"/>
      <point x="191.0" y="1443.0"/>
      <point x="103.0" y="1436.0" type="curve"/>
      <point x="102.0" y="1112.0" type="line"/>
      <point x="190.0" y="1112.0" type="line"/>
      <point x="242.0" y="1320.0" type="line"/>
      <point x="265.0" y="1363.0"/>
      <point x="336.0" y="1404.0"/>
      <point x="462.0" y="1404.0" type="curve" smooth="yes"/>
      <point x="618.0" y="1404.0"/>
      <point x="708.0" y="1304.0"/>
      <point x="708.0" y="1127.0" type="curve" smooth="yes"/>
      <point x="708.0" y="908.0"/>
      <point x="561.0" y="819.0"/>
      <point x="427.0" y="819.0" type="curve"/>
      <point x="305.0" y="821.0" type="line"/>
      <point x="306.0" y="703.0" type="line"/>
      <point x="455.0" y="711.0" type="line"/>
      <point x="696.0" y="711.0"/>
      <point x="780.0" y="584.0"/>
      <point x="780.0" y="396.0" type="curve" smooth="yes"/>
      <point x="780.0" y="165.0"/>
      <point x="635.0" y="77.0"/>
      <point x="459.0" y="77.0" type="curve" smooth="yes"/>
      <point x="340.0" y="77.0"/>
      <point x="258.0" y="119.0"/>
      <point x="225.0" y="144.0" type="curve"/>
      <point x="155.0" y="328.0" type="line"/>
      <point x="71.0" y="328.0" type="line"/>
      <point x="65.0" y="64.0" type="line"/>
      <point x="108.0" y="44.0"/>
      <point x="262.0" y="-22.0"/>
    </contour>
  </outline>
</glyph>
<glyph name="El-cy" format="2">
  <advance width="1235"/>
  <unicode hex="041B"/>
  <anchor x="1147" y="0" name="bottomright"/>
  <outline>
    <contour>
      <point x="110" y="-10" type="curve" smooth="yes"/>
      <point x="204" y="-10"/>
      <point x="273" y="34"/>
      <point x="330" y="133" type="curve" smooth="yes"/>
      <point x="443" y="329"/>
      <point x="520" y="750"/>
      <point x="520" y="1184" type="curve" smooth="yes"/>
      <point x="520" y="1380" type="line"/>
      <point x="846" y="1380" type="line"/>
      <point x="846" y="106" type="line"/>
      <point x="664" y="86" type="line"/>
      <point x="664" y="0" type="line"/>
      <point x="1177" y="0" type="line"/>
      <point x="1177" y="86" type="line"/>
      <point x="1007" y="104" type="line"/>
      <point x="1007" y="1378" type="line"/>
      <point x="1165" y="1400" type="line"/>
      <point x="1165" y="1486" type="line"/>
      <point x="260" y="1486" type="line"/>
      <point x="260" y="1400" type="line"/>
      <point x="411" y="1378" type="line"/>
      <point x="412" y="1195" type="line" smooth="yes"/>
      <point x="415" y="728"/>
      <point x="343" y="387"/>
      <point x="236" y="229" type="curve" smooth="yes"/>
      <point x="203" y="175"/>
      <point x="167" y="152"/>
      <point x="119" y="152" type="curve" smooth="yes"/>
      <point x="74" y="152"/>
      <point x="48" y="156"/>
      <point x="30" y="160" type="curve"/>
      <point x="17" y="0" type="line"/>
      <point x="35" y="-4"/>
      <point x="63" y="-10"/>
    </contour>
  </outline>
</glyph>
<glyph name="U-cy" format="2">
  <advance width="1098.0"/>
  <unicode hex="0423"/>
  <anchor x="562.0" y="1486.0" name="top"/>
  <outline>
    <contour>
      <point x="276.0" y="-25.0" type="curve" smooth="yes"/>
      <point x="483.0" y="-25.0"/>
      <point x="569.0" y="186.0"/>
      <point x="613.0" y="304.0" type="curve" smooth="yes"/>
      <point x="1015.0" y="1378.0" type="line"/>
      <point x="1093.0" y="1400.0" type="line"/>
      <point x="1093.0" y="1486.0" type="line"/>
      <point x="721.0" y="1486.0" type="line"/>
      <point x="721.0" y="1400.0" type="line"/>
      <point x="880.0" y="1378.0" type="line"/>
      <point x="614.0" y="630.0" type="line"/>
      <point x="551.0" y="390.0" type="line"/>
      <point x="616.0" y="409.0" type="line"/>
      <point x="537.0" y="668.0" type="line"/>
      <point x="259.0" y="1378.0" type="line"/>
      <point x="446.0" y="1400.0" type="line"/>
      <point x="446.0" y="1486.0" type="line"/>
      <point x="-5.0" y="1486.0" type="line"/>
      <point x="-5.0" y="1400.0" type="line"/>
      <point x="79.0" y="1378.0" type="line"/>
      <point x="559.0" y="279.0" type="line"/>
      <point x="518.0" y="389.0" type="line"/>
      <point x="463.0" y="201.0"/>
      <point x="396.0" y="125.0"/>
      <point x="253.0" y="125.0" type="curve" smooth="yes"/>
      <point x="240.0" y="125.0"/>
      <point x="114.0" y="127.0"/>
      <point x="110.0" y="129.0" type="curve"/>
      <point x="110.0" y="7.0" type="line"/>
      <point x="146.0" y="-11.0"/>
      <point x="200.0" y="-25.0"/>
    </contour>
  </outline>
</glyph>
<glyph name="Tse-cy" format="2">
  <advance width="1315.0"/>
  <unicode hex="0426"/>
  <outline>
    <contour>
      <point x="1113.0" y="0.0" type="line"/>
      <point x="1115.0" y="1378.0" type="line"/>
      <point x="1257.0" y="1400.0" type="line"/>
      <point x="1257.0" y="1486.0" type="line"/>
      <point x="824.0" y="1486.0" type="line"/>
      <point x="824.0" y="1400.0" type="line"/>
      <point x="954.0" y="1378.0" type="line"/>
      <point x="954.0" y="104.0" type="line"/>
      <point x="389.0" y="104.0" type="line"/>
      <point x="389.0" y="1378.0" type="line"/>
      <point x="563.0" y="1400.0" type="line"/>
      <point x="563.0" y="1486.0" type="line"/>
      <point x="80.0" y="1486.0" type="line"/>
      <point x="80.0" y="1400.0" type="line"/>
      <point x="228.0" y="1378.0" type="line"/>
      <point x="228.0" y="108.0" type="line"/>
      <point x="58.0" y="84.0" type="line"/>
      <point x="58.0" y="0.0" type="line"/>
    </contour>
    <component base="righttooth_part." xOffset="909.0"/>
  </outline>
</glyph>
<glyph name="Che-cy" format="2">
  <advance width="1230.0"/>
  <unicode hex="0427"/>
  <anchor x="1176.0" y="0.0" name="bottomright"/>
  <anchor x="607.0" y="744.0" name="center"/>
  <anchor x="585.0" y="1486.0" name="top"/>
  <outline>
    <contour>
      <point x="847.0" y="658.0" type="curve"/>
      <point x="847.0" y="104.0" type="line"/>
      <point x="659.0" y="86.0" type="line"/>
      <point x="659.0" y="0.0" type="line"/>
      <point x="1172.0" y="0.0" type="line"/>
      <point x="1172.0" y="84.0" type="line"/>
      <point x="1008.0" y="104.0" type="line"/>
      <point x="1008.0" y="1378.0" type="line"/>
      <point x="1170.0" y="1400.0" type="line"/>
      <point x="1170.0" y="1486.0" type="line"/>
      <point x="678.0" y="1486.0" type="line"/>
      <point x="678.0" y="1400.0" type="line"/>
      <point x="847.0" y="1378.0" type="line"/>
      <point x="847.0" y="755.0" type="line"/>
      <point x="796.0" y="725.0"/>
      <point x="702.0" y="694.0"/>
      <point x="577.0" y="694.0" type="curve" smooth="yes"/>
      <point x="323.0" y="694.0"/>
      <point x="323.0" y="862.0"/>
      <point x="323.0" y="1070.0" type="curve" smooth="yes"/>
      <point x="323.0" y="1376.0" type="line"/>
      <point x="488.0" y="1398.0" type="line"/>
      <point x="488.0" y="1486.0" type="line"/>
      <point x="58.0" y="1486.0" type="line"/>
      <point x="58.0" y="1398.0" type="line"/>
      <point x="162.0" y="1376.0" type="line"/>
      <point x="162.0" y="1016.0" type="line" smooth="yes"/>
      <point x="162.0" y="831.0"/>
      <point x="165.0" y="582.0"/>
      <point x="540.0" y="582.0" type="curve" smooth="yes"/>
      <point x="637.0" y="582.0"/>
      <point x="760.0" y="611.0"/>
    </contour>
  </outline>
</glyph>
<glyph name="Sha-cy" format="2">
  <advance width="1892.0"/>
  <unicode hex="0428"/>
  <anchor x="1837.0" y="0.0" name="bottomright"/>
  <outline>
    <contour>
      <point x="58.0" y="0.0" type="line"/>
      <point x="1834.0" y="0.0" type="line"/>
      <point x="1834.0" y="86.0" type="line"/>
      <point x="1666.0" y="106.0" type="line"/>
      <point x="1666.0" y="1378.0" type="line"/>
      <point x="1808.0" y="1400.0" type="line"/>
      <point x="1808.0" y="1486.0" type="line"/>
      <point x="1377.0" y="1486.0" type="line"/>
      <point x="1377.0" y="1400.0" type="line"/>
      <point x="1510.0" y="1378.0" type="line"/>
      <point x="1510.0" y="107.0" type="line"/>
      <point x="1026.0" y="107.0" type="line"/>
      <point x="1026.0" y="1378.0" type="line"/>
      <point x="1161.0" y="1400.0" type="line"/>
      <point x="1161.0" y="1486.0" type="line"/>
      <point x="739.0" y="1486.0" type="line"/>
      <point x="739.0" y="1400.0" type="line"/>
      <point x="870.0" y="1378.0" type="line"/>
      <point x="870.0" y="107.0" type="line"/>
      <point x="386.0" y="107.0" type="line"/>
      <point x="386.0" y="1376.0" type="line"/>
      <point x="551.0" y="1400.0" type="line"/>
      <point x="551.0" y="1486.0" type="line"/>
      <point x="84.0" y="1486.0" type="line"/>
      <point x="84.0" y="1400.0" type="line"/>
      <point x="230.0" y="1378.0" type="line"/>
      <point x="230.0" y="104.0" type="line"/>
      <point x="58.0" y="86.0" type="line"/>
    </contour>
  </outline>
</glyph>
<glyph name="Hardsign-cy" format="2">
  <advance width="1353"/>
  <unicode hex="042A"/>
  <outline>
    <contour>
      <point x="841" y="-8" type="curve" smooth="yes"/>
      <point x="1120" y="-8"/>
      <point x="1328" y="191"/>
      <point x="1328" y="507" type="curve" smooth="yes"/>
      <point x="1328" y="790"/>
      <point x="1162" y="924"/>
      <point x="858" y="924" type="curve" smooth="yes"/>
      <point x="781" y="924"/>
      <point x="709" y="915"/>
      <point x="627" y="904" type="curve"/>
      <point x="627" y="1380" type="line"/>
      <point x="794" y="1404" type="line"/>
      <point x="794" y="1486" type="line"/>
      <point x="69" y="1486" type="line"/>
      <point x="35" y="978" type="line"/>
      <point x="145" y="978" type="line"/>
      <point x="209" y="1384" type="line"/>
      <point x="465" y="1396" type="line"/>
      <point x="465" y="105" type="line"/>
      <point x="311" y="87" type="line"/>
      <point x="311" y="0" type="line"/>
      <point x="554" y="0" type="line" smooth="yes"/>
      <point x="630" y="0"/>
      <point x="782" y="-8"/>
    </contour>
    <contour>
      <point x="796" y="87" type="curve" smooth="yes"/>
      <point x="722" y="87"/>
      <point x="657" y="92"/>
      <point x="627" y="99" type="curve"/>
      <point x="627" y="801" type="line"/>
      <point x="691" y="811"/>
      <point x="748" y="820"/>
      <point x="821" y="820" type="curve" smooth="yes"/>
      <point x="1039" y="820"/>
      <point x="1161" y="735"/>
      <point x="1161" y="474" type="curve" smooth="yes"/>
      <point x="1161" y="216"/>
      <point x="1029" y="87"/>
    </contour>
  </outline>
</glyph>
<glyph name="Ereversed-cy" format="2">
  <advance width="1186.0"/>
  <unicode hex="042D"/>
  <anchor x="543.0" y="1483.0" name="top"/>
  <outline>
    <contour>
      <point x="551.0" y="-22.0" type="curve" smooth="yes"/>
      <point x="920.0" y="-22.0"/>
      <point x="1144.0" y="286.0"/>
      <point x="1144.0" y="746.0" type="curve" smooth="yes"/>
      <point x="1144.0" y="1186.0"/>
      <point x="877.0" y="1502.0"/>
      <point x="531.0" y="1502.0" type="curve" smooth="yes"/>
      <point x="345.0" y="1502.0"/>
      <point x="183.0" y="1450.0"/>
      <point x="105.0" y="1436.0" type="curve"/>
      <point x="117.0" y="1110.0" type="line"/>
      <point x="221.0" y="1110.0" type="line"/>
      <point x="269.0" y="1342.0" type="line"/>
      <point x="315.0" y="1374.0"/>
      <point x="391.0" y="1402.0"/>
      <point x="557.0" y="1402.0" type="curve" smooth="yes"/>
      <point x="782.0" y="1402.0"/>
      <point x="950.0" y="1186.0"/>
      <point x="965.0" y="816.0" type="curve"/>
      <point x="343.0" y="834.0" type="line"/>
      <point x="343.0" y="688.0" type="line"/>
      <point x="965.0" y="706.0" type="line"/>
      <point x="950.0" y="370.0"/>
      <point x="812.0" y="78.0"/>
      <point x="547.0" y="78.0" type="curve" smooth="yes"/>
      <point x="389.0" y="78.0"/>
      <point x="325.0" y="106.0"/>
      <point x="271.0" y="148.0" type="curve"/>
      <point x="187.0" y="346.0" type="line"/>
      <point x="87.0" y="336.0" type="line"/>
      <point x="139.0" y="54.0" type="line"/>
      <point x="243.0" y="48.0"/>
      <point x="319.0" y="-22.0"/>
    </contour>
  </outline>
</glyph>
<glyph name="Iu-cy" format="2">
  <advance width="1773.0"/>
  <unicode hex="042E"/>
  <outline>
    <contour>
      <point x="383.0" y="818.0" type="line"/>
      <point x="383.0" y="1380.0" type="line"/>
      <point x="547.0" y="1401.0" type="line"/>
      <point x="547.0" y="1486.0" type="line"/>
      <point x="58.0" y="1486.0" type="line"/>
      <point x="58.0" y="1401.0" type="line"/>
      <point x="222.0" y="1380.0" type="line"/>
      <point x="222.0" y="103.0" type="line"/>
      <point x="58.0" y="85.0" type="line"/>
      <point x="58.0" y="0.0" type="line"/>
      <point x="547.0" y="0.0" type="line"/>
      <point x="547.0" y="83.0" type="line"/>
      <point x="383.0" y="103.0" type="line"/>
      <point x="383.0" y="716.0" type="line"/>
      <point x="653.0" y="716.0" type="line"/>
      <point x="657.0" y="277.0"/>
      <point x="839.0" y="-29.0"/>
      <point x="1180.0" y="-22.0" type="curve" smooth="yes"/>
      <point x="1493.0" y="-16.0"/>
      <point x="1731.0" y="287.0"/>
      <point x="1731.0" y="756.0" type="curve" smooth="yes"/>
      <point x="1731.0" y="1206.0"/>
      <point x="1549.0" y="1502.0"/>
      <point x="1208.0" y="1502.0" type="curve" smooth="yes"/>
      <point x="914.0" y="1502.0"/>
      <point x="683.0" y="1240.0"/>
      <point x="656.0" y="818.0" type="curve"/>
    </contour>
    <contour>
      <point x="1189.0" y="71.0" type="curve" smooth="yes"/>
      <point x="960.0" y="71.0"/>
      <point x="834.0" y="351.0"/>
      <point x="834.0" y="732.0" type="curve" smooth="yes"/>
      <point x="834.0" y="1186.0"/>
      <point x="977.0" y="1409.0"/>
      <point x="1193.0" y="1409.0" type="curve" smooth="yes"/>
      <point x="1422.0" y="1409.0"/>
      <point x="1550.0" y="1138.0"/>
      <point x="1550.0" y="756.0" type="curve" smooth="yes"/>
      <point x="1550.0" y="302.0"/>
      <point x="1405.0" y="71.0"/>
    </contour>
  </outline>
</glyph>
<glyph name="Ia-cy" format="2">
  <advance width="1248.0"/>
  <unicode hex="042F"/>
  <outline>
    <contour>
      <point x="20.0" y="0.0" type="line"/>
      <point x="229.0" y="0.0" type="line" smooth="yes"/>
      <point x="324.0" y="0.0"/>
      <point x="512.0" y="564.0"/>
      <point x="671.0" y="660.0" type="curve"/>
      <point x="736.0" y="656.0"/>
      <point x="801.0" y="658.0"/>
      <point x="864.0" y="658.0" type="curve"/>
      <point x="864.0" y="104.0" type="line"/>
      <point x="689.0" y="84.0" type="line"/>
      <point x="689.0" y="0.0" type="line"/>
      <point x="1190.0" y="0.0" type="line"/>
      <point x="1190.0" y="84.0" type="line"/>
      <point x="1022.0" y="104.0" type="line"/>
      <point x="1022.0" y="1378.0" type="line"/>
      <point x="1172.0" y="1400.0" type="line"/>
      <point x="1172.0" y="1486.0" type="line"/>
      <point x="924.0" y="1486.0" type="line" smooth="yes"/>
      <point x="841.0" y="1486.0"/>
      <point x="771.0" y="1489.0"/>
      <point x="690.0" y="1489.0" type="curve" smooth="yes"/>
      <point x="440.0" y="1489.0"/>
      <point x="190.0" y="1387.0"/>
      <point x="190.0" y="1049.0" type="curve" smooth="yes"/>
      <point x="190.0" y="855.0"/>
      <point x="316.0" y="699.0"/>
      <point x="545.0" y="668.0" type="curve"/>
      <point x="383.0" y="565.0"/>
      <point x="202.0" y="123.0"/>
      <point x="105.0" y="106.0" type="curve"/>
      <point x="23.0" y="84.0" type="line"/>
    </contour>
    <contour>
      <point x="705.0" y="756.0" type="curve" smooth="yes"/>
      <point x="471.0" y="756.0"/>
      <point x="349.0" y="863.0"/>
      <point x="349.0" y="1057.0" type="curve" smooth="yes"/>
      <point x="349.0" y="1287.0"/>
      <point x="474.0" y="1391.0"/>
      <point x="664.0" y="1391.0" type="curve" smooth="yes"/>
      <point x="731.0" y="1391.0"/>
      <point x="797.0" y="1389.0"/>
      <point x="864.0" y="1388.0" type="curve"/>
      <point x="864.0" y="762.0" type="line"/>
      <point x="838.0" y="758.0"/>
      <point x="786.0" y="756.0"/>
    </contour>
  </outline>
</glyph>
<glyph name="be-cy" format="2">
  <advance width="990.0"/>
  <unicode hex="0431"/>
  <outline>
    <contour>
      <point x="490.0" y="-21.0" type="curve" smooth="yes"/>
      <point x="745.0" y="-21.0"/>
      <point x="936.0" y="224.0"/>
      <point x="936.0" y="587.0" type="curve" smooth="yes"/>
      <point x="936.0" y="897.0"/>
      <point x="797.0" y="1134.0"/>
      <point x="553.0" y="1134.0" type="curve" smooth="yes"/>
      <point x="418.0" y="1134.0"/>
      <point x="289.0" y="1059.0"/>
      <point x="209.0" y="959.0" type="curve"/>
      <point x="234.0" y="1320.0"/>
      <point x="358.0" y="1390.0"/>
      <point x="658.0" y="1435.0" type="curve" smooth="yes"/>
      <point x="749.0" y="1449.0"/>
      <point x="815.0" y="1463.0"/>
      <point x="849.0" y="1495.0" type="curve"/>
      <point x="882.0" y="1723.0" type="line"/>
      <point x="805.0" y="1723.0" type="line"/>
      <point x="778.0" y="1657.0" type="line" smooth="yes"/>
      <point x="758.0" y="1607.0"/>
      <point x="699.0" y="1589.0"/>
      <point x="625.0" y="1575.0" type="curve" smooth="yes"/>
      <point x="230.0" y="1501.0"/>
      <point x="55.0" y="1229.0"/>
      <point x="55.0" y="722.0" type="curve" smooth="yes"/>
      <point x="55.0" y="233.0"/>
      <point x="218.0" y="-21.0"/>
    </contour>
    <contour>
      <point x="506.0" y="80.0" type="curve" smooth="yes"/>
      <point x="280.0" y="80.0"/>
      <point x="230.0" y="415.0"/>
      <point x="230.0" y="692.0" type="curve" smooth="yes"/>
      <point x="230.0" y="751.0"/>
      <point x="234.0" y="807.0"/>
      <point x="239.0" y="863.0" type="curve"/>
      <point x="268.0" y="915.0"/>
      <point x="376.0" y="1016.0"/>
      <point x="505.0" y="1016.0" type="curve" smooth="yes"/>
      <point x="678.0" y="1016.0"/>
      <point x="759.0" y="847.0"/>
      <point x="759.0" y="562.0" type="curve" smooth="yes"/>
      <point x="759.0" y="271.0"/>
      <point x="680.0" y="80.0"/>
    </contour>
  </outline>
</glyph>
<glyph name="ge-cy" format="2">
  <advance width="876.0"/>
  <unicode hex="0433"/>
  <anchor x="239.0" y="0.0" name="bottomright"/>
  <anchor x="481.0" y="556.0" name="center"/>
  <anchor x="481.0" y="1110.0" name="top"/>
  <outline>
    <contour>
      <point x="65.0" y="1110.0" type="line"/>
      <point x="65.0" y="1025.0" type="line"/>
      <point x="201.0" y="995.0" type="line"/>
      <point x="201.0" y="101.0" type="line"/>
      <point x="62.0" y="85.0" type="line"/>
      <point x="62.0" y="0.0" type="line"/>
      <point x="562.0" y="0.0" type="line"/>
      <point x="562.0" y="85.0" type="line"/>
      <point x="357.0" y="101.0" type="line"/>
      <point x="357.0" y="1009.0" type="line"/>
      <point x="694.0" y="1001.0" type="line"/>
      <point x="737.0" y="709.0" type="line"/>
      <point x="834.0" y="709.0" type="line"/>
      <point x="826.0" y="1110.0" type="line"/>
    </contour>
  </outline>
</glyph>
<glyph name="de-cy" format="2">
  <advance width="1090"/>
  <unicode hex="0434"/>
  <outline>
    <contour>
      <point x="74" y="0" type="line"/>
      <point x="884" y="0" type="line"/>
      <point x="884" y="1005" type="line"/>
      <point x="1009" y="1025" type="line"/>
      <point x="1009" y="1110" type="line"/>
      <point x="178" y="1110" type="line"/>
      <point x="178" y="1025" type="line"/>
      <point x="324" y="1005" type="line"/>
      <point x="324" y="542"/>
      <point x="267" y="204"/>
      <point x="140" y="104" type="curve"/>
      <point x="74" y="104" type="line"/>
    </contour>
    <contour>
      <point x="262" y="104" type="line"/>
      <point x="354" y="198"/>
      <point x="422" y="538"/>
      <point x="422" y="890" type="curve" smooth="yes"/>
      <point x="422" y="1006" type="line"/>
      <point x="726" y="1006" type="line"/>
      <point x="726" y="104" type="line"/>
    </contour>
    <component base="lefttooth_part." xOffset="-13"/>
    <component base="righttooth_part." xOffset="670"/>
  </outline>
</glyph>
<glyph name="ze-cy" format="2">
  <advance width="885.0"/>
  <unicode hex="0437"/>
  <anchor x="397.0" y="0.0" name="bottom"/>
  <anchor x="430.0" y="1110.0" name="top"/>
  <outline>
    <contour>
      <point x="417.0" y="-21.0" type="curve" smooth="yes"/>
      <point x="665.0" y="-21.0"/>
      <point x="801.0" y="119.0"/>
      <point x="801.0" y="308.0" type="curve" smooth="yes"/>
      <point x="801.0" y="497.0"/>
      <point x="659.0" y="592.0"/>
      <point x="467.0" y="592.0" type="curve"/>
      <point x="467.0" y="580.0" type="line"/>
      <point x="613.0" y="606.0"/>
      <point x="753.0" y="703.0"/>
      <point x="753.0" y="865.0" type="curve" smooth="yes"/>
      <point x="753.0" y="1027.0"/>
      <point x="616.0" y="1134.0"/>
      <point x="424.0" y="1134.0" type="curve" smooth="yes"/>
      <point x="260.0" y="1134.0"/>
      <point x="211.0" y="1069.0"/>
      <point x="99.0" y="1066.0" type="curve"/>
      <point x="109.0" y="774.0" type="line"/>
      <point x="206.0" y="774.0" type="line"/>
      <point x="227.0" y="975.0" type="line"/>
      <point x="262.0" y="1007.0"/>
      <point x="325.0" y="1042.0"/>
      <point x="406.0" y="1042.0" type="curve" smooth="yes"/>
      <point x="507.0" y="1042.0"/>
      <point x="594.0" y="983.0"/>
      <point x="594.0" y="849.0" type="curve" smooth="yes"/>
      <point x="594.0" y="704.0"/>
      <point x="488.0" y="625.0"/>
      <point x="355.0" y="621.0" type="curve" smooth="yes"/>
      <point x="280.0" y="619.0" type="line"/>
      <point x="280.0" y="513.0" type="line"/>
      <point x="290.0" y="517.0"/>
      <point x="355.0" y="527.0"/>
      <point x="376.0" y="527.0" type="curve" smooth="yes"/>
      <point x="561.0" y="527.0"/>
      <point x="636.0" y="433.0"/>
      <point x="636.0" y="296.0" type="curve" smooth="yes"/>
      <point x="636.0" y="161.0"/>
      <point x="566.0" y="71.0"/>
      <point x="417.0" y="71.0" type="curve" smooth="yes"/>
      <point x="327.0" y="71.0"/>
      <point x="250.0" y="106.0"/>
      <point x="219.0" y="163.0" type="curve"/>
      <point x="179.0" y="312.0" type="line"/>
      <point x="84.0" y="312.0" type="line"/>
      <point x="94.0" y="59.0" type="line"/>
      <point x="163.0" y="24.0"/>
      <point x="277.0" y="-21.0"/>
    </contour>
  </outline>
</glyph>
<glyph name="ii-cy" format="2">
  <advance width="1176.0"/>
  <unicode hex="0438"/>
  <anchor x="1114.0" y="0.0" name="bottomright"/>
  <anchor x="598.0" y="1110.0" name="top"/>
  <outline>
    <contour>
      <point x="62.0" y="0.0" type="line"/>
      <point x="457.0" y="0.0" type="line"/>
      <point x="457.0" y="85.0" type="line"/>
      <point x="347.0" y="101.0" type="line"/>
      <point x="347.0" y="136.0" type="line"/>
      <point x="683.0" y="611.0" type="line"/>
      <point x="830.0" y="831.0" type="line"/>
      <point x="830.0" y="101.0" type="line"/>
      <point x="693.0" y="85.0" type="line"/>
      <point x="693.0" y="0.0" type="line"/>
      <point x="1114.0" y="0.0" type="line"/>
      <point x="1114.0" y="85.0" type="line"/>
      <point x="986.0" y="101.0" type="line"/>
      <point x="986.0" y="995.0" type="line"/>
      <point x="1109.0" y="1025.0" type="line"/>
      <point x="1109.0" y="1110.0" type="line"/>
      <point x="703.0" y="1110.0" type="line"/>
      <point x="703.0" y="1025.0" type="line"/>
      <point x="830.0" y="995.0" type="line"/>
      <point x="830.0" y="967.0" type="line"/>
      <point x="481.0" y="466.0" type="line"/>
      <point x="347.0" y="275.0" type="line"/>
      <point x="347.0" y="995.0" type="line"/>
      <point x="487.0" y="1025.0" type="line"/>
      <point x="487.0" y="1110.0" type="line"/>
      <point x="65.0" y="1110.0" type="line"/>
      <point x="65.0" y="1025.0" type="line"/>
      <point x="191.0" y="995.0" type="line"/>
      <point x="191.0" y="101.0" type="line"/>
      <point x="62.0" y="85.0" type="line"/>
    </contour>
  </outline>
</glyph>
<glyph name="ka-cy" format="2">
  <advance width="1063.0"/>
  <unicode hex="043A"/>
  <anchor x="1164.0" y="0.0" name="bottomright"/>
  <anchor x="474.0" y="573.0" name="center"/>
  <anchor x="558.0" y="1110.0" name="top"/>
  <outline>
    <contour>
      <point x="62.0" y="0.0" type="line"/>
      <point x="500.0" y="0.0" type="line"/>
      <point x="500.0" y="85.0" type="line"/>
      <point x="347.0" y="101.0" type="line"/>
      <point x="347.0" y="534.0" type="line"/>
      <point x="474.0" y="534.0" type="line" smooth="yes"/>
      <point x="621.0" y="534.0"/>
      <point x="752.0" y="0.0"/>
      <point x="880.0" y="0.0" type="curve"/>
      <point x="1047.0" y="0.0" type="line"/>
      <point x="1047.0" y="85.0" type="line"/>
      <point x="982.0" y="105.0" type="line" smooth="yes"/>
      <point x="898.0" y="131.0"/>
      <point x="776.0" y="505.0"/>
      <point x="614.0" y="597.0" type="curve"/>
      <point x="884.0" y="995.0" type="line"/>
      <point x="1007.0" y="1025.0" type="line"/>
      <point x="1007.0" y="1110.0" type="line"/>
      <point x="626.0" y="1110.0" type="line"/>
      <point x="626.0" y="1025.0" type="line"/>
      <point x="756.0" y="995.0" type="line"/>
      <point x="519.0" y="618.0" type="line"/>
      <point x="347.0" y="618.0" type="line"/>
      <point x="347.0" y="995.0" type="line"/>
      <point x="488.0" y="1025.0" type="line"/>
      <point x="488.0" y="1110.0" type="line"/>
      <point x="65.0" y="1110.0" type="line"/>
      <point x="65.0" y="1025.0" type="line"/>
      <point x="194.0" y="995.0" type="line"/>
      <point x="194.0" y="101.0" type="line"/>
      <point x="62.0" y="85.0" type="line"/>
    </contour>
  </outline>
</glyph>
<glyph name="em-cy" format="2">
  <advance width="1427.0"/>
  <unicode hex="043C"/>
  <outline>
    <contour>
      <point x="36.0" y="0.0" type="line"/>
      <point x="414.0" y="0.0" type="line"/>
      <point x="414.0" y="85.0" type="line"/>
      <point x="280.0" y="101.0" type="line"/>
      <point x="329.0" y="677.0" type="line"/>
      <point x="357.0" y="1015.0" type="line"/>
      <point x="450.0" y="681.0" type="line"/>
      <point x="641.0" y="44.0" type="line"/>
      <point x="744.0" y="44.0" type="line"/>
      <point x="940.0" y="681.0" type="line"/>
      <point x="1033.0" y="1015.0" type="line"/>
      <point x="1059.0" y="677.0" type="line"/>
      <point x="1108.0" y="101.0" type="line"/>
      <point x="980.0" y="85.0" type="line"/>
      <point x="980.0" y="0.0" type="line"/>
      <point x="1389.0" y="0.0" type="line"/>
      <point x="1389.0" y="85.0" type="line"/>
      <point x="1261.0" y="101.0" type="line"/>
      <point x="1181.0" y="1005.0" type="line"/>
      <point x="1323.0" y="1025.0" type="line"/>
      <point x="1323.0" y="1110.0" type="line"/>
      <point x="961.0" y="1110.0" type="line"/>
      <point x="783.0" y="511.0" type="line"/>
      <point x="717.0" y="234.0" type="line"/>
      <point x="651.0" y="511.0" type="line"/>
      <point x="471.0" y="1110.0" type="line"/>
      <point x="105.0" y="1110.0" type="line"/>
      <point x="105.0" y="1025.0" type="line"/>
      <point x="251.0" y="1005.0" type="line"/>
      <point x="168.0" y="101.0" type="line"/>
      <point x="36.0" y="85.0" type="line"/>
    </contour>
  </outline>
</glyph>
<glyph name="en-cy" format="2">
  <advance width="1168.0"/>
  <unicode hex="043D"/>
  <note>
Light Display Narrow has shorter serifs proportionally, compared with other masters.
</note>
  <anchor x="1111.0" y="0.0" name="bottomright"/>
  <outline>
    <contour>
      <point x="62.0" y="0.0" type="line"/>
      <point x="493.0" y="0.0" type="line"/>
      <point x="493.0" y="85.0" type="line"/>
      <point x="347.0" y="101.0" type="line"/>
      <point x="347.0" y="524.0" type="line"/>
      <point x="821.0" y="524.0" type="line"/>
      <point x="821.0" y="101.0" type="line"/>
      <point x="675.0" y="85.0" type="line"/>
      <point x="675.0" y="0.0" type="line"/>
      <point x="1106.0" y="0.0" type="line"/>
      <point x="1106.0" y="85.0" type="line"/>
      <point x="976.0" y="101.0" type="line"/>
      <point x="976.0" y="1005.0" type="line"/>
      <point x="1104.0" y="1025.0" type="line"/>
      <point x="1104.0" y="1110.0" type="line"/>
      <point x="679.0" y="1110.0" type="line"/>
      <point x="679.0" y="1025.0" type="line"/>
      <point x="821.0" y="1005.0" type="line"/>
      <point x="821.0" y="628.0" type="line"/>
      <point x="347.0" y="628.0" type="line"/>
      <point x="347.0" y="1005.0" type="line"/>
      <point x="489.0" y="1025.0" type="line"/>
      <point x="489.0" y="1110.0" type="line"/>
      <point x="64.0" y="1110.0" type="line"/>
      <point x="64.0" y="1025.0" type="line"/>
      <point x="192.0" y="1005.0" type="line"/>
      <point x="192.0" y="101.0" type="line"/>
      <point x="62.0" y="85.0" type="line"/>
    </contour>
  </outline>
</glyph>
<glyph name="pe-cy" format="2">
  <advance width="1107"/>
  <unicode hex="043F"/>
  <anchor x="1055" y="0" name="bottomright"/>
  <outline>
    <contour>
      <point x="62" y="0" type="line"/>
      <point x="477" y="0" type="line"/>
      <point x="477" y="85" type="line"/>
      <point x="345" y="103" type="line"/>
      <point x="345" y="1005" type="line"/>
      <point x="763" y="1005" type="line"/>
      <point x="763" y="103" type="line"/>
      <point x="632" y="85" type="line"/>
      <point x="632" y="0" type="line"/>
      <point x="1045" y="0" type="line"/>
      <point x="1045" y="85" type="line"/>
      <point x="919" y="103" type="line"/>
      <point x="919" y="995" type="line"/>
      <point x="1038" y="1025" type="line"/>
      <point x="1038" y="1110" type="line"/>
      <point x="63" y="1110" type="line"/>
      <point x="63" y="1025" type="line"/>
      <point x="189" y="995" type="line"/>
      <point x="189" y="103" type="line"/>
      <point x="62" y="85" type="line"/>
    </contour>
  </outline>
</glyph>
<glyph name="te-cy" format="2">
  <advance width="1014.0"/>
  <unicode hex="0442"/>
  <outline>
    <contour>
      <point x="223.0" y="0.0" type="line"/>
      <point x="790.0" y="0.0" type="line"/>
      <point x="790.0" y="85.0" type="line"/>
      <point x="584.0" y="101.0" type="line"/>
      <point x="584.0" y="1010.0" type="line"/>
      <point x="826.0" y="1004.0" type="line"/>
      <point x="869.0" y="706.0" type="line"/>
      <point x="972.0" y="706.0" type="line"/>
      <point x="964.0" y="1110.0" type="line"/>
      <point x="50.0" y="1110.0" type="line"/>
      <point x="42.0" y="706.0" type="line"/>
      <point x="143.0" y="706.0" type="line"/>
      <point x="187.0" y="1004.0" type="line"/>
      <point x="429.0" y="1010.0" type="line"/>
      <point x="429.0" y="101.0" type="line"/>
      <point x="223.0" y="85.0" type="line"/>
    </contour>
  </outline>
</glyph>
<glyph name="tse-cy" format="2">
  <advance width="1145.0"/>
  <unicode hex="0446"/>
  <outline>
    <contour>
      <point x="62.0" y="0.0" type="line"/>
      <point x="934.0" y="0.0" type="line"/>
      <point x="934.0" y="1005.0" type="line"/>
      <point x="1058.0" y="1025.0" type="line"/>
      <point x="1058.0" y="1110.0" type="line"/>
      <point x="647.0" y="1110.0" type="line"/>
      <point x="647.0" y="1025.0" type="line"/>
      <point x="779.0" y="1005.0" type="line"/>
      <point x="779.0" y="102.0" type="line"/>
      <point x="347.0" y="102.0" type="line"/>
      <point x="347.0" y="1005.0" type="line"/>
      <point x="479.0" y="1025.0" type="line"/>
      <point x="479.0" y="1110.0" type="line"/>
      <point x="66.0" y="1110.0" type="line"/>
      <point x="66.0" y="1025.0" type="line"/>
      <point x="192.0" y="1005.0" type="line"/>
      <point x="192.0" y="101.0" type="line"/>
      <point x="62.0" y="85.0" type="line"/>
    </contour>
    <component base="righttooth_part." xOffset="821.0"/>
  </outline>
</glyph>
<glyph name="che-cy" format="2">
  <advance width="1090"/>
  <unicode hex="0447"/>
  <anchor x="1034" y="0" name="bottomright"/>
  <anchor x="638" y="556" name="center"/>
  <anchor x="512" y="1110" name="top"/>
  <outline>
    <contour>
      <point x="589" y="0" type="line"/>
      <point x="1028" y="0" type="line"/>
      <point x="1028" y="85" type="line"/>
      <point x="898" y="101" type="line"/>
      <point x="898" y="1005" type="line"/>
      <point x="1024" y="1025" type="line"/>
      <point x="1024" y="1110" type="line"/>
      <point x="605" y="1110" type="line"/>
      <point x="605" y="1025" type="line"/>
      <point x="743" y="1005" type="line"/>
      <point x="743" y="572" type="line"/>
      <point x="699" y="542"/>
      <point x="617" y="515"/>
      <point x="524" y="515" type="curve" smooth="yes"/>
      <point x="349" y="515"/>
      <point x="293" y="609"/>
      <point x="293" y="848" type="curve" smooth="yes"/>
      <point x="293" y="1005" type="line"/>
      <point x="417" y="1025" type="line"/>
      <point x="417" y="1110" type="line"/>
      <point x="34" y="1110" type="line"/>
      <point x="34" y="1025" type="line"/>
      <point x="138" y="1005" type="line"/>
      <point x="138" y="818" type="line" smooth="yes"/>
      <point x="138" y="566"/>
      <point x="228" y="409"/>
      <point x="473" y="409" type="curve" smooth="yes"/>
      <point x="599" y="409"/>
      <point x="691" y="450"/>
      <point x="743" y="480" type="curve"/>
      <point x="743" y="101" type="line"/>
      <point x="589" y="85" type="line"/>
    </contour>
  </outline>
</glyph>
<glyph name="yeru-cy" format="2">
  <advance width="1489.0"/>
  <unicode hex="044B"/>
  <anchor x="778.0" y="1110.0" name="top"/>
  <outline>
    <contour>
      <point x="1010.0" y="0.0" type="line"/>
      <point x="1427.0" y="0.0" type="line"/>
      <point x="1427.0" y="85.0" type="line"/>
      <point x="1293.0" y="103.0" type="line"/>
      <point x="1293.0" y="995.0" type="line"/>
      <point x="1418.0" y="1023.0" type="line"/>
      <point x="1418.0" y="1110.0" type="line"/>
      <point x="1002.0" y="1110.0" type="line"/>
      <point x="1002.0" y="1023.0" type="line"/>
      <point x="1136.0" y="995.0" type="line"/>
      <point x="1136.0" y="103.0" type="line"/>
      <point x="1010.0" y="85.0" type="line"/>
    </contour>
    <component base="softsign-cy"/>
  </outline>
</glyph>
<glyph name="softsign-cy" format="2">
  <advance width="942"/>
  <unicode hex="044C"/>
  <outline>
    <contour>
      <point x="62" y="0" type="line"/>
      <point x="235" y="0" type="line" smooth="yes"/>
      <point x="297" y="0"/>
      <point x="461" y="-12"/>
      <point x="524" y="-12" type="curve" smooth="yes"/>
      <point x="756" y="-12"/>
      <point x="906" y="134"/>
      <point x="906" y="353" type="curve" smooth="yes"/>
      <point x="906" y="565"/>
      <point x="762" y="682"/>
      <point x="534" y="682" type="curve" smooth="yes"/>
      <point x="469" y="682"/>
      <point x="397" y="673"/>
      <point x="345" y="662" type="curve"/>
      <point x="345" y="1003" type="line"/>
      <point x="519" y="1023" type="line"/>
      <point x="519" y="1110" type="line"/>
      <point x="66" y="1110" type="line"/>
      <point x="66" y="1023" type="line"/>
      <point x="192" y="1003" type="line"/>
      <point x="192" y="97" type="line"/>
      <point x="62" y="81" type="line"/>
    </contour>
    <contour>
      <point x="494" y="84" type="curve" smooth="yes"/>
      <point x="452" y="84"/>
      <point x="380" y="88"/>
      <point x="345" y="94" type="curve"/>
      <point x="345" y="570" type="line"/>
      <point x="384" y="579"/>
      <point x="444" y="588"/>
      <point x="500" y="588" type="curve" smooth="yes"/>
      <point x="646" y="588"/>
      <point x="745" y="525"/>
      <point x="745" y="343" type="curve" smooth="yes"/>
      <point x="745" y="179"/>
      <point x="663" y="84"/>
    </contour>
  </outline>
</glyph>
<glyph name="ereversed-cy" format="2">
  <advance width="900.0"/>
  <unicode hex="044D"/>
  <anchor x="456.0" y="1110.0" name="top"/>
  <outline>
    <contour>
      <point x="377.0" y="-21.0" type="curve" smooth="yes"/>
      <point x="656.0" y="-21.0"/>
      <point x="846.0" y="227.0"/>
      <point x="846.0" y="591.0" type="curve" smooth="yes"/>
      <point x="846.0" y="924.0"/>
      <point x="689.0" y="1140.0"/>
      <point x="384.0" y="1140.0" type="curve" smooth="yes"/>
      <point x="293.0" y="1140.0"/>
      <point x="183.0" y="1120.0"/>
      <point x="84.0" y="1070.0" type="curve"/>
      <point x="95.0" y="796.0" type="line"/>
      <point x="192.0" y="796.0" type="line"/>
      <point x="227.0" y="1027.0" type="line"/>
      <point x="260.0" y="1038.0"/>
      <point x="319.0" y="1050.0"/>
      <point x="370.0" y="1050.0" type="curve" smooth="yes"/>
      <point x="574.0" y="1050.0"/>
      <point x="685.0" y="855.0"/>
      <point x="688.0" y="584.0" type="curve"/>
      <point x="689.0" y="532.0" type="line"/>
      <point x="682.0" y="233.0"/>
      <point x="567.0" y="75.0"/>
      <point x="390.0" y="75.0" type="curve" smooth="yes"/>
      <point x="280.0" y="75.0"/>
      <point x="226.0" y="133.0"/>
      <point x="220.0" y="163.0" type="curve" smooth="yes"/>
      <point x="186.0" y="338.0" type="line"/>
      <point x="93.0" y="338.0" type="line"/>
      <point x="89.0" y="54.0" type="line"/>
      <point x="166.0" y="14.0"/>
      <point x="262.0" y="-21.0"/>
    </contour>
    <contour>
      <point x="304.0" y="494.0" type="line"/>
      <point x="702.0" y="510.0" type="line"/>
      <point x="702.0" y="603.0" type="line"/>
      <point x="304.0" y="624.0" type="line"/>
    </contour>
  </outline>
</glyph>
<glyph name="iu-cy" format="2">
  <advance width="1554.0"/>
  <unicode hex="044E"/>
  <outline>
    <contour>
      <point x="1053.0" y="-22.0" type="curve" smooth="yes"/>
      <point x="1276.0" y="-22.0"/>
      <point x="1500.0" y="185.0"/>
      <point x="1500.0" y="556.0" type="curve" smooth="yes"/>
      <point x="1500.0" y="876.0"/>
      <point x="1382.0" y="1140.0"/>
      <point x="1071.0" y="1140.0" type="curve" smooth="yes"/>
      <point x="862.0" y="1140.0"/>
      <point x="652.0" y="957.0"/>
      <point x="628.0" y="626.0" type="curve"/>
      <point x="347.0" y="626.0" type="line"/>
      <point x="347.0" y="1005.0" type="line"/>
      <point x="489.0" y="1025.0" type="line"/>
      <point x="489.0" y="1110.0" type="line"/>
      <point x="64.0" y="1110.0" type="line"/>
      <point x="64.0" y="1025.0" type="line"/>
      <point x="192.0" y="1005.0" type="line"/>
      <point x="192.0" y="101.0" type="line"/>
      <point x="62.0" y="85.0" type="line"/>
      <point x="62.0" y="0.0" type="line"/>
      <point x="493.0" y="0.0" type="line"/>
      <point x="493.0" y="85.0" type="line"/>
      <point x="347.0" y="101.0" type="line"/>
      <point x="347.0" y="526.0" type="line"/>
      <point x="627.0" y="526.0" type="line"/>
      <point x="635.0" y="222.0"/>
      <point x="755.0" y="-22.0"/>
    </contour>
    <contour>
      <point x="1062.0" y="82.0" type="curve" smooth="yes"/>
      <point x="873.0" y="82.0"/>
      <point x="799.0" y="296.0"/>
      <point x="799.0" y="574.0" type="curve" smooth="yes"/>
      <point x="799.0" y="893.0"/>
      <point x="898.0" y="1036.0"/>
      <point x="1064.0" y="1036.0" type="curve" smooth="yes"/>
      <point x="1254.0" y="1036.0"/>
      <point x="1325.0" y="818.0"/>
      <point x="1325.0" y="544.0" type="curve" smooth="yes"/>
      <point x="1325.0" y="227.0"/>
      <point x="1226.0" y="82.0"/>
    </contour>
  </outline>
</glyph>
<glyph name="ia-cy" format="2">
  <advance width="1008"/>
  <unicode hex="044F"/>
  <outline>
    <contour>
      <point x="18" y="0" type="line"/>
      <point x="193" y="0" type="line" smooth="yes"/>
      <point x="293" y="0"/>
      <point x="360" y="383"/>
      <point x="467" y="476" type="curve"/>
      <point x="663" y="476" type="line"/>
      <point x="663" y="101" type="line"/>
      <point x="529" y="85" type="line"/>
      <point x="529" y="0" type="line"/>
      <point x="946" y="0" type="line"/>
      <point x="946" y="85" type="line"/>
      <point x="816" y="101" type="line"/>
      <point x="816" y="1003" type="line"/>
      <point x="940" y="1023" type="line"/>
      <point x="940" y="1110" type="line"/>
      <point x="760" y="1110" type="line" smooth="yes"/>
      <point x="702" y="1110"/>
      <point x="632" y="1119"/>
      <point x="532" y="1119" type="curve" smooth="yes"/>
      <point x="279" y="1119"/>
      <point x="110" y="991"/>
      <point x="110" y="783" type="curve" smooth="yes"/>
      <point x="110" y="615"/>
      <point x="217" y="511"/>
      <point x="382" y="482" type="curve"/>
      <point x="382" y="503" type="line"/>
      <point x="236" y="445"/>
      <point x="215" y="147"/>
      <point x="83" y="105" type="curve" smooth="yes"/>
      <point x="20" y="85" type="line"/>
    </contour>
    <contour>
      <point x="514" y="566" type="curve" smooth="yes"/>
      <point x="359" y="566"/>
      <point x="271" y="646"/>
      <point x="271" y="787" type="curve" smooth="yes"/>
      <point x="271" y="957"/>
      <point x="391" y="1025"/>
      <point x="530" y="1025" type="curve" smooth="yes"/>
      <point x="592" y="1025"/>
      <point x="633" y="1022"/>
      <point x="663" y="1017" type="curve"/>
      <point x="663" y="574" type="line"/>
      <point x="634" y="570"/>
      <point x="564" y="566"/>
    </contour>
  </outline>
</glyph>
<glyph name="dje-cy" format="2">
  <advance width="1071.0"/>
  <unicode hex="0452"/>
  <outline>
    <contour>
      <point x="706.0" y="-490.0" type="curve"/>
      <point x="898.0" y="-476.0"/>
      <point x="966.0" y="-310.0"/>
      <point x="966.0" y="22.0" type="curve" smooth="yes"/>
      <point x="966.0" y="596.0" type="line" smooth="yes"/>
      <point x="966.0" y="924.0"/>
      <point x="912.0" y="1060.0"/>
      <point x="700.0" y="1060.0" type="curve" smooth="yes"/>
      <point x="544.0" y="1060.0"/>
      <point x="410.0" y="958.0"/>
      <point x="342.0" y="896.0" type="curve"/>
      <point x="346.0" y="1084.0" type="line"/>
      <point x="346.0" y="1618.0" type="line"/>
      <point x="308.0" y="1644.0" type="line"/>
      <point x="306.0" y="1644.0" type="line"/>
      <point x="35.0" y="1610.0" type="line"/>
      <point x="35.0" y="1536.0" type="line"/>
      <point x="186.0" y="1520.0" type="line"/>
      <point x="186.0" y="102.0" type="line"/>
      <point x="72.0" y="86.0" type="line"/>
      <point x="72.0" y="0.0" type="line"/>
      <point x="466.0" y="0.0" type="line"/>
      <point x="466.0" y="86.0" type="line"/>
      <point x="346.0" y="102.0" type="line"/>
      <point x="346.0" y="802.0" type="line"/>
      <point x="434.0" y="868.0"/>
      <point x="518.0" y="934.0"/>
      <point x="632.0" y="934.0" type="curve" smooth="yes"/>
      <point x="786.0" y="934.0"/>
      <point x="804.0" y="830.0"/>
      <point x="804.0" y="596.0" type="curve" smooth="yes"/>
      <point x="804.0" y="44.0" type="line" smooth="yes"/>
      <point x="804.0" y="-176.0"/>
      <point x="813.0" y="-348.0"/>
      <point x="694.0" y="-382.0" type="curve" smooth="yes"/>
      <point x="666.0" y="-390.0"/>
      <point x="635.0" y="-402.0"/>
      <point x="615.0" y="-396.0" type="curve"/>
      <point x="623.0" y="-482.0" type="line"/>
      <point x="635.0" y="-490.0"/>
      <point x="690.0" y="-490.0"/>
    </contour>
    <contour>
      <point x="42.0" y="1360.0" type="line"/>
      <point x="42.0" y="1264.0" type="line"/>
      <point x="631.0" y="1264.0" type="line"/>
      <point x="631.0" y="1360.0" type="line"/>
    </contour>
  </outline>
</glyph>
<glyph name="lje-cy" format="2">
  <advance width="1435.0"/>
  <unicode hex="0459"/>
  <outline>
    <contour>
      <point x="102.0" y="-12.0" type="curve" smooth="yes"/>
      <point x="197.0" y="-12.0"/>
      <point x="256.0" y="50.0"/>
      <point x="291.0" y="128.0" type="curve" smooth="yes"/>
      <point x="339.0" y="235.0"/>
      <point x="391.0" y="467.0"/>
      <point x="391.0" y="908.0" type="curve" smooth="yes"/>
      <point x="391.0" y="1006.0" type="line"/>
      <point x="685.0" y="1006.0" type="line"/>
      <point x="685.0" y="101.0" type="line"/>
      <point x="551.0" y="85.0" type="line"/>
      <point x="551.0" y="0.0" type="line"/>
      <point x="728.0" y="0.0" type="line" smooth="yes"/>
      <point x="790.0" y="0.0"/>
      <point x="954.0" y="-12.0"/>
      <point x="1017.0" y="-12.0" type="curve" smooth="yes"/>
      <point x="1249.0" y="-12.0"/>
      <point x="1399.0" y="134.0"/>
      <point x="1399.0" y="353.0" type="curve" smooth="yes"/>
      <point x="1399.0" y="565.0"/>
      <point x="1255.0" y="682.0"/>
      <point x="1027.0" y="682.0" type="curve" smooth="yes"/>
      <point x="962.0" y="682.0"/>
      <point x="890.0" y="673.0"/>
      <point x="838.0" y="662.0" type="curve"/>
      <point x="838.0" y="1005.0" type="line"/>
      <point x="966.0" y="1025.0" type="line"/>
      <point x="966.0" y="1110.0" type="line"/>
      <point x="148.0" y="1110.0" type="line"/>
      <point x="148.0" y="1025.0" type="line"/>
      <point x="294.0" y="1005.0" type="line"/>
      <point x="292.0" y="479.0"/>
      <point x="240.0" y="148.0"/>
      <point x="131.0" y="148.0" type="curve" smooth="yes"/>
      <point x="92.0" y="148.0"/>
      <point x="48.0" y="153.0"/>
      <point x="18.0" y="159.0" type="curve"/>
      <point x="26.0" y="0.0" type="line"/>
      <point x="42.0" y="-5.0"/>
      <point x="70.0" y="-12.0"/>
    </contour>
    <contour>
      <point x="987.0" y="84.0" type="curve" smooth="yes"/>
      <point x="945.0" y="84.0"/>
      <point x="873.0" y="88.0"/>
      <point x="838.0" y="94.0" type="curve"/>
      <point x="838.0" y="570.0" type="line"/>
      <point x="877.0" y="579.0"/>
      <point x="937.0" y="588.0"/>
      <point x="993.0" y="588.0" type="curve" smooth="yes"/>
      <point x="1139.0" y="588.0"/>
      <point x="1238.0" y="525.0"/>
      <point x="1238.0" y="343.0" type="curve" smooth="yes"/>
      <point x="1238.0" y="179.0"/>
      <point x="1156.0" y="84.0"/>
    </contour>
  </outline>
</glyph>
<glyph name="nje-cy" format="2">
  <advance width="1573.0"/>
  <unicode hex="045A"/>
  <outline>
    <contour>
      <point x="1155.0" y="-12.0" type="curve" smooth="yes"/>
      <point x="1387.0" y="-12.0"/>
      <point x="1537.0" y="134.0"/>
      <point x="1537.0" y="353.0" type="curve" smooth="yes"/>
      <point x="1537.0" y="565.0"/>
      <point x="1393.0" y="682.0"/>
      <point x="1165.0" y="682.0" type="curve" smooth="yes"/>
      <point x="1100.0" y="682.0"/>
      <point x="1028.0" y="673.0"/>
      <point x="976.0" y="662.0" type="curve"/>
      <point x="976.0" y="1005.0" type="line"/>
      <point x="1104.0" y="1025.0" type="line"/>
      <point x="1104.0" y="1110.0" type="line"/>
      <point x="679.0" y="1110.0" type="line"/>
      <point x="679.0" y="1025.0" type="line"/>
      <point x="821.0" y="1005.0" type="line"/>
      <point x="821.0" y="626.0" type="line"/>
      <point x="347.0" y="626.0" type="line"/>
      <point x="347.0" y="1005.0" type="line"/>
      <point x="489.0" y="1025.0" type="line"/>
      <point x="489.0" y="1110.0" type="line"/>
      <point x="64.0" y="1110.0" type="line"/>
      <point x="64.0" y="1025.0" type="line"/>
      <point x="192.0" y="1005.0" type="line"/>
      <point x="192.0" y="101.0" type="line"/>
      <point x="62.0" y="85.0" type="line"/>
      <point x="62.0" y="0.0" type="line"/>
      <point x="493.0" y="0.0" type="line"/>
      <point x="493.0" y="85.0" type="line"/>
      <point x="347.0" y="101.0" type="line"/>
      <point x="347.0" y="526.0" type="line"/>
      <point x="821.0" y="526.0" type="line"/>
      <point x="821.0" y="101.0" type="line"/>
      <point x="675.0" y="85.0" type="line"/>
      <point x="675.0" y="0.0" type="line"/>
      <point x="866.0" y="0.0" type="line" smooth="yes"/>
      <point x="928.0" y="0.0"/>
      <point x="1092.0" y="-12.0"/>
    </contour>
    <contour>
      <point x="1125.0" y="84.0" type="curve" smooth="yes"/>
      <point x="1083.0" y="84.0"/>
      <point x="1011.0" y="88.0"/>
      <point x="976.0" y="94.0" type="curve"/>
      <point x="976.0" y="570.0" type="line"/>
      <point x="1015.0" y="579.0"/>
      <point x="1075.0" y="588.0"/>
      <point x="1131.0" y="588.0" type="curve" smooth="yes"/>
      <point x="1277.0" y="588.0"/>
      <point x="1376.0" y="525.0"/>
      <point x="1376.0" y="343.0" type="curve" smooth="yes"/>
      <point x="1376.0" y="179.0"/>
      <point x="1294.0" y="84.0"/>
    </contour>
  </outline>
</glyph>
<glyph name="Yat-cy" format="2">
  <advance width="1320"/>
  <unicode hex="0462"/>
  <outline>
    <contour>
      <point x="808" y="-8" type="curve" smooth="yes"/>
      <point x="1087" y="-8"/>
      <point x="1295" y="169"/>
      <point x="1295" y="450" type="curve" smooth="yes"/>
      <point x="1295" y="694"/>
      <point x="1129" y="810"/>
      <point x="825" y="810" type="curve" smooth="yes"/>
      <point x="748" y="810"/>
      <point x="676" y="801"/>
      <point x="594" y="790" type="curve"/>
      <point x="594" y="1196" type="line"/>
      <point x="866" y="1184" type="line"/>
      <point x="930" y="1014" type="line"/>
      <point x="1040" y="1014" type="line"/>
      <point x="1006" y="1286" type="line"/>
      <point x="594" y="1286" type="line"/>
      <point x="594" y="1480" type="line"/>
      <point x="752" y="1504" type="line"/>
      <point x="752" y="1587" type="line"/>
      <point x="277" y="1587" type="line"/>
      <point x="277" y="1504" type="line"/>
      <point x="436" y="1480" type="line"/>
      <point x="436" y="1286" type="line"/>
      <point x="24" y="1286" type="line"/>
      <point x="-10" y="1014" type="line"/>
      <point x="100" y="1014" type="line"/>
      <point x="164" y="1184" type="line"/>
      <point x="436" y="1196" type="line"/>
      <point x="436" y="105" type="line"/>
      <point x="282" y="87" type="line"/>
      <point x="282" y="0" type="line"/>
      <point x="521" y="0" type="line" smooth="yes"/>
      <point x="597" y="0"/>
      <point x="749" y="-8"/>
    </contour>
    <contour>
      <point x="763" y="87" type="curve" smooth="yes"/>
      <point x="689" y="87"/>
      <point x="624" y="92"/>
      <point x="594" y="99" type="curve"/>
      <point x="594" y="687" type="line"/>
      <point x="658" y="697"/>
      <point x="715" y="706"/>
      <point x="788" y="706" type="curve" smooth="yes"/>
      <point x="1006" y="706"/>
      <point x="1128" y="635"/>
      <point x="1128" y="417" type="curve" smooth="yes"/>
      <point x="1128" y="197"/>
      <point x="996" y="87"/>
    </contour>
  </outline>
</glyph>
<glyph name="yat-cy" format="2">
  <advance width="1173.0"/>
  <unicode hex="0463"/>
  <outline>
    <contour>
      <point x="755.0" y="-12.0" type="curve" smooth="yes"/>
      <point x="987.0" y="-12.0"/>
      <point x="1137.0" y="134.0"/>
      <point x="1137.0" y="353.0" type="curve" smooth="yes"/>
      <point x="1137.0" y="565.0"/>
      <point x="993.0" y="682.0"/>
      <point x="765.0" y="682.0" type="curve" smooth="yes"/>
      <point x="700.0" y="682.0"/>
      <point x="628.0" y="673.0"/>
      <point x="576.0" y="662.0" type="curve"/>
      <point x="576.0" y="1022.0" type="line"/>
      <point x="828.0" y="1016.0" type="line"/>
      <point x="871.0" y="802.0" type="line"/>
      <point x="974.0" y="802.0" type="line"/>
      <point x="966.0" y="1122.0" type="line"/>
      <point x="576.0" y="1122.0" type="line"/>
      <point x="576.0" y="1612.0" type="line"/>
      <point x="541.0" y="1638.0" type="line"/>
      <point x="539.0" y="1638.0" type="line"/>
      <point x="280.0" y="1604.0" type="line"/>
      <point x="280.0" y="1532.0" type="line"/>
      <point x="423.0" y="1514.0" type="line"/>
      <point x="423.0" y="1122.0" type="line"/>
      <point x="50.0" y="1122.0" type="line"/>
      <point x="42.0" y="802.0" type="line"/>
      <point x="143.0" y="802.0" type="line"/>
      <point x="187.0" y="1016.0" type="line"/>
      <point x="423.0" y="1022.0" type="line"/>
      <point x="423.0" y="101.0" type="line"/>
      <point x="217.0" y="85.0" type="line"/>
      <point x="217.0" y="0.0" type="line"/>
      <point x="468.0" y="0.0" type="line" smooth="yes"/>
      <point x="530.0" y="0.0"/>
      <point x="692.0" y="-12.0"/>
    </contour>
    <contour>
      <point x="725.0" y="84.0" type="curve" smooth="yes"/>
      <point x="683.0" y="84.0"/>
      <point x="611.0" y="88.0"/>
      <point x="576.0" y="94.0" type="curve"/>
      <point x="576.0" y="570.0" type="line"/>
      <point x="615.0" y="579.0"/>
      <point x="675.0" y="588.0"/>
      <point x="731.0" y="588.0" type="curve" smooth="yes"/>
      <point x="877.0" y="588.0"/>
      <point x="976.0" y="525.0"/>
      <point x="976.0" y="343.0" type="curve" smooth="yes"/>
      <point x="976.0" y="179.0"/>
      <point x="894.0" y="84.0"/>
    </contour>
  </outline>
</glyph>
<glyph name="fita-cy" format="2">
  <advance width="992"/>
  <unicode hex="0473"/>
  <anchor x="496" y="0" name="bottom"/>
  <anchor x="496" y="557" name="center"/>
  <anchor x="541" y="10" name="ogonek"/>
  <anchor x="496" y="1110" name="top"/>
  <anchor x="670" y="1110" name="topright"/>
  <outline>
    <contour>
      <point x="225" y="506" type="line"/>
      <point x="259" y="526"/>
      <point x="287" y="536"/>
      <point x="339" y="536" type="curve" smooth="yes"/>
      <point x="453" y="536"/>
      <point x="508" y="426"/>
      <point x="650" y="426" type="curve" smooth="yes"/>
      <point x="702" y="426"/>
      <point x="734" y="442"/>
      <point x="768" y="467" type="curve"/>
      <point x="766" y="575" type="line"/>
      <point x="734" y="556"/>
      <point x="710" y="546"/>
      <point x="664" y="546" type="curve" smooth="yes"/>
      <point x="556" y="546"/>
      <point x="499" y="656"/>
      <point x="365" y="656" type="curve" smooth="yes"/>
      <point x="307" y="656"/>
      <point x="269" y="636"/>
      <point x="225" y="612" type="curve"/>
    </contour>
    <component base="o"/>
  </outline>
</glyph>
<glyph name="Izhitsa-cy" format="2">
  <advance width="1256"/>
  <unicode hex="0474"/>
  <outline>
    <contour>
      <point x="524" y="-16" type="line"/>
      <point x="653" y="-16" type="line"/>
      <point x="993" y="1130" type="line" smooth="yes"/>
      <point x="1053" y="1332"/>
      <point x="1147" y="1360"/>
      <point x="1231" y="1360" type="curve" smooth="yes"/>
      <point x="1241" y="1360"/>
      <point x="1251" y="1360"/>
      <point x="1251" y="1358" type="curve"/>
      <point x="1251" y="1476" type="line"/>
      <point x="1241" y="1480"/>
      <point x="1217" y="1488"/>
      <point x="1167" y="1488" type="curve" smooth="yes"/>
      <point x="1069" y="1488"/>
      <point x="956" y="1432"/>
      <point x="904" y="1242" type="curve" smooth="yes"/>
      <point x="676" y="412" type="line"/>
      <point x="614" y="141" type="line"/>
      <point x="545" y="410" type="line"/>
      <point x="257" y="1378" type="line"/>
      <point x="413" y="1400" type="line"/>
      <point x="413" y="1486" type="line"/>
      <point x="-22" y="1486" type="line"/>
      <point x="-22" y="1400" type="line"/>
      <point x="84" y="1378" type="line"/>
    </contour>
  </outline>
</glyph>
<glyph name="izhitsa-cy" format="2">
  <advance width="988.0"/>
  <unicode hex="0475"/>
  <outline>
    <contour>
      <point x="414.0" y="-16.0" type="line"/>
      <point x="543.0" y="-16.0" type="line"/>
      <point x="822.0" y="805.0" type="line" smooth="yes"/>
      <point x="862.0" y="922.0"/>
      <point x="891.0" y="969.0"/>
      <point x="921.0" y="987.0" type="curve" smooth="yes"/>
      <point x="943.0" y="1000.0"/>
      <point x="967.0" y="1004.0"/>
      <point x="988.0" y="1004.0" type="curve"/>
      <point x="988.0" y="1108.0" type="line"/>
      <point x="976.0" y="1114.0"/>
      <point x="955.0" y="1120.0"/>
      <point x="924.0" y="1120.0" type="curve" smooth="yes"/>
      <point x="825.0" y="1120.0"/>
      <point x="776.0" y="1061.0"/>
      <point x="711.0" y="852.0" type="curve" smooth="yes"/>
      <point x="569.0" y="397.0" type="line"/>
      <point x="501.0" y="121.0" type="line"/>
      <point x="422.0" y="407.0" type="line"/>
      <point x="253.0" y="1003.0" type="line"/>
      <point x="377.0" y="1029.0" type="line"/>
      <point x="377.0" y="1110.0" type="line"/>
      <point x="-2.0" y="1110.0" type="line"/>
      <point x="-2.0" y="1029.0" type="line"/>
      <point x="77.0" y="1003.0" type="line"/>
    </contour>
  </outline>
</glyph>
<glyph name="semisoftsign-cy" format="2">
  <advance width="868.0"/>
  <unicode hex="048D"/>
  <outline>
    <contour>
      <point x="479.0" y="-12.0" type="curve" smooth="yes"/>
      <point x="683.0" y="-12.0"/>
      <point x="832.0" y="118.0"/>
      <point x="832.0" y="344.0" type="curve" smooth="yes"/>
      <point x="832.0" y="558.0"/>
      <point x="723.0" y="668.0"/>
      <point x="459.0" y="668.0" type="curve" smooth="yes"/>
      <point x="393.0" y="668.0"/>
      <point x="324.0" y="660.0"/>
      <point x="286.0" y="650.0" type="curve"/>
      <point x="286.0" y="1612.0" type="line"/>
      <point x="248.0" y="1638.0" type="line"/>
      <point x="244.0" y="1638.0" type="line"/>
      <point x="-25.0" y="1604.0" type="line"/>
      <point x="-25.0" y="1530.0" type="line"/>
      <point x="131.0" y="1512.0" type="line"/>
      <point x="131.0" y="100.0" type="line"/>
      <point x="-11.0" y="82.0" type="line"/>
      <point x="-11.0" y="0.0" type="line"/>
      <point x="194.0" y="0.0" type="line" smooth="yes"/>
      <point x="272.0" y="0.0"/>
      <point x="425.0" y="-12.0"/>
    </contour>
    <contour>
      <point x="443.0" y="84.0" type="curve" smooth="yes"/>
      <point x="361.0" y="84.0"/>
      <point x="324.0" y="84.0"/>
      <point x="286.0" y="90.0" type="curve"/>
      <point x="286.0" y="552.0" type="line"/>
      <point x="320.0" y="560.0"/>
      <point x="365.0" y="570.0"/>
      <point x="417.0" y="570.0" type="curve" smooth="yes"/>
      <point x="579.0" y="570.0"/>
      <point x="671.0" y="524.0"/>
      <point x="671.0" y="340.0" type="curve" smooth="yes"/>
      <point x="671.0" y="168.0"/>
      <point x="591.0" y="84.0"/>
    </contour>
    <contour>
      <point x="-18.0" y="1016.0" type="line"/>
      <point x="561.0" y="1016.0" type="line"/>
      <point x="561.0" y="1110.0" type="line"/>
      <point x="-18.0" y="1110.0" type="line"/>
    </contour>
  </outline>
</glyph>
<glyph name="ertick-cy" format="2">
  <advance width="1066.0"/>
  <unicode hex="048F"/>
  <anchor x="590.0" y="1110.0" name="top"/>
  <outline>
    <contour>
      <point x="674.0" y="76.0" type="line"/>
      <point x="744.0" y="141.0" type="line"/>
      <point x="583.0" y="320.0" type="line"/>
      <point x="510.0" y="255.0" type="line"/>
    </contour>
    <contour>
      <point x="854.0" y="-122.0" type="line"/>
      <point x="927.0" y="-57.0" type="line"/>
      <point x="773.0" y="112.0" type="line"/>
      <point x="703.0" y="47.0" type="line"/>
    </contour>
    <component base="p"/>
  </outline>
</glyph>
<glyph name="Gheupturn-cy" format="2">
  <advance width="997.0"/>
  <unicode hex="0490"/>
  <outline>
    <contour>
      <point x="58.0" y="0.0" type="line"/>
      <point x="713.0" y="0.0" type="line"/>
      <point x="713.0" y="84.0" type="line"/>
      <point x="419.0" y="106.0" type="line"/>
      <point x="419.0" y="1396.0" type="line"/>
      <point x="954.0" y="1383.0" type="line"/>
      <point x="974.0" y="1836.0" type="line"/>
      <point x="856.0" y="1836.0" type="line"/>
      <point x="802.0" y="1486.0" type="line"/>
      <point x="66.0" y="1486.0" type="line"/>
      <point x="66.0" y="1402.0" type="line"/>
      <point x="254.0" y="1376.0" type="line"/>
      <point x="254.0" y="106.0" type="line"/>
      <point x="58.0" y="84.0" type="line"/>
    </contour>
  </outline>
</glyph>
<glyph name="gheupturn-cy" format="2">
  <advance width="852.0"/>
  <unicode hex="0491"/>
  <outline>
    <contour>
      <point x="62.0" y="0.0" type="line"/>
      <point x="562.0" y="0.0" type="line"/>
      <point x="562.0" y="85.0" type="line"/>
      <point x="356.0" y="103.0" type="line"/>
      <point x="356.0" y="1005.0" type="line"/>
      <point x="795.0" y="1005.0" type="line"/>
      <point x="796.0" y="1428.0" type="line"/>
      <point x="702.0" y="1428.0" type="line"/>
      <point x="665.0" y="1110.0" type="line"/>
      <point x="65.0" y="1110.0" type="line"/>
      <point x="65.0" y="1025.0" type="line"/>
      <point x="200.0" y="995.0" type="line"/>
      <point x="200.0" y="103.0" type="line"/>
      <point x="62.0" y="85.0" type="line"/>
    </contour>
  </outline>
</glyph>
<glyph name="Ghemiddlehook-cy" format="2">
  <advance width="1147.0"/>
  <unicode hex="0494"/>
  <outline>
    <contour>
      <point x="695.0" y="-394.0" type="curve" smooth="yes"/>
      <point x="960.0" y="-394.0"/>
      <point x="1093.0" y="-78.0"/>
      <point x="1093.0" y="350.0" type="curve" smooth="yes"/>
      <point x="1093.0" y="630.0"/>
      <point x="1026.0" y="846.0"/>
      <point x="662.0" y="850.0" type="curve" smooth="yes"/>
      <point x="573.0" y="851.0"/>
      <point x="476.0" y="828.0"/>
      <point x="418.0" y="793.0" type="curve"/>
      <point x="418.0" y="1396.0" type="line"/>
      <point x="848.0" y="1384.0" type="line"/>
      <point x="900.0" y="984.0" type="line"/>
      <point x="1006.0" y="984.0" type="line"/>
      <point x="998.0" y="1486.0" type="line"/>
      <point x="66.0" y="1486.0" type="line"/>
      <point x="66.0" y="1402.0" type="line"/>
      <point x="254.0" y="1376.0" type="line"/>
      <point x="254.0" y="106.0" type="line"/>
      <point x="58.0" y="84.0" type="line"/>
      <point x="58.0" y="0.0" type="line"/>
      <point x="644.0" y="0.0" type="line"/>
      <point x="644.0" y="84.0" type="line"/>
      <point x="418.0" y="106.0" type="line"/>
      <point x="418.0" y="696.0" type="line"/>
      <point x="475.0" y="718.0"/>
      <point x="522.0" y="736.0"/>
      <point x="594.0" y="736.0" type="curve" smooth="yes"/>
      <point x="845.0" y="736.0"/>
      <point x="927.0" y="606.0"/>
      <point x="927.0" y="334.0" type="curve" smooth="yes"/>
      <point x="927.0" y="-94.0"/>
      <point x="850.0" y="-278.0"/>
      <point x="663.0" y="-278.0" type="curve" smooth="yes"/>
      <point x="631.0" y="-278.0"/>
      <point x="599.0" y="-276.0"/>
      <point x="581.0" y="-272.0" type="curve"/>
      <point x="581.0" y="-380.0" type="line"/>
      <point x="603.0" y="-390.0"/>
      <point x="663.0" y="-394.0"/>
    </contour>
  </outline>
</glyph>
<glyph name="kaverticalstroke-cy" format="2">
  <advance width="1123.0"/>
  <unicode hex="049D"/>
  <outline>
    <contour>
      <point x="62.0" y="0.0" type="line"/>
      <point x="487.0" y="0.0" type="line"/>
      <point x="487.0" y="85.0" type="line"/>
      <point x="347.0" y="101.0" type="line"/>
      <point x="347.0" y="533.0" type="line"/>
      <point x="533.0" y="533.0" type="line" smooth="yes"/>
      <point x="684.0" y="533.0"/>
      <point x="814.0" y="0.0"/>
      <point x="969.0" y="0.0" type="curve"/>
      <point x="1109.0" y="0.0" type="line"/>
      <point x="1109.0" y="85.0" type="line"/>
      <point x="1044.0" y="105.0" type="line" smooth="yes"/>
      <point x="956.0" y="132.0"/>
      <point x="850.0" y="519.0"/>
      <point x="676.0" y="597.0" type="curve"/>
      <point x="947.0" y="1005.0" type="line"/>
      <point x="1071.0" y="1025.0" type="line"/>
      <point x="1071.0" y="1110.0" type="line"/>
      <point x="702.0" y="1110.0" type="line"/>
      <point x="702.0" y="1025.0" type="line"/>
      <point x="832.0" y="1005.0" type="line"/>
      <point x="576.0" y="617.0" type="line"/>
      <point x="347.0" y="617.0" type="line"/>
      <point x="347.0" y="1005.0" type="line"/>
      <point x="485.0" y="1025.0" type="line"/>
      <point x="485.0" y="1110.0" type="line"/>
      <point x="64.0" y="1110.0" type="line"/>
      <point x="64.0" y="1025.0" type="line"/>
      <point x="192.0" y="1005.0" type="line"/>
      <point x="192.0" y="101.0" type="line"/>
      <point x="62.0" y="85.0" type="line"/>
    </contour>
    <contour>
      <point x="446.0" y="266.0" type="line"/>
      <point x="544.0" y="266.0" type="line"/>
      <point x="544.0" y="856.0" type="line"/>
      <point x="446.0" y="856.0" type="line"/>
    </contour>
  </outline>
</glyph>
<glyph name="Kabashkir-cy" format="2">
  <advance width="1420.0"/>
  <unicode hex="04A0"/>
  <outline>
    <contour>
      <point x="320.0" y="0.0" type="line"/>
      <point x="774.0" y="0.0" type="line"/>
      <point x="774.0" y="84.0" type="line"/>
      <point x="620.0" y="107.0" type="line"/>
      <point x="620.0" y="704.0" type="line"/>
      <point x="701.0" y="704.0" type="line" smooth="yes"/>
      <point x="763.0" y="704.0"/>
      <point x="843.0" y="574.0"/>
      <point x="928.0" y="424.0" type="curve" smooth="yes"/>
      <point x="1037.0" y="231.0"/>
      <point x="1152.0" y="0.0"/>
      <point x="1228.0" y="0.0" type="curve"/>
      <point x="1400.0" y="0.0" type="line"/>
      <point x="1400.0" y="86.0" type="line"/>
      <point x="1347.0" y="106.0" type="line"/>
      <point x="1279.0" y="132.0"/>
      <point x="1144.0" y="369.0"/>
      <point x="1019.0" y="567.0" type="curve" smooth="yes"/>
      <point x="952.0" y="673.0"/>
      <point x="897.0" y="755.0"/>
      <point x="851.0" y="785.0" type="curve"/>
      <point x="1251.0" y="1378.0" type="line"/>
      <point x="1375.0" y="1400.0" type="line"/>
      <point x="1375.0" y="1486.0" type="line"/>
      <point x="956.0" y="1486.0" type="line"/>
      <point x="956.0" y="1400.0" type="line"/>
      <point x="1112.0" y="1378.0" type="line"/>
      <point x="740.0" y="792.0" type="line"/>
      <point x="622.0" y="792.0" type="line"/>
      <point x="622.0" y="1378.0" type="line"/>
      <point x="770.0" y="1400.0" type="line"/>
      <point x="770.0" y="1486.0" type="line"/>
      <point x="56.0" y="1486.0" type="line"/>
      <point x="36.0" y="1010.0" type="line"/>
      <point x="144.0" y="1010.0" type="line"/>
      <point x="208.0" y="1380.0" type="line"/>
      <point x="460.0" y="1396.0" type="line"/>
      <point x="460.0" y="106.0" type="line"/>
      <point x="320.0" y="89.0" type="line"/>
    </contour>
  </outline>
</glyph>
<glyph name="kabashkir-cy" format="2">
  <advance width="1302.0"/>
  <unicode hex="04A1"/>
  <outline>
    <contour>
      <point x="223.0" y="0.0" type="line"/>
      <point x="724.0" y="0.0" type="line"/>
      <point x="724.0" y="85.0" type="line"/>
      <point x="584.0" y="101.0" type="line"/>
      <point x="584.0" y="533.0" type="line"/>
      <point x="710.0" y="533.0" type="line" smooth="yes"/>
      <point x="861.0" y="533.0"/>
      <point x="991.0" y="0.0"/>
      <point x="1146.0" y="0.0" type="curve"/>
      <point x="1286.0" y="0.0" type="line"/>
      <point x="1286.0" y="85.0" type="line"/>
      <point x="1221.0" y="105.0" type="line" smooth="yes"/>
      <point x="1133.0" y="132.0"/>
      <point x="1027.0" y="519.0"/>
      <point x="853.0" y="597.0" type="curve"/>
      <point x="1124.0" y="1005.0" type="line"/>
      <point x="1248.0" y="1025.0" type="line"/>
      <point x="1248.0" y="1110.0" type="line"/>
      <point x="879.0" y="1110.0" type="line"/>
      <point x="879.0" y="1025.0" type="line"/>
      <point x="1009.0" y="1005.0" type="line"/>
      <point x="753.0" y="617.0" type="line"/>
      <point x="584.0" y="617.0" type="line"/>
      <point x="584.0" y="1005.0" type="line"/>
      <point x="722.0" y="1025.0" type="line"/>
      <point x="722.0" y="1110.0" type="line"/>
      <point x="50.0" y="1110.0" type="line"/>
      <point x="42.0" y="706.0" type="line"/>
      <point x="143.0" y="706.0" type="line"/>
      <point x="187.0" y="1004.0" type="line"/>
      <point x="429.0" y="1010.0" type="line"/>
      <point x="429.0" y="101.0" type="line"/>
      <point x="223.0" y="85.0" type="line"/>
    </contour>
  </outline>
</glyph>
<glyph name="Pemiddlehook-cy" format="2">
  <advance width="1816.0"/>
  <unicode hex="04A6"/>
  <anchor x="1261.0" y="0.0" name="bottomright"/>
  <outline>
    <contour>
      <point x="1364.0" y="-394.0" type="curve" smooth="yes"/>
      <point x="1629.0" y="-394.0"/>
      <point x="1762.0" y="-78.0"/>
      <point x="1762.0" y="350.0" type="curve" smooth="yes"/>
      <point x="1762.0" y="630.0"/>
      <point x="1695.0" y="846.0"/>
      <point x="1331.0" y="850.0" type="curve" smooth="yes"/>
      <point x="1236.0" y="851.0"/>
      <point x="1133.0" y="825.0"/>
      <point x="1076.0" y="786.0" type="curve"/>
      <point x="1072.0" y="690.0" type="line"/>
      <point x="1136.0" y="715.0"/>
      <point x="1185.0" y="736.0"/>
      <point x="1263.0" y="736.0" type="curve" smooth="yes"/>
      <point x="1514.0" y="736.0"/>
      <point x="1596.0" y="606.0"/>
      <point x="1596.0" y="334.0" type="curve" smooth="yes"/>
      <point x="1596.0" y="-94.0"/>
      <point x="1519.0" y="-278.0"/>
      <point x="1332.0" y="-278.0" type="curve" smooth="yes"/>
      <point x="1300.0" y="-278.0"/>
      <point x="1268.0" y="-276.0"/>
      <point x="1250.0" y="-272.0" type="curve"/>
      <point x="1250.0" y="-380.0" type="line"/>
      <point x="1272.0" y="-390.0"/>
      <point x="1332.0" y="-394.0"/>
    </contour>
    <component base="Pe-cy"/>
  </outline>
</glyph>
<glyph name="pemiddlehook-cy" format="2">
  <advance width="1555.0"/>
  <unicode hex="04A7"/>
  <anchor x="1055.0" y="0.0" name="bottomright"/>
  <outline>
    <contour>
      <point x="1175.0" y="-482.0" type="curve" smooth="yes"/>
      <point x="1413.0" y="-482.0"/>
      <point x="1519.0" y="-246.0"/>
      <point x="1519.0" y="144.0" type="curve" smooth="yes"/>
      <point x="1519.0" y="410.0"/>
      <point x="1444.0" y="570.0"/>
      <point x="1152.0" y="570.0" type="curve" smooth="yes"/>
      <point x="1050.0" y="570.0"/>
      <point x="974.0" y="530.0"/>
      <point x="932.0" y="504.0" type="curve"/>
      <point x="932.0" y="410.0" type="line"/>
      <point x="976.0" y="430.0"/>
      <point x="1044.0" y="462.0"/>
      <point x="1116.0" y="462.0" type="curve" smooth="yes"/>
      <point x="1286.0" y="462.0"/>
      <point x="1361.0" y="370.0"/>
      <point x="1361.0" y="134.0" type="curve" smooth="yes"/>
      <point x="1361.0" y="-214.0"/>
      <point x="1315.0" y="-378.0"/>
      <point x="1153.0" y="-378.0" type="curve" smooth="yes"/>
      <point x="1121.0" y="-378.0"/>
      <point x="1073.0" y="-374.0"/>
      <point x="1055.0" y="-371.0" type="curve"/>
      <point x="1057.0" y="-465.0" type="line"/>
      <point x="1077.0" y="-473.0"/>
      <point x="1145.0" y="-482.0"/>
    </contour>
    <component base="pe-cy"/>
  </outline>
</glyph>
<glyph name="Haabkhasian-cy" format="2">
  <advance width="1276.0"/>
  <unicode hex="04A8"/>
  <outline>
    <contour>
      <point x="1220.0" y="100.0" type="line"/>
      <point x="1186.0" y="80.0"/>
      <point x="1135.0" y="72.0"/>
      <point x="1081.0" y="72.0" type="curve" smooth="yes"/>
      <point x="1019.0" y="72.0"/>
      <point x="953.0" y="90.0"/>
      <point x="907.0" y="126.0" type="curve"/>
      <point x="1014.0" y="196.0"/>
      <point x="1198.0" y="398.0"/>
      <point x="1198.0" y="692.0" type="curve" smooth="yes"/>
      <point x="1198.0" y="1100.0"/>
      <point x="997.0" y="1212.0"/>
      <point x="849.0" y="1212.0" type="curve" smooth="yes"/>
      <point x="672.0" y="1212.0"/>
      <point x="498.0" y="1078.0"/>
      <point x="498.0" y="672.0" type="curve" smooth="yes"/>
      <point x="498.0" y="430.0"/>
      <point x="624.0" y="186.0"/>
      <point x="753.0" y="108.0" type="curve"/>
      <point x="679.0" y="72.0"/>
      <point x="638.0" y="72.0"/>
      <point x="607.0" y="72.0" type="curve" smooth="yes"/>
      <point x="404.0" y="72.0"/>
      <point x="219.0" y="294.0"/>
      <point x="219.0" y="732.0" type="curve" smooth="yes"/>
      <point x="219.0" y="1222.0"/>
      <point x="384.0" y="1408.0"/>
      <point x="573.0" y="1408.0" type="curve" smooth="yes"/>
      <point x="607.0" y="1408.0"/>
      <point x="655.0" y="1404.0"/>
      <point x="691.0" y="1394.0" type="curve"/>
      <point x="709.0" y="1494.0" type="line"/>
      <point x="673.0" y="1500.0"/>
      <point x="613.0" y="1502.0"/>
      <point x="579.0" y="1502.0" type="curve" smooth="yes"/>
      <point x="314.0" y="1502.0"/>
      <point x="42.0" y="1238.0"/>
      <point x="42.0" y="728.0" type="curve" smooth="yes"/>
      <point x="42.0" y="302.0"/>
      <point x="232.0" y="-22.0"/>
      <point x="589.0" y="-22.0" type="curve" smooth="yes"/>
      <point x="673.0" y="-22.0"/>
      <point x="754.0" y="4.0"/>
      <point x="821.0" y="56.0" type="curve"/>
      <point x="881.0" y="12.0"/>
      <point x="960.0" y="-22.0"/>
      <point x="1049.0" y="-22.0" type="curve" smooth="yes"/>
      <point x="1123.0" y="-22.0"/>
      <point x="1196.0" y="-4.0"/>
      <point x="1252.0" y="38.0" type="curve"/>
    </contour>
    <contour>
      <point x="833.0" y="172.0" type="curve"/>
      <point x="746.0" y="264.0"/>
      <point x="669.0" y="460.0"/>
      <point x="669.0" y="672.0" type="curve" smooth="yes"/>
      <point x="669.0" y="986.0"/>
      <point x="739.0" y="1132.0"/>
      <point x="847.0" y="1132.0" type="curve" smooth="yes"/>
      <point x="951.0" y="1132.0"/>
      <point x="1023.0" y="974.0"/>
      <point x="1023.0" y="690.0" type="curve" smooth="yes"/>
      <point x="1023.0" y="424.0"/>
      <point x="935.0" y="244.0"/>
    </contour>
  </outline>
</glyph>
<glyph name="haabkhasian-cy" format="2">
  <advance width="1129.0"/>
  <unicode hex="04A9"/>
  <outline>
    <contour>
      <point x="552.0" y="-22.0" type="curve" smooth="yes"/>
      <point x="636.0" y="-22.0"/>
      <point x="713.0" y="-10.0"/>
      <point x="775.0" y="12.0" type="curve"/>
      <point x="829.0" y="-8.0"/>
      <point x="897.0" y="-20.0"/>
      <point x="972.0" y="-20.0" type="curve" smooth="yes"/>
      <point x="1007.0" y="-20.0"/>
      <point x="1067.0" y="-14.0"/>
      <point x="1086.0" y="-8.0" type="curve"/>
      <point x="1089.0" y="75.0" type="line"/>
      <point x="1072.0" y="71.0"/>
      <point x="1043.0" y="69.0"/>
      <point x="1006.0" y="69.0" type="curve" smooth="yes"/>
      <point x="963.0" y="69.0"/>
      <point x="919.0" y="73.0"/>
      <point x="895.0" y="77.0" type="curve"/>
      <point x="1013.0" y="169.0"/>
      <point x="1067.0" y="324.0"/>
      <point x="1067.0" y="514.0" type="curve" smooth="yes"/>
      <point x="1067.0" y="726.0"/>
      <point x="946.0" y="884.0"/>
      <point x="777.0" y="884.0" type="curve" smooth="yes"/>
      <point x="587.0" y="884.0"/>
      <point x="466.0" y="735.0"/>
      <point x="466.0" y="507.0" type="curve" smooth="yes"/>
      <point x="466.0" y="327.0"/>
      <point x="527.0" y="171.0"/>
      <point x="648.0" y="79.0" type="curve"/>
      <point x="619.0" y="73.0"/>
      <point x="602.0" y="73.0"/>
      <point x="548.0" y="73.0" type="curve" smooth="yes"/>
      <point x="352.0" y="73.0"/>
      <point x="223.0" y="297.0"/>
      <point x="223.0" y="576.0" type="curve" smooth="yes"/>
      <point x="223.0" y="873.0"/>
      <point x="351.0" y="1039.0"/>
      <point x="545.0" y="1039.0" type="curve" smooth="yes"/>
      <point x="636.0" y="1039.0"/>
      <point x="670.0" y="1023.0"/>
      <point x="694.0" y="1005.0" type="curve"/>
      <point x="724.0" y="1088.0" type="line"/>
      <point x="703.0" y="1106.0"/>
      <point x="645.0" y="1140.0"/>
      <point x="530.0" y="1140.0" type="curve" smooth="yes"/>
      <point x="262.0" y="1140.0"/>
      <point x="54.0" y="904.0"/>
      <point x="54.0" y="564.0" type="curve" smooth="yes"/>
      <point x="54.0" y="249.0"/>
      <point x="230.0" y="-22.0"/>
    </contour>
    <contour>
      <point x="773.0" y="121.0" type="curve"/>
      <point x="650.0" y="197.0"/>
      <point x="617.0" y="351.0"/>
      <point x="617.0" y="496.0" type="curve" smooth="yes"/>
      <point x="617.0" y="650.0"/>
      <point x="655.0" y="797.0"/>
      <point x="769.0" y="797.0" type="curve" smooth="yes"/>
      <point x="859.0" y="797.0"/>
      <point x="915.0" y="679.0"/>
      <point x="915.0" y="515.0" type="curve" smooth="yes"/>
      <point x="915.0" y="273.0"/>
      <point x="865.0" y="171.0"/>
    </contour>
  </outline>
</glyph>
<glyph name="Esdescender-cy" format="2">
  <advance width="1166"/>
  <unicode hex="04AA"/>
  <anchor x="703" y="0" name="bottom"/>
  <anchor x="773" y="1486" name="top"/>
  <outline>
    <contour>
      <point x="553" y="-360" type="curve"/>
      <point x="665" y="-360" type="line"/>
      <point x="676" y="-246"/>
      <point x="692" y="-114"/>
      <point x="703" y="0" type="curve"/>
      <point x="521" y="0" type="line"/>
      <point x="536" y="-112"/>
      <point x="546" y="-244"/>
    </contour>
    <component base="C"/>
  </outline>
</glyph>
<glyph name="esdescender-cy" format="2">
  <advance width="849"/>
  <unicode hex="04AB"/>
  <anchor x="441" y="0" name="bottom"/>
  <anchor x="488" y="1110" name="top"/>
  <outline>
    <contour>
      <point x="441" y="-346" type="curve"/>
      <point x="535" y="-346" type="line"/>
      <point x="542" y="-234"/>
      <point x="550" y="-114"/>
      <point x="557" y="-2" type="curve"/>
      <point x="406" y="-4" type="line"/>
      <point x="417" y="-114"/>
      <point x="430" y="-236"/>
    </contour>
    <component base="c"/>
  </outline>
</glyph>
<glyph name="Tedescender-cy" format="2">
  <advance width="1195"/>
  <unicode hex="04AC"/>
  <anchor x="614" y="0" name="bottom"/>
  <anchor x="963" y="0" name="bottomright"/>
  <anchor x="599" y="684" name="center"/>
  <anchor x="599" y="1486" name="top"/>
  <outline>
    <contour>
      <point x="632" y="104" type="line"/>
      <point x="632" y="48" type="line"/>
      <point x="961" y="48" type="line"/>
      <point x="961" y="104" type="line"/>
    </contour>
    <component base="T"/>
    <component base="righttooth_part." xOffset="667"/>
  </outline>
</glyph>
<glyph name="ustrait-cy" format="2">
  <advance width="1048.0"/>
  <unicode hex="04AF"/>
  <anchor x="528.0" y="0.0" name="center"/>
  <outline>
    <contour>
      <point x="277.0" y="-484.0" type="line"/>
      <point x="816.0" y="-484.0" type="line"/>
      <point x="816.0" y="-399.0" type="line"/>
      <point x="617.0" y="-375.0" type="line"/>
      <point x="617.0" y="69.0" type="line"/>
      <point x="940.0" y="995.0" type="line"/>
      <point x="1059.0" y="1025.0" type="line"/>
      <point x="1059.0" y="1110.0" type="line"/>
      <point x="673.0" y="1110.0" type="line"/>
      <point x="673.0" y="1025.0" type="line"/>
      <point x="818.0" y="995.0" type="line"/>
      <point x="574.0" y="219.0" type="line"/>
      <point x="551.0" y="151.0" type="line"/>
      <point x="532.0" y="216.0" type="line"/>
      <point x="288.0" y="995.0" type="line"/>
      <point x="435.0" y="1025.0" type="line"/>
      <point x="435.0" y="1110.0" type="line"/>
      <point x="-2.0" y="1110.0" type="line"/>
      <point x="-2.0" y="1025.0" type="line"/>
      <point x="108.0" y="995.0" type="line"/>
      <point x="456.0" y="55.0" type="line"/>
      <point x="456.0" y="-375.0" type="line"/>
      <point x="277.0" y="-399.0" type="line"/>
    </contour>
  </outline>
</glyph>
